<svg id="svg" version="1.1" xmlns="http://www.w3.org/2000/svg" xmlns:xlink="http://www.w3.org/1999/xlink" width="400" height="134.12322274881518" viewBox="0, 0, 400,134.12322274881518"><g id="svgg"><path id="path0" d="M90.985 4.899 C 90.931 4.956,89.450 5.019,87.693 5.040 C 85.937 5.061,84.500 5.145,84.500 5.226 C 84.500 5.308,84.391 5.284,84.257 5.173 C 84.124 5.062,83.935 5.021,83.838 5.081 C 83.627 5.211,82.948 5.263,79.417 5.421 C 77.950 5.487,76.563 5.566,76.333 5.598 C 75.646 5.692,74.371 5.816,72.083 6.009 C 70.892 6.109,69.654 6.220,69.333 6.256 C 66.414 6.576,65.333 6.680,64.833 6.688 C 64.512 6.694,64.175 6.756,64.083 6.828 C 63.992 6.899,63.092 7.009,62.083 7.072 C 61.075 7.134,59.987 7.252,59.667 7.333 C 59.165 7.460,58.158 7.595,55.333 7.914 C 53.219 8.152,51.046 8.455,50.833 8.540 C 50.696 8.595,49.983 8.688,49.250 8.746 C 48.517 8.805,47.892 8.923,47.861 9.010 C 47.831 9.096,47.732 9.167,47.643 9.167 C 47.554 9.167,47.535 9.079,47.601 8.972 C 47.686 8.834,47.628 8.816,47.402 8.909 C 47.227 8.982,46.858 9.062,46.583 9.087 C 45.974 9.143,44.606 9.316,43.887 9.428 C 43.596 9.473,43.321 9.602,43.275 9.714 C 43.212 9.870,43.190 9.868,43.180 9.708 C 43.165 9.475,42.000 9.410,42.000 9.642 C 42.000 9.721,41.456 9.839,40.792 9.904 C 39.685 10.014,39.180 10.073,38.000 10.232 C 37.771 10.263,37.133 10.344,36.583 10.412 C 35.409 10.558,33.306 11.089,32.558 11.429 C 32.269 11.559,31.946 11.667,31.840 11.667 C 31.632 11.667,29.138 12.839,29.000 13.001 C 28.954 13.055,28.570 13.299,28.147 13.544 C 27.355 14.001,25.040 15.924,23.991 16.994 C 23.666 17.327,23.160 17.698,22.866 17.820 C 22.573 17.941,22.333 18.094,22.333 18.160 C 22.333 18.226,22.015 18.380,21.625 18.503 C 20.243 18.938,18.167 20.493,18.167 21.094 C 18.167 21.210,18.101 21.331,18.020 21.361 C 17.940 21.392,17.566 21.904,17.190 22.500 C 16.814 23.096,16.430 23.674,16.337 23.785 C 16.243 23.895,16.167 24.026,16.167 24.076 C 16.167 24.125,15.904 24.531,15.583 24.978 C 14.938 25.876,14.590 27.331,15.019 27.336 C 15.192 27.338,15.199 27.371,15.047 27.467 C 14.892 27.566,14.905 27.710,15.103 28.090 C 15.338 28.538,15.627 29.735,15.704 30.583 C 15.745 31.035,15.390 32.003,15.020 32.446 C 14.738 32.783,13.500 33.422,13.500 33.230 C 13.500 33.012,12.433 33.936,12.151 34.398 C 11.832 34.922,11.141 36.885,11.192 37.122 C 11.207 37.192,11.176 37.362,11.123 37.500 C 11.069 37.637,10.867 38.275,10.674 38.917 C 10.481 39.558,10.100 40.378,9.828 40.738 C 9.190 41.583,9.195 41.635,10.092 43.443 L 10.851 44.971 10.511 46.006 C 10.324 46.574,10.208 47.100,10.254 47.172 C 10.299 47.245,10.268 47.330,10.185 47.361 C 10.044 47.413,9.906 48.353,9.491 52.083 C 9.224 54.478,8.586 56.426,7.661 57.667 C 7.422 57.987,7.130 58.512,7.013 58.833 C 6.896 59.154,6.734 59.567,6.654 59.750 C 6.573 59.933,6.474 60.308,6.434 60.583 C 6.394 60.858,6.346 61.121,6.327 61.167 C 6.309 61.212,6.306 61.315,6.320 61.394 C 6.335 61.474,6.272 61.774,6.181 62.061 C 6.090 62.348,5.987 62.921,5.951 63.333 C 5.915 63.746,5.807 64.271,5.711 64.500 C 5.615 64.729,5.406 65.232,5.246 65.618 C 5.087 66.003,4.667 66.603,4.314 66.951 C 3.472 67.780,3.483 68.032,4.476 70.833 C 4.524 70.971,4.576 71.158,4.590 71.250 C 4.604 71.342,4.661 71.529,4.717 71.667 C 4.773 71.804,4.892 72.292,4.982 72.750 C 5.071 73.208,5.232 73.921,5.339 74.333 C 5.551 75.155,5.665 79.167,5.475 79.167 C 5.294 79.167,4.670 80.944,4.624 81.591 C 4.602 81.907,4.527 82.166,4.458 82.166 C 4.284 82.167,4.301 83.960,4.477 84.069 C 4.556 84.118,4.668 84.508,4.727 84.937 C 4.786 85.366,4.899 85.799,4.978 85.900 C 5.058 86.001,5.218 86.383,5.334 86.750 C 5.450 87.117,5.724 87.772,5.942 88.207 C 6.160 88.642,6.332 89.017,6.325 89.041 C 6.318 89.064,6.347 89.196,6.389 89.333 C 6.464 89.576,6.938 91.212,7.427 92.917 C 7.559 93.375,7.779 94.109,7.916 94.547 C 8.054 94.986,8.167 95.459,8.167 95.599 C 8.167 95.739,8.235 95.811,8.318 95.760 C 8.401 95.708,8.430 95.817,8.381 96.001 C 8.333 96.185,8.368 96.428,8.458 96.543 C 8.549 96.657,8.751 97.144,8.908 97.625 C 9.065 98.106,9.247 98.500,9.312 98.500 C 9.377 98.500,9.524 98.848,9.638 99.274 C 9.752 99.700,9.992 100.255,10.172 100.508 C 10.353 100.761,10.500 101.013,10.500 101.067 C 10.500 101.121,10.828 101.612,11.230 102.157 C 11.862 103.016,11.975 103.299,12.079 104.282 C 12.145 104.906,12.286 105.522,12.391 105.651 C 12.497 105.779,12.560 105.892,12.531 105.901 C 12.373 105.949,13.296 108.000,13.476 108.000 C 13.541 108.000,13.719 108.206,13.870 108.458 C 14.221 109.042,14.902 109.759,15.809 110.500 C 16.201 110.821,16.761 111.287,17.053 111.537 C 17.345 111.786,17.808 112.082,18.083 112.194 C 18.358 112.306,18.621 112.440,18.667 112.491 C 18.712 112.542,19.022 112.721,19.355 112.890 C 20.265 113.352,20.902 114.006,21.391 114.980 C 21.895 115.984,22.980 117.076,23.833 117.439 C 24.569 117.752,26.650 118.197,26.836 118.081 C 26.914 118.034,27.025 118.073,27.084 118.168 C 27.143 118.264,27.430 118.339,27.721 118.336 C 28.012 118.333,28.775 118.328,29.417 118.325 C 30.120 118.322,30.649 118.240,30.750 118.118 C 30.842 118.007,31.253 117.901,31.665 117.881 C 32.076 117.862,32.438 117.768,32.470 117.673 C 32.502 117.578,32.710 117.546,32.933 117.602 C 33.155 117.658,33.430 117.629,33.544 117.537 C 33.657 117.446,34.162 117.320,34.667 117.257 C 35.171 117.195,35.808 117.080,36.083 117.003 C 36.568 116.866,41.803 116.648,44.333 116.660 C 45.929 116.667,54.870 115.998,57.500 115.674 C 58.188 115.590,59.050 115.492,59.417 115.457 C 59.964 115.405,60.075 115.336,60.035 115.072 C 59.998 114.827,60.023 114.805,60.141 114.979 C 60.290 115.201,61.667 115.155,66.167 114.780 C 67.749 114.648,76.703 114.285,77.917 114.304 C 78.008 114.305,79.171 114.349,80.500 114.401 C 81.829 114.454,86.554 114.535,91.000 114.582 C 105.290 114.733,109.142 114.798,109.295 114.893 C 109.378 114.944,110.714 115.000,112.264 115.016 C 113.815 115.033,115.833 115.114,116.750 115.195 C 117.667 115.277,119.692 115.454,121.250 115.588 C 124.894 115.903,125.733 115.978,126.750 116.085 C 127.208 116.133,128.671 116.284,130.000 116.421 C 135.517 116.988,139.059 117.384,140.333 117.573 C 143.518 118.048,147.087 118.456,148.625 118.523 C 149.015 118.540,149.333 118.612,149.333 118.682 C 149.333 118.753,149.746 118.795,150.250 118.775 C 150.754 118.756,151.167 118.782,151.167 118.833 C 151.167 119.065,154.640 119.367,158.866 119.503 C 161.405 119.585,164.128 119.738,164.917 119.843 C 165.706 119.948,166.617 119.984,166.942 119.923 C 167.366 119.843,167.499 119.866,167.415 120.003 C 167.340 120.124,167.411 120.179,167.607 120.155 C 167.777 120.133,168.029 120.156,168.167 120.207 C 168.779 120.430,171.783 120.925,172.125 120.859 C 172.240 120.837,172.333 120.888,172.333 120.973 C 172.333 121.058,172.915 121.181,173.625 121.247 C 174.335 121.313,175.000 121.435,175.102 121.518 C 175.204 121.601,175.598 121.645,175.977 121.615 C 176.356 121.585,176.667 121.614,176.667 121.680 C 176.667 121.746,177.023 121.844,177.458 121.897 C 177.894 121.951,178.550 122.034,178.917 122.081 C 179.283 122.129,180.371 122.249,181.333 122.349 C 182.296 122.449,183.233 122.592,183.417 122.665 C 183.738 122.794,184.404 122.870,190.000 123.411 C 191.421 123.549,193.060 123.748,193.643 123.853 C 194.477 124.004,194.730 124.000,194.831 123.837 C 194.909 123.711,194.984 123.696,195.021 123.800 C 195.083 123.968,197.775 124.348,199.443 124.423 C 199.916 124.444,200.366 124.497,200.443 124.540 C 200.520 124.582,201.069 124.635,201.662 124.655 C 202.256 124.676,202.805 124.732,202.882 124.780 C 202.959 124.828,203.373 124.889,203.803 124.916 C 204.593 124.965,208.082 125.270,209.551 125.418 C 209.991 125.462,210.516 125.534,210.718 125.578 C 210.919 125.623,212.021 125.698,213.167 125.745 C 214.313 125.793,215.438 125.871,215.667 125.918 C 217.066 126.205,217.385 126.218,217.244 125.984 C 217.133 125.801,217.155 125.789,217.343 125.932 C 217.584 126.115,221.942 126.557,223.667 126.574 C 224.171 126.579,224.621 126.626,224.667 126.677 C 224.743 126.763,227.811 127.095,230.250 127.281 C 232.691 127.468,233.765 127.594,233.958 127.719 C 234.087 127.802,234.168 127.770,234.169 127.635 C 234.171 127.456,234.197 127.456,234.309 127.634 C 234.385 127.753,234.515 127.832,234.599 127.809 C 234.682 127.786,235.275 127.819,235.917 127.882 C 236.558 127.946,237.683 128.042,238.417 128.095 C 239.150 128.148,240.180 128.264,240.706 128.353 C 241.232 128.441,241.944 128.499,242.289 128.481 C 242.634 128.462,243.170 128.505,243.479 128.575 C 243.894 128.669,244.010 128.651,243.920 128.506 C 243.831 128.361,243.880 128.352,244.108 128.474 C 244.754 128.821,250.614 129.306,255.667 129.430 C 256.721 129.456,258.127 129.519,258.792 129.570 C 259.690 129.639,260.001 129.609,260.003 129.456 C 260.004 129.310,260.041 129.304,260.128 129.437 C 260.210 129.563,261.854 129.668,265.167 129.758 C 270.812 129.912,270.726 129.908,271.500 130.048 C 271.821 130.106,274.408 130.197,277.250 130.251 C 280.092 130.305,283.054 130.401,283.833 130.466 C 285.610 130.613,297.013 130.610,298.583 130.462 C 299.225 130.402,301.212 130.307,303.000 130.253 C 304.787 130.198,306.700 130.081,307.250 129.994 C 307.800 129.906,309.487 129.750,311.000 129.647 C 315.676 129.329,317.106 129.196,317.500 129.042 C 317.637 128.988,318.108 128.964,318.546 128.988 C 318.984 129.012,319.696 128.952,320.129 128.856 C 320.959 128.672,321.870 128.541,323.250 128.407 C 323.708 128.363,324.271 128.292,324.500 128.250 C 324.729 128.208,325.667 128.063,326.583 127.927 C 331.110 127.259,333.738 126.845,335.250 126.562 C 335.525 126.511,336.350 126.397,337.083 126.308 C 337.817 126.219,338.529 126.100,338.667 126.042 C 338.804 125.985,339.592 125.847,340.417 125.735 C 341.242 125.623,342.554 125.446,343.333 125.340 C 344.113 125.235,345.275 125.076,345.917 124.988 C 346.558 124.899,348.152 124.738,349.458 124.630 C 350.765 124.522,351.833 124.385,351.833 124.326 C 351.833 124.267,352.265 124.204,352.792 124.187 C 353.670 124.158,356.038 123.930,357.250 123.758 C 357.525 123.718,358.537 123.604,359.500 123.503 C 360.462 123.402,361.438 123.277,361.667 123.226 C 361.896 123.174,362.683 123.035,363.417 122.916 C 364.150 122.798,365.275 122.575,365.917 122.423 C 366.558 122.270,367.233 122.112,367.417 122.072 C 369.155 121.694,369.595 121.582,369.667 121.503 C 369.825 121.327,371.471 121.319,371.579 121.492 C 371.638 121.588,371.822 121.667,371.987 121.667 C 372.153 121.667,372.479 121.817,372.712 122.000 C 373.756 122.821,374.677 122.372,375.180 120.797 C 375.457 119.932,375.747 119.404,376.188 118.958 L 376.809 118.332 379.295 118.374 C 380.969 118.403,381.913 118.352,382.182 118.217 C 382.645 117.988,383.950 117.429,384.368 117.283 C 384.979 117.068,385.500 115.910,385.500 114.768 C 385.500 112.849,386.448 111.121,387.815 110.547 C 388.564 110.232,388.928 110.355,389.885 111.250 C 391.544 112.801,392.047 112.451,392.618 109.347 C 392.830 108.193,393.078 107.225,393.169 107.194 C 393.259 107.164,393.333 107.059,393.333 106.961 C 393.333 106.863,393.708 106.424,394.165 105.986 C 394.765 105.411,394.967 105.107,394.887 104.900 C 394.818 104.719,394.842 104.652,394.953 104.721 C 395.792 105.239,395.131 102.670,394.198 101.785 C 392.863 100.519,392.818 100.364,393.423 99.085 C 393.656 98.593,393.874 97.979,393.908 97.720 C 393.943 97.462,394.049 97.046,394.146 96.797 C 394.303 96.390,394.667 93.449,394.703 92.292 C 394.711 92.040,394.784 91.833,394.866 91.833 C 394.948 91.833,394.996 91.740,394.974 91.625 C 394.877 91.129,395.427 89.354,396.002 88.303 C 396.160 88.015,396.511 86.245,396.559 85.500 C 396.574 85.271,396.496 84.446,396.387 83.667 C 395.943 80.501,396.344 75.835,397.153 74.750 C 397.375 74.453,397.716 72.705,397.622 72.347 C 397.565 72.129,397.596 72.040,397.706 72.108 C 397.826 72.182,397.851 71.725,397.783 70.650 C 397.564 67.158,397.517 66.313,397.413 63.919 C 397.353 62.545,397.282 61.383,397.254 61.336 C 397.195 61.236,397.023 59.835,396.823 57.833 C 396.669 56.289,396.651 56.161,396.278 53.833 C 395.734 50.437,395.510 49.213,395.260 48.257 C 395.117 47.710,395.000 47.135,395.000 46.979 C 395.000 46.822,394.944 46.669,394.875 46.639 C 394.765 46.590,394.469 45.580,393.566 42.167 C 393.432 41.662,393.260 41.135,393.182 40.994 C 393.105 40.853,392.986 40.403,392.918 39.994 C 392.851 39.585,392.710 39.145,392.606 39.016 C 392.502 38.887,392.444 38.755,392.478 38.721 C 392.512 38.688,392.454 38.081,392.349 37.372 C 392.244 36.663,392.139 35.933,392.116 35.750 C 392.093 35.567,392.027 35.342,391.970 35.250 C 391.913 35.158,391.813 34.651,391.747 34.123 C 391.681 33.595,391.567 33.124,391.492 33.078 C 391.417 33.032,391.264 32.583,391.151 32.080 C 391.039 31.578,390.893 31.167,390.828 31.167 C 390.763 31.167,390.661 30.867,390.603 30.500 C 390.544 30.133,390.430 29.833,390.349 29.833 C 390.269 29.833,390.151 29.627,390.088 29.375 C 389.967 28.891,388.492 26.586,387.712 25.662 C 387.458 25.361,387.021 24.846,386.741 24.516 C 386.462 24.186,385.638 23.148,384.911 22.208 C 384.185 21.269,383.532 20.500,383.462 20.500 C 383.391 20.500,383.333 20.391,383.333 20.258 C 383.333 20.125,383.235 19.957,383.114 19.883 C 382.993 19.810,382.401 19.037,381.797 18.167 C 380.531 16.340,379.921 15.639,379.741 15.802 C 379.671 15.865,379.661 15.833,379.719 15.731 C 380.039 15.170,377.102 13.430,375.509 13.237 C 375.000 13.176,374.508 13.068,374.417 12.999 C 373.957 12.648,367.169 12.688,364.250 13.059 C 363.883 13.105,362.233 13.192,360.583 13.251 C 358.933 13.311,357.340 13.391,357.042 13.430 C 356.744 13.468,356.256 13.533,355.958 13.573 C 355.660 13.613,354.479 13.732,353.333 13.838 C 352.188 13.944,351.100 14.094,350.917 14.172 C 350.733 14.251,349.908 14.391,349.083 14.484 C 345.657 14.871,343.554 15.164,343.083 15.319 C 342.808 15.410,341.815 15.536,340.875 15.600 C 339.935 15.663,339.167 15.768,339.167 15.833 C 339.167 15.898,338.362 16.003,337.379 16.066 C 336.396 16.130,335.281 16.252,334.902 16.337 C 334.296 16.472,332.445 16.729,330.667 16.924 C 330.346 16.959,329.258 17.097,328.250 17.230 C 327.242 17.364,325.779 17.556,325.000 17.657 C 324.221 17.758,323.452 17.915,323.292 18.005 C 323.093 18.117,323.000 18.112,323.000 17.990 C 323.000 17.892,322.869 17.851,322.708 17.900 C 322.548 17.948,322.004 18.029,321.500 18.080 C 319.886 18.241,319.253 18.370,319.128 18.562 C 319.053 18.677,319.004 18.683,319.003 18.578 C 319.001 18.463,317.458 18.411,314.375 18.422 C 311.831 18.431,308.737 18.372,307.500 18.290 C 306.262 18.209,304.612 18.124,303.833 18.101 C 303.054 18.078,301.967 18.010,301.417 17.950 C 300.867 17.890,298.729 17.798,296.667 17.744 C 294.604 17.691,292.017 17.598,290.917 17.537 C 289.817 17.476,285.073 17.424,280.375 17.422 C 275.677 17.419,271.833 17.365,271.833 17.301 C 271.833 17.238,268.627 17.151,264.708 17.108 C 260.790 17.065,257.096 16.981,256.500 16.923 C 254.915 16.766,251.398 16.502,250.292 16.456 C 249.765 16.435,249.333 16.369,249.333 16.311 C 249.333 16.254,248.621 16.153,247.750 16.088 C 246.880 16.022,246.126 15.902,246.075 15.820 C 246.025 15.739,245.818 15.681,245.617 15.691 C 244.968 15.726,243.333 15.512,243.036 15.353 C 242.878 15.268,242.008 15.110,241.102 15.002 C 240.197 14.894,239.297 14.768,239.103 14.723 C 238.909 14.677,238.525 14.617,238.250 14.590 C 237.975 14.563,237.487 14.493,237.167 14.435 C 236.646 14.341,236.157 14.278,234.417 14.082 C 234.142 14.051,233.204 13.937,232.333 13.828 C 231.463 13.720,230.333 13.615,229.823 13.595 C 229.313 13.575,228.825 13.517,228.739 13.466 C 228.654 13.415,227.758 13.318,226.750 13.250 C 225.742 13.182,224.729 13.100,224.500 13.068 C 224.129 13.015,218.896 12.586,216.500 12.412 C 214.595 12.274,212.703 12.100,210.968 11.905 C 210.629 11.867,210.306 11.909,210.251 11.999 C 210.188 12.101,210.011 12.077,209.783 11.935 C 209.582 11.810,209.043 11.697,208.586 11.684 C 208.128 11.671,207.078 11.580,206.252 11.482 C 204.040 11.218,203.798 11.205,199.167 11.095 C 195.399 11.006,193.955 10.934,191.833 10.733 C 191.512 10.703,190.050 10.562,188.583 10.420 C 187.117 10.279,185.129 10.092,184.167 10.005 C 183.204 9.918,182.042 9.773,181.583 9.683 C 181.125 9.593,179.550 9.429,178.083 9.320 C 174.970 9.087,174.992 9.090,174.667 8.960 C 174.529 8.905,173.779 8.813,173.000 8.755 C 172.221 8.698,171.358 8.616,171.083 8.574 C 170.808 8.531,169.646 8.421,168.500 8.329 C 167.354 8.237,166.141 8.078,165.805 7.975 C 165.468 7.872,164.814 7.825,164.352 7.869 C 163.889 7.914,163.490 7.894,163.464 7.825 C 163.438 7.757,162.710 7.651,161.845 7.592 C 160.981 7.532,160.231 7.457,160.179 7.426 C 160.015 7.328,155.011 6.909,154.774 6.973 C 154.696 6.994,154.535 6.931,154.417 6.833 C 154.298 6.735,154.138 6.672,154.059 6.693 C 153.895 6.736,151.027 6.525,149.667 6.370 C 149.162 6.313,148.356 6.262,147.875 6.258 C 147.394 6.253,147.000 6.205,147.000 6.150 C 147.000 6.095,146.531 6.037,145.958 6.021 C 144.812 5.990,141.491 5.708,140.833 5.586 C 140.604 5.544,138.879 5.463,137.000 5.406 C 135.121 5.349,133.283 5.267,132.917 5.224 C 132.550 5.182,130.975 5.120,129.417 5.087 C 127.858 5.055,126.248 4.989,125.838 4.941 C 125.421 4.892,124.999 4.931,124.880 5.030 C 124.726 5.158,124.667 5.149,124.667 4.998 C 124.667 4.700,102.361 4.920,101.875 5.223 C 101.760 5.295,101.667 5.278,101.667 5.186 C 101.667 5.081,100.680 5.015,99.042 5.009 C 97.598 5.004,95.217 4.954,93.750 4.898 C 92.283 4.841,91.039 4.842,90.985 4.899 " stroke="none" fill="#dc042c" fill-rule="evenodd"></path></g></svg>