<svg id="svg" version="1.1" xmlns="http://www.w3.org/2000/svg" xmlns:xlink="http://www.w3.org/1999/xlink" width="400" height="72.38928376161837" viewBox="0, 0, 400,72.38928376161837"><g id="svgg"><path id="path0" d="M80.083 2.680 C 78.158 2.744,75.758 2.841,74.750 2.895 C 73.742 2.949,71.229 3.069,69.167 3.163 C 62.475 3.466,61.421 3.536,61.125 3.691 C 60.931 3.793,60.833 3.784,60.833 3.663 C 60.833 3.562,60.748 3.533,60.644 3.597 C 60.540 3.662,59.959 3.741,59.352 3.774 C 58.746 3.807,57.800 3.875,57.250 3.924 C 56.700 3.974,55.662 4.008,54.943 3.998 C 54.224 3.989,53.673 4.042,53.718 4.116 C 53.763 4.190,53.302 4.256,52.692 4.263 C 52.082 4.270,50.871 4.326,50.000 4.389 C 49.129 4.451,47.929 4.537,47.333 4.580 C 46.283 4.656,43.607 4.833,42.250 4.916 C 41.883 4.938,41.133 5.004,40.583 5.062 C 40.033 5.119,38.271 5.249,36.667 5.350 C 33.780 5.532,33.083 5.592,33.083 5.658 C 33.083 5.708,32.694 5.772,31.667 5.890 C 29.510 6.137,26.310 7.129,23.667 8.370 C 22.704 8.823,21.767 9.263,21.583 9.349 C 21.400 9.435,20.762 9.608,20.167 9.735 C 18.764 10.032,17.505 10.471,17.210 10.766 C 17.081 10.895,16.918 11.000,16.847 11.000 C 16.776 11.000,16.501 11.187,16.234 11.416 C 15.968 11.646,15.699 11.833,15.636 11.833 C 15.574 11.833,15.475 11.983,15.417 12.167 C 15.358 12.350,15.210 12.500,15.086 12.500 C 14.817 12.500,13.538 13.619,13.301 14.062 C 13.173 14.300,13.220 14.490,13.502 14.871 C 14.115 15.701,14.131 16.533,13.545 17.146 C 13.274 17.430,13.007 17.618,12.953 17.565 C 12.900 17.511,12.607 17.543,12.303 17.635 C 11.999 17.728,11.546 17.849,11.297 17.904 C 10.813 18.011,10.000 18.775,10.000 19.123 C 10.000 19.239,9.931 19.333,9.846 19.333 C 9.762 19.333,9.603 19.605,9.493 19.938 C 9.277 20.593,9.003 20.979,8.292 21.634 C 8.040 21.865,7.833 22.117,7.833 22.192 C 7.833 22.424,8.395 23.000,8.620 23.000 C 8.738 23.000,8.821 23.056,8.806 23.125 C 8.792 23.194,8.860 23.444,8.958 23.680 C 9.108 24.040,9.057 24.272,8.652 25.097 C 8.385 25.639,8.183 26.233,8.203 26.417 C 8.223 26.600,8.183 26.842,8.113 26.954 C 8.043 27.066,7.952 27.420,7.911 27.741 C 7.799 28.620,7.767 28.723,7.542 28.966 C 7.427 29.090,7.331 29.279,7.328 29.387 C 7.320 29.661,6.873 30.154,6.035 30.811 C 5.257 31.421,4.881 32.061,4.425 33.553 C 4.110 34.584,3.452 35.414,2.542 35.931 C 1.943 36.271,1.888 36.430,2.231 36.820 C 2.359 36.965,2.663 37.496,2.908 38.000 C 3.153 38.504,3.470 39.142,3.613 39.417 C 4.136 40.424,4.111 41.921,3.557 42.715 C 2.448 44.306,2.633 45.413,4.292 47.098 C 4.406 47.214,4.500 47.376,4.500 47.457 C 4.500 47.538,4.631 47.752,4.792 47.934 C 4.952 48.116,5.346 48.784,5.667 49.419 C 5.987 50.054,6.344 50.674,6.458 50.798 C 6.573 50.922,6.667 51.098,6.667 51.188 C 6.667 51.279,6.753 51.299,6.859 51.234 C 6.978 51.161,7.006 51.188,6.933 51.306 C 6.755 51.596,8.685 54.167,9.081 54.167 C 9.335 54.167,10.333 55.110,10.333 55.350 C 10.333 56.640,13.800 59.619,14.672 59.080 C 14.801 59.000,14.843 59.015,14.780 59.118 C 14.611 59.392,17.074 60.333,18.125 60.395 C 18.331 60.407,18.500 60.468,18.500 60.530 C 18.500 60.593,18.639 60.688,18.809 60.742 C 18.979 60.796,19.373 61.088,19.684 61.390 C 20.786 62.461,22.236 62.989,24.333 63.085 C 24.746 63.103,25.220 63.177,25.386 63.248 C 25.673 63.371,29.274 63.267,30.167 63.111 C 32.804 62.649,34.936 62.503,40.250 62.420 C 42.542 62.385,45.242 62.317,46.250 62.269 C 47.258 62.221,49.358 62.135,50.917 62.076 C 52.475 62.018,54.163 61.941,54.667 61.905 C 55.171 61.869,56.343 61.811,57.271 61.776 C 58.200 61.740,59.025 61.671,59.105 61.623 C 59.810 61.193,109.345 61.165,115.917 61.591 C 116.467 61.627,117.442 61.693,118.083 61.738 C 118.725 61.783,121.388 61.902,124.000 62.003 C 126.612 62.104,128.975 62.225,129.250 62.273 C 129.525 62.321,130.653 62.386,131.757 62.418 C 132.860 62.450,133.948 62.515,134.173 62.562 C 134.399 62.609,135.729 62.692,137.129 62.747 C 138.529 62.802,139.767 62.881,139.879 62.922 C 140.100 63.004,141.974 63.137,144.500 63.251 C 145.371 63.290,146.608 63.360,147.250 63.406 C 149.998 63.603,151.521 63.692,153.140 63.748 C 154.087 63.780,154.906 63.850,154.959 63.903 C 155.163 64.108,157.500 64.005,157.503 63.792 C 157.505 63.631,157.536 63.633,157.642 63.799 C 157.746 63.963,158.402 64.009,160.348 63.988 C 161.761 63.972,163.329 64.004,163.833 64.058 C 164.337 64.112,165.563 64.201,166.558 64.255 C 167.552 64.310,168.527 64.419,168.724 64.498 C 168.922 64.576,170.508 64.731,172.250 64.843 C 175.912 65.077,176.001 65.085,176.333 65.212 C 176.471 65.264,177.521 65.354,178.667 65.411 C 179.813 65.467,181.463 65.549,182.333 65.592 C 183.204 65.635,184.329 65.707,184.833 65.752 C 187.162 65.962,189.247 66.070,191.109 66.076 C 192.223 66.080,193.105 66.130,193.070 66.188 C 193.034 66.246,194.410 66.350,196.128 66.420 C 199.237 66.547,199.982 66.591,201.250 66.725 C 201.955 66.800,205.048 66.941,209.333 67.095 C 213.084 67.229,214.179 67.288,214.833 67.391 C 215.154 67.442,216.879 67.526,218.667 67.578 C 224.029 67.734,226.555 67.843,227.083 67.943 C 227.760 68.070,228.384 68.108,233.500 68.331 C 239.486 68.593,240.083 68.623,240.083 68.667 C 240.083 68.753,250.211 69.108,256.667 69.248 C 259.646 69.313,263.283 69.395,264.750 69.431 C 279.404 69.789,298.967 69.936,299.666 69.692 C 299.937 69.597,300.197 69.580,300.242 69.654 C 300.363 69.849,301.166 69.662,301.169 69.439 C 301.171 69.320,301.223 69.331,301.310 69.467 C 301.416 69.635,301.995 69.668,303.849 69.613 C 307.060 69.518,311.151 69.335,311.667 69.264 C 311.896 69.233,313.771 69.152,315.833 69.085 C 317.896 69.017,319.648 68.924,319.727 68.877 C 319.806 68.829,320.518 68.771,321.310 68.747 C 322.102 68.724,322.750 68.691,322.750 68.676 C 322.750 68.661,323.200 68.616,323.750 68.577 C 327.237 68.328,329.699 68.162,330.458 68.126 C 330.940 68.102,331.333 68.036,331.333 67.978 C 331.333 67.921,332.290 67.820,333.458 67.756 C 335.494 67.643,337.855 67.435,338.917 67.274 C 339.192 67.233,341.179 67.114,343.333 67.009 C 345.488 66.905,347.587 66.754,348.000 66.674 C 348.412 66.593,349.535 66.516,350.494 66.502 C 351.453 66.488,352.278 66.452,352.327 66.424 C 352.376 66.395,353.842 66.322,355.583 66.261 C 357.325 66.201,358.938 66.118,359.167 66.078 C 360.129 65.911,360.665 65.852,362.167 65.753 C 363.037 65.695,364.350 65.569,365.083 65.473 C 365.817 65.378,366.596 65.307,366.816 65.317 C 367.036 65.326,367.309 65.256,367.424 65.161 C 367.782 64.864,371.336 64.918,371.917 65.230 C 372.992 65.806,373.972 65.546,374.646 64.506 C 375.337 63.440,375.645 63.347,378.750 63.268 C 381.590 63.195,381.861 63.165,383.417 62.747 C 384.574 62.436,384.833 62.174,384.833 61.313 C 384.833 60.971,384.951 60.573,385.094 60.430 C 385.237 60.287,385.301 60.082,385.235 59.976 C 385.165 59.863,385.187 59.827,385.288 59.889 C 385.383 59.947,385.651 59.846,385.884 59.663 C 386.116 59.480,386.537 59.284,386.820 59.228 C 387.102 59.171,387.333 59.061,387.333 58.983 C 387.333 58.755,388.361 59.009,389.083 59.417 C 390.466 60.197,392.093 59.968,391.753 59.042 C 391.711 58.927,391.750 58.833,391.839 58.833 C 391.927 58.833,392.000 58.688,392.000 58.510 C 392.000 58.055,392.652 57.000,392.933 57.000 C 393.062 57.000,393.167 56.928,393.167 56.840 C 393.167 56.752,393.468 56.590,393.837 56.479 C 395.113 56.097,394.878 55.200,393.292 54.396 C 392.402 53.945,392.261 53.486,392.825 52.881 C 393.304 52.366,393.774 51.222,393.992 50.040 C 394.191 48.958,394.529 48.183,395.058 47.593 C 395.348 47.270,395.753 46.436,395.637 46.401 C 395.607 46.392,395.686 46.261,395.811 46.110 C 396.059 45.811,395.945 44.422,395.657 44.244 C 395.134 43.921,395.676 40.993,396.411 40.170 C 396.535 40.031,396.662 39.767,396.693 39.583 C 396.724 39.400,396.851 39.144,396.974 39.014 C 397.195 38.781,397.178 36.110,396.951 35.500 C 396.900 35.362,396.809 34.613,396.748 33.835 C 396.687 33.057,396.591 32.346,396.536 32.257 C 396.481 32.167,396.418 31.904,396.396 31.672 C 396.328 30.932,395.406 27.573,395.000 26.583 C 394.203 24.641,393.334 23.168,392.982 23.164 C 392.793 23.162,392.791 23.136,392.971 23.022 C 393.150 22.908,393.142 22.832,392.929 22.619 C 392.785 22.475,392.667 22.277,392.667 22.179 C 392.667 22.081,392.442 21.525,392.167 20.943 C 391.892 20.361,391.667 19.765,391.667 19.619 C 391.667 19.473,391.600 19.312,391.519 19.262 C 391.438 19.211,391.323 18.915,391.264 18.602 C 391.206 18.289,390.972 17.760,390.746 17.426 C 390.519 17.092,390.333 16.776,390.333 16.724 C 390.333 16.152,386.844 13.204,386.453 13.446 C 386.359 13.504,386.327 13.478,386.382 13.389 C 386.437 13.300,386.074 12.979,385.575 12.676 C 385.075 12.374,384.667 12.060,384.667 11.980 C 384.667 11.899,384.586 11.833,384.488 11.833 C 384.390 11.833,383.965 11.596,383.543 11.306 C 383.121 11.015,382.676 10.778,382.555 10.778 C 382.433 10.778,382.331 10.697,382.328 10.597 C 382.325 10.498,381.793 10.042,381.146 9.583 C 380.499 9.125,379.864 8.651,379.736 8.531 C 379.608 8.411,379.408 8.366,379.293 8.433 C 379.178 8.499,379.138 8.493,379.205 8.419 C 379.564 8.022,376.402 7.063,373.978 6.835 C 371.941 6.643,359.370 6.828,355.833 7.102 C 355.238 7.148,353.587 7.256,352.167 7.343 C 350.746 7.429,349.171 7.533,348.667 7.574 C 348.162 7.615,347.375 7.677,346.917 7.714 C 346.458 7.750,345.071 7.868,343.833 7.976 C 342.596 8.084,340.421 8.246,339.000 8.336 C 337.579 8.425,335.854 8.542,335.167 8.595 C 334.479 8.649,332.417 8.799,330.583 8.930 C 328.750 9.061,326.987 9.197,326.667 9.233 C 325.860 9.323,318.768 9.653,315.833 9.737 C 314.504 9.775,313.173 9.835,312.875 9.871 C 312.577 9.907,312.333 9.877,312.333 9.806 C 312.333 9.735,310.227 9.675,307.652 9.672 C 305.077 9.670,302.921 9.638,302.860 9.602 C 302.685 9.496,287.790 9.280,279.625 9.264 C 275.523 9.256,272.167 9.194,272.167 9.127 C 272.167 9.059,268.613 9.005,264.269 9.007 C 257.051 9.010,248.907 8.796,247.250 8.560 C 246.883 8.508,246.133 8.436,245.583 8.402 C 245.033 8.367,243.346 8.220,241.833 8.075 C 240.321 7.929,238.521 7.789,237.833 7.762 C 237.146 7.735,236.471 7.671,236.333 7.620 C 236.196 7.569,234.396 7.447,232.333 7.350 C 230.271 7.252,228.358 7.138,228.083 7.096 C 226.598 6.866,217.449 6.645,217.332 6.836 C 217.243 6.980,217.189 6.984,217.144 6.850 C 217.079 6.652,216.064 6.554,212.750 6.426 C 211.650 6.384,210.499 6.297,210.191 6.234 C 209.794 6.152,209.590 6.186,209.486 6.351 C 209.405 6.479,209.337 6.501,209.336 6.401 C 209.333 6.194,206.386 6.037,200.000 5.906 C 192.643 5.754,191.087 5.703,190.833 5.603 C 190.696 5.548,189.671 5.521,188.557 5.543 C 187.442 5.565,186.607 5.536,186.701 5.478 C 186.795 5.421,185.382 5.317,183.561 5.249 C 181.740 5.181,179.987 5.087,179.667 5.041 C 179.346 4.995,178.371 4.929,177.500 4.895 C 176.629 4.860,174.829 4.767,173.500 4.688 C 171.947 4.596,171.046 4.603,170.979 4.708 C 170.913 4.811,170.851 4.804,170.812 4.691 C 170.775 4.584,170.099 4.495,169.125 4.469 C 168.231 4.445,167.500 4.385,167.500 4.335 C 167.500 4.286,166.919 4.238,166.208 4.230 C 165.498 4.222,164.542 4.169,164.083 4.113 C 163.625 4.057,161.825 3.964,160.083 3.906 C 158.342 3.849,156.729 3.779,156.500 3.752 C 154.692 3.535,153.190 3.457,143.583 3.080 C 142.300 3.030,140.441 2.956,139.452 2.917 C 138.463 2.877,137.581 2.800,137.493 2.746 C 137.405 2.692,137.333 2.729,137.333 2.829 C 137.333 2.956,137.238 2.961,137.021 2.845 C 136.516 2.574,129.150 2.592,128.978 2.863 C 128.873 3.029,128.838 3.010,128.836 2.785 C 128.834 2.536,106.805 2.413,101.583 2.632 C 101.492 2.636,97.404 2.622,92.500 2.601 C 87.596 2.580,82.008 2.616,80.083 2.680 " stroke="none" fill="#dc042c" fill-rule="evenodd"></path></g></svg>