<svg id="svg" version="1.1" xmlns="http://www.w3.org/2000/svg" xmlns:xlink="http://www.w3.org/1999/xlink" width="400" height="728.421052631579" viewBox="0, 0, 400,728.421052631579"><g id="svgg"><path id="path0" d="M262.265 22.561 C 252.849 22.926,250.644 23.119,250.265 23.610 C 248.868 25.417,246.740 25.967,237.915 26.805 C 233.383 27.236,233.186 27.294,231.887 28.593 C 230.997 29.483,230.012 30.018,228.972 30.178 C 228.107 30.310,226.531 30.594,225.469 30.809 C 224.408 31.024,222.944 31.200,222.217 31.200 C 221.179 31.200,220.668 31.497,219.840 32.583 C 218.757 34.003,216.904 34.788,214.600 34.804 C 212.715 34.817,210.592 35.717,209.171 37.106 C 208.367 37.892,207.009 38.624,205.633 39.014 C 204.405 39.361,203.130 39.725,202.800 39.823 C 202.470 39.921,201.536 40.632,200.725 41.403 C 199.766 42.313,198.513 42.992,197.148 43.342 C 195.692 43.714,194.729 44.259,194.015 45.115 C 192.910 46.438,189.747 48.000,188.172 48.000 C 187.449 48.000,187.064 48.352,186.619 49.417 C 186.178 50.472,185.564 51.038,184.211 51.636 C 183.212 52.078,181.991 52.989,181.497 53.661 C 181.004 54.332,179.747 55.315,178.704 55.846 C 177.661 56.376,176.091 57.587,175.215 58.537 C 174.290 59.541,172.948 60.487,172.012 60.796 C 171.125 61.089,170.400 61.576,170.400 61.878 C 170.400 62.928,169.127 64.362,167.809 64.797 C 166.896 65.098,166.321 65.635,165.963 66.517 C 165.350 68.031,164.213 69.131,162.926 69.454 C 162.334 69.603,162.000 69.983,162.000 70.508 C 162.000 71.678,160.194 74.606,158.898 75.537 C 158.294 75.971,157.442 77.018,157.006 77.863 C 156.193 79.434,155.629 80.065,153.825 81.420 C 153.261 81.843,152.800 82.571,152.800 83.037 C 152.800 83.932,151.134 86.000,150.413 86.000 C 150.179 86.000,149.702 86.675,149.354 87.500 C 147.863 91.033,146.988 92.514,146.172 92.886 C 145.365 93.253,144.400 95.437,144.400 96.897 C 144.400 97.229,143.686 98.259,142.813 99.186 C 141.940 100.113,141.052 101.440,140.840 102.136 C 140.628 102.831,140.233 104.167,139.962 105.103 C 139.691 106.041,138.780 107.532,137.935 108.420 C 137.091 109.308,136.400 110.405,136.400 110.860 C 136.400 113.321,135.031 117.225,133.763 118.379 C 132.747 119.303,132.400 120.001,132.216 121.485 C 131.365 128.352,131.123 129.215,129.602 130.798 L 128.128 132.332 127.602 138.381 C 127.312 141.708,126.923 144.524,126.738 144.639 C 126.552 144.753,126.400 145.298,126.400 145.848 C 126.400 146.399,125.969 147.783,125.442 148.925 C 123.844 152.389,123.682 153.472,123.402 162.600 C 123.254 167.440,122.948 173.020,122.723 175.000 C 122.480 177.143,122.246 196.596,122.146 223.078 L 121.977 267.557 120.577 268.878 C 118.072 271.243,120.420 271.137,69.939 271.170 L 23.278 271.200 22.504 272.700 C 21.917 273.836,21.376 274.289,20.273 274.568 C 17.211 275.343,17.194 275.719,17.221 341.126 C 17.248 407.356,17.126 405.455,21.400 406.685 C 22.280 406.938,24.080 407.469,25.400 407.865 C 27.637 408.536,30.799 408.593,71.996 408.703 L 116.192 408.820 117.796 410.095 C 118.678 410.797,119.466 411.529,119.546 411.724 C 119.627 411.918,120.212 412.669,120.846 413.392 L 122.000 414.706 122.000 556.032 C 122.000 713.653,121.815 704.506,125.083 708.407 C 127.050 710.755,122.307 710.589,191.200 710.721 C 261.025 710.855,258.873 710.927,259.456 708.455 C 259.754 707.194,261.117 705.600,261.898 705.600 C 263.940 705.600,263.783 716.571,264.000 558.629 C 264.208 407.152,264.164 411.200,265.621 411.200 C 265.746 411.200,266.201 410.872,266.632 410.471 C 268.142 409.064,269.542 409.019,319.800 408.792 C 384.738 408.497,380.982 409.013,382.399 400.200 C 382.911 397.015,382.736 280.267,382.214 277.297 C 381.887 275.434,381.658 275.194,379.635 274.597 C 378.724 274.328,378.059 273.774,377.635 272.931 C 376.721 271.113,379.562 271.200,321.009 271.200 L 267.318 271.200 265.963 270.286 C 263.937 268.921,263.940 269.008,264.118 223.400 C 264.296 177.956,264.290 178.074,266.581 175.782 C 267.122 175.242,267.679 174.125,267.820 173.300 C 268.451 169.603,269.810 167.200,271.270 167.200 C 271.698 167.200,272.001 166.911,272.001 166.500 C 272.004 165.285,273.571 163.168,274.780 162.747 C 275.505 162.494,276.092 161.911,276.341 161.197 C 276.762 159.990,278.581 158.800,280.006 158.800 C 281.107 158.800,282.184 158.208,283.520 156.867 C 285.191 155.192,286.263 154.838,290.976 154.407 C 294.394 154.094,295.663 153.805,296.776 153.090 C 300.208 150.883,297.484 151.025,340.858 150.804 C 384.371 150.583,382.800 150.665,382.800 148.633 C 382.800 148.389,383.261 147.843,383.825 147.420 C 386.366 145.512,386.267 145.788,386.774 139.198 C 387.754 126.470,387.033 27.200,385.961 27.200 C 385.763 27.200,385.599 26.975,385.597 26.700 C 385.596 26.425,385.039 25.883,384.359 25.497 C 383.679 25.110,383.035 24.457,382.928 24.045 C 382.432 22.148,384.034 22.203,327.200 22.157 C 294.140 22.130,269.406 22.284,262.265 22.561 " stroke="none" fill="#1c5cbb" fill-rule="evenodd"></path></g></svg>