<svg id="svg" version="1.1" xmlns="http://www.w3.org/2000/svg" xmlns:xlink="http://www.w3.org/1999/xlink" width="400" height="27.10926694329184" viewBox="0, 0, 400,27.10926694329184"><g id="svgg"><path id="path0" d="M324.531 2.111 C 323.289 2.491,321.995 3.753,321.520 5.048 C 319.750 9.878,325.553 13.866,329.411 10.470 C 333.462 6.904,329.735 0.519,324.531 2.111 M9.342 2.775 C 4.045 3.592,2.162 6.181,2.170 12.640 C 2.176 17.694,3.781 20.853,6.720 21.591 C 7.162 21.702,7.167 21.717,7.167 23.173 C 7.167 25.781,7.914 25.866,9.891 23.483 L 10.666 22.548 13.125 22.454 C 20.600 22.168,22.848 19.897,22.895 12.583 C 22.937 5.982,21.121 3.593,15.417 2.749 C 13.376 2.447,11.420 2.455,9.342 2.775 M389.917 4.045 C 387.928 4.865,387.011 6.123,387.004 8.042 C 387.002 8.569,386.933 9.000,386.852 9.000 C 384.597 9.000,381.144 7.437,379.147 5.512 L 378.342 4.736 378.088 5.371 C 377.548 6.720,378.036 8.606,379.208 9.709 L 379.750 10.219 379.056 10.110 C 378.675 10.050,378.243 9.955,378.098 9.899 C 377.685 9.741,377.765 10.464,378.273 11.483 C 378.718 12.376,379.509 13.090,380.518 13.508 C 381.135 13.763,380.861 13.967,379.871 13.988 C 378.522 14.017,380.635 16.102,382.499 16.582 L 383.250 16.775 382.333 17.306 C 381.115 18.011,380.007 18.346,378.534 18.455 L 377.319 18.545 377.797 18.836 C 379.944 20.142,384.514 20.560,387.083 19.687 C 391.739 18.103,394.728 14.219,395.251 9.074 C 395.365 7.952,395.397 7.887,396.309 6.941 C 396.904 6.323,397.128 5.999,396.917 6.059 C 395.187 6.552,394.751 6.527,395.490 5.981 C 395.911 5.670,396.667 4.668,396.667 4.422 C 396.667 4.389,396.110 4.562,395.429 4.805 L 394.191 5.247 393.804 4.893 C 392.845 4.016,390.976 3.608,389.917 4.045 M14.809 4.173 C 20.068 4.833,21.729 7.106,21.440 13.250 C 21.169 19.002,19.440 20.555,12.876 20.941 L 11.002 21.051 10.358 21.900 C 7.963 25.061,7.667 25.121,7.667 22.445 L 7.667 20.390 6.816 19.992 C 3.875 18.615,2.571 12.841,4.164 8.250 C 5.333 4.878,9.056 3.452,14.809 4.173 M327.517 4.714 C 330.149 6.485,327.682 10.507,324.917 8.953 C 323.430 8.117,323.232 6.067,324.526 4.896 C 325.293 4.202,326.634 4.120,327.517 4.714 M74.667 5.681 C 72.998 6.437,72.463 7.393,72.365 9.792 L 72.296 11.500 71.058 11.500 L 69.821 11.500 69.869 13.125 L 69.917 14.750 71.125 14.799 L 72.333 14.848 72.333 18.507 L 72.333 22.167 74.083 22.167 L 75.833 22.167 75.833 18.506 L 75.833 14.846 77.292 14.798 L 78.750 14.750 78.750 13.167 L 78.750 11.583 77.292 11.535 L 75.833 11.487 75.833 10.253 C 75.833 8.698,76.045 8.500,77.704 8.500 L 78.833 8.500 78.833 6.917 L 78.833 5.333 77.125 5.337 C 75.767 5.340,75.263 5.410,74.667 5.681 M256.449 6.238 C 254.417 6.784,254.116 7.705,254.195 13.133 C 254.292 19.785,254.467 19.896,264.656 19.794 C 274.028 19.701,273.920 19.786,273.913 12.500 C 273.907 5.775,274.257 6.004,264.000 6.015 C 259.025 6.021,257.039 6.079,256.449 6.238 M133.081 6.517 C 130.908 7.663,130.670 8.366,130.668 13.647 C 130.666 19.103,131.072 20.255,133.296 21.113 C 134.474 21.568,142.192 21.568,143.370 21.113 C 145.642 20.236,146.049 19.006,145.972 13.250 C 145.905 8.182,145.712 7.639,143.586 6.517 C 142.563 5.978,134.103 5.978,133.081 6.517 M12.167 6.826 C 12.167 6.913,12.448 7.030,12.792 7.084 C 15.641 7.538,17.278 9.162,17.626 11.881 C 17.767 12.981,18.097 13.108,18.057 12.047 C 17.970 9.742,16.315 7.530,14.202 6.894 C 13.331 6.632,12.167 6.593,12.167 6.826 M7.459 8.002 C 5.490 9.970,9.513 15.825,14.396 18.099 C 16.707 19.175,18.813 17.144,16.958 15.628 C 15.476 14.417,14.851 14.265,14.317 14.986 C 13.645 15.896,12.361 15.549,11.029 14.099 C 9.682 12.631,9.413 11.639,10.167 10.917 C 10.781 10.328,10.796 9.869,10.230 8.955 C 9.117 7.158,8.511 6.950,7.459 8.002 M142.672 7.499 C 142.997 7.589,143.559 7.967,143.922 8.339 L 144.583 9.016 144.583 13.716 L 144.583 18.417 144.177 18.959 C 143.343 20.071,142.878 20.167,138.333 20.167 C 133.722 20.167,133.272 20.067,132.435 18.860 L 132.000 18.232 132.000 13.847 C 132.000 8.586,132.159 8.101,134.083 7.475 C 134.623 7.299,142.029 7.320,142.672 7.499 M12.667 8.306 C 12.667 8.383,13.112 8.569,13.657 8.721 C 15.209 9.152,16.163 10.351,16.166 11.875 C 16.166 12.187,16.253 12.333,16.438 12.333 C 17.128 12.333,16.393 10.096,15.387 9.134 C 14.620 8.401,12.667 7.806,12.667 8.306 M141.833 9.000 C 141.418 9.415,141.408 9.865,141.805 10.224 C 142.469 10.825,143.375 10.438,143.375 9.554 C 143.375 8.731,142.439 8.395,141.833 9.000 M197.488 8.976 L 197.106 9.286 197.587 9.518 C 198.170 9.799,198.295 10.198,198.317 11.850 C 198.360 15.166,197.299 14.886,195.311 11.058 L 194.373 9.250 192.576 9.202 C 190.201 9.140,190.231 9.067,191.548 11.704 C 194.077 16.770,196.095 18.949,198.833 19.572 C 201.093 20.086,202.000 19.885,202.001 18.869 C 202.002 17.064,202.905 16.806,204.248 18.226 C 205.632 19.689,205.966 19.833,207.978 19.833 C 210.980 19.833,210.999 19.355,208.116 16.391 C 206.718 14.953,206.714 15.017,208.346 12.840 C 210.845 9.509,210.821 9.266,207.979 9.204 L 205.875 9.157 205.038 10.870 C 203.043 14.952,202.000 15.143,202.000 11.428 C 202.000 8.669,201.998 8.667,199.602 8.667 C 198.163 8.667,197.806 8.719,197.488 8.976 M13.167 9.839 C 13.167 9.933,13.298 10.052,13.458 10.104 C 14.228 10.350,14.486 10.579,14.617 11.134 C 14.821 11.997,15.250 12.080,15.115 11.231 C 14.959 10.253,13.167 8.972,13.167 9.839 M137.131 10.032 C 136.290 10.256,135.101 11.341,134.749 12.206 C 133.177 16.073,137.774 19.404,140.897 16.662 C 144.065 13.880,141.256 8.936,137.131 10.032 M264.925 11.113 C 268.060 12.710,268.059 12.789,264.854 14.460 C 262.321 15.780,262.308 15.784,261.929 15.405 C 261.492 14.969,261.548 10.618,261.996 10.171 C 262.379 9.787,262.227 9.738,264.925 11.113 M139.605 11.438 C 140.815 12.012,141.325 13.710,140.672 14.990 C 139.610 17.072,136.499 16.788,135.828 14.548 C 135.156 12.304,137.450 10.416,139.605 11.438 M320.512 12.272 C 319.609 13.420,320.988 14.734,323.827 15.429 L 325.237 15.774 323.202 17.839 C 320.999 20.075,320.814 20.444,321.552 21.138 C 322.305 21.844,322.756 21.654,324.539 19.878 L 326.167 18.256 327.795 19.878 C 329.597 21.674,330.089 21.876,330.804 21.114 C 331.493 20.382,331.322 20.048,329.167 17.910 C 326.795 15.557,326.861 15.789,328.470 15.443 C 330.431 15.022,332.000 13.936,332.000 13.000 C 332.000 11.981,330.828 11.483,329.981 12.143 C 328.098 13.609,324.746 13.688,322.584 12.316 C 321.616 11.703,320.971 11.689,320.512 12.272 " stroke="none" fill="#0d2d5e" fill-rule="evenodd"></path></g></svg>