<svg id="svg" version="1.1" xmlns="http://www.w3.org/2000/svg" xmlns:xlink="http://www.w3.org/1999/xlink" width="400" height="400" viewBox="0, 0, 400,400"><g id="svgg"><path id="path0" d="M106.800 11.205 C 105.370 11.365,103.210 11.773,102.000 12.113 C 100.790 12.452,97.640 12.939,95.000 13.196 C 92.055 13.482,89.826 13.903,89.231 14.285 C 88.099 15.014,84.649 15.988,83.178 15.995 C 82.615 15.998,81.545 16.450,80.800 17.000 C 80.055 17.550,79.038 18.000,78.541 18.000 C 77.519 18.000,75.878 18.644,74.400 19.625 C 73.850 19.990,72.410 20.521,71.200 20.805 C 69.990 21.089,68.730 21.626,68.400 21.998 C 67.634 22.861,66.243 23.600,65.384 23.600 C 65.016 23.600,64.387 24.017,63.986 24.526 C 63.586 25.036,62.512 25.699,61.600 26.000 C 60.688 26.301,59.716 26.870,59.440 27.264 C 59.164 27.658,58.404 28.210,57.751 28.490 C 57.098 28.771,56.302 29.230,55.982 29.511 C 54.529 30.787,50.671 33.600,50.374 33.600 C 50.099 33.600,48.151 35.389,43.915 39.530 C 43.538 39.898,43.061 40.353,42.855 40.540 C 42.510 40.853,41.880 41.476,40.081 43.285 C 39.707 43.662,39.278 44.112,39.128 44.285 C 38.979 44.458,37.753 45.757,36.404 47.172 C 35.055 48.586,33.764 50.094,33.535 50.522 C 33.009 51.503,30.605 54.782,29.755 55.675 C 29.402 56.046,28.682 57.216,28.154 58.275 C 27.069 60.452,25.610 62.611,24.411 63.814 C 23.965 64.262,23.600 65.036,23.600 65.534 C 23.600 66.589,22.709 68.446,21.868 69.143 C 21.547 69.410,21.168 70.247,21.026 71.002 C 20.884 71.758,20.328 72.900,19.790 73.539 C 19.225 74.211,18.542 75.864,18.175 77.451 C 17.825 78.963,17.293 80.473,16.992 80.806 C 16.692 81.140,16.150 82.850,15.789 84.606 C 15.428 86.363,14.795 88.350,14.382 89.023 C 13.849 89.889,13.506 91.636,13.203 95.023 C 12.919 98.189,12.476 100.542,11.887 102.000 L 11.000 104.200 11.000 199.400 L 11.000 294.600 11.879 297.400 C 12.363 298.940,12.962 302.360,13.210 305.000 C 13.490 307.972,13.899 310.169,14.285 310.769 C 15.014 311.901,15.988 315.351,15.995 316.822 C 15.998 317.385,16.450 318.455,17.000 319.200 C 17.550 319.945,18.003 320.925,18.006 321.378 C 18.014 322.454,18.843 324.741,19.682 326.000 C 20.048 326.550,20.568 327.900,20.837 329.000 C 21.107 330.100,21.758 331.520,22.285 332.156 C 22.811 332.792,23.347 333.833,23.474 334.470 C 23.601 335.107,24.028 335.855,24.423 336.131 C 24.817 336.407,25.450 337.436,25.829 338.417 C 26.209 339.397,26.833 340.470,27.216 340.800 C 27.600 341.130,28.201 341.940,28.552 342.600 C 28.904 343.260,30.007 344.790,31.004 346.000 C 32.001 347.210,33.123 348.850,33.497 349.644 C 33.872 350.438,34.678 351.374,35.289 351.725 C 35.900 352.076,36.400 352.629,36.400 352.954 C 36.400 353.280,36.762 353.661,37.204 353.801 C 37.647 353.942,38.275 354.571,38.600 355.200 C 38.925 355.829,39.553 356.458,39.996 356.599 C 40.438 356.739,40.800 357.021,40.800 357.225 C 40.800 357.717,43.911 360.819,45.300 361.712 C 45.905 362.100,46.400 362.655,46.400 362.945 C 46.400 363.235,46.853 363.678,47.406 363.930 C 47.959 364.182,48.612 364.827,48.856 365.363 C 49.100 365.900,49.751 366.452,50.302 366.590 C 51.267 366.832,53.416 368.379,55.513 370.342 C 56.067 370.860,57.078 371.474,57.760 371.707 C 58.442 371.941,59.626 372.642,60.391 373.266 C 61.156 373.890,62.004 374.400,62.275 374.400 C 62.546 374.400,63.180 374.820,63.684 375.334 C 64.188 375.848,65.365 376.485,66.299 376.750 C 67.234 377.015,68.314 377.560,68.699 377.962 C 69.085 378.363,70.306 378.988,71.414 379.350 C 72.522 379.711,73.724 380.353,74.086 380.775 C 74.476 381.230,75.527 381.651,76.671 381.809 C 77.732 381.956,79.410 382.482,80.400 382.977 C 81.390 383.472,83.370 384.099,84.800 384.370 C 86.230 384.640,88.010 385.217,88.755 385.650 C 89.708 386.204,91.616 386.596,95.190 386.970 C 98.356 387.301,100.860 387.783,101.835 388.250 C 103.744 389.165,295.312 389.456,296.439 388.547 C 297.052 388.051,300.409 387.463,306.567 386.771 C 309.152 386.481,310.893 386.073,311.567 385.601 C 312.135 385.202,313.860 384.654,315.400 384.382 C 316.940 384.110,318.668 383.560,319.241 383.159 C 319.813 382.758,321.141 382.237,322.192 382.002 C 323.243 381.766,324.844 381.152,325.751 380.636 C 326.658 380.121,328.291 379.485,329.381 379.224 C 330.470 378.962,331.601 378.405,331.895 377.986 C 332.189 377.566,333.155 377.006,334.042 376.740 C 334.929 376.474,335.878 375.939,336.150 375.550 C 336.422 375.161,337.535 374.543,338.623 374.176 C 339.710 373.809,340.744 373.260,340.920 372.955 C 341.096 372.650,341.763 372.129,342.404 371.798 C 343.044 371.467,344.003 370.792,344.535 370.298 C 346.091 368.855,348.923 366.886,350.071 366.449 C 350.654 366.227,351.249 365.676,351.393 365.223 C 351.536 364.770,351.794 364.400,351.965 364.400 C 352.137 364.400,353.482 363.230,354.955 361.800 C 356.428 360.370,357.728 359.200,357.845 359.200 C 358.121 359.200,359.200 358.121,359.200 357.845 C 359.200 357.728,360.370 356.428,361.800 354.955 C 363.230 353.482,364.400 352.137,364.400 351.965 C 364.400 351.794,364.770 351.536,365.223 351.393 C 365.676 351.249,366.227 350.654,366.449 350.071 C 366.892 348.906,368.866 346.077,370.342 344.492 C 370.860 343.935,371.478 342.922,371.715 342.240 C 371.953 341.558,372.653 340.460,373.272 339.800 C 373.890 339.140,374.397 338.389,374.398 338.131 C 374.399 337.873,374.815 337.153,375.322 336.531 C 375.829 335.909,376.492 334.622,376.796 333.671 C 377.099 332.720,377.641 331.730,378.000 331.471 C 378.360 331.212,378.890 330.146,379.178 329.103 C 379.466 328.060,380.118 326.758,380.626 326.210 C 381.182 325.610,381.656 324.455,381.817 323.307 C 381.965 322.258,382.449 320.770,382.894 320.000 C 383.339 319.230,384.015 317.112,384.396 315.293 C 384.777 313.474,385.366 311.674,385.704 311.293 C 386.259 310.668,386.526 309.088,387.400 301.267 C 387.507 300.314,387.910 298.874,388.297 298.067 C 389.386 295.795,389.389 106.064,388.300 103.087 C 387.915 102.035,387.338 98.676,387.016 95.623 C 386.590 91.575,386.218 89.719,385.641 88.771 C 385.205 88.055,384.631 86.194,384.363 84.635 C 384.091 83.050,383.554 81.439,383.145 80.981 C 382.742 80.530,382.304 79.540,382.172 78.781 C 381.843 76.884,381.183 75.170,380.373 74.105 C 379.999 73.612,379.572 72.411,379.426 71.434 C 379.266 70.366,378.679 69.055,377.952 68.139 C 377.287 67.303,376.643 66.114,376.519 65.495 C 376.395 64.877,375.972 64.145,375.577 63.869 C 375.183 63.593,374.550 62.590,374.170 61.641 C 373.790 60.692,373.057 59.493,372.540 58.976 C 372.023 58.459,371.600 57.785,371.600 57.478 C 371.600 57.170,371.105 56.373,370.500 55.706 C 368.234 53.207,366.833 51.272,366.590 50.302 C 366.452 49.751,365.900 49.100,365.363 48.856 C 364.827 48.612,364.182 47.959,363.930 47.406 C 363.678 46.853,363.235 46.400,362.945 46.400 C 362.655 46.400,362.100 45.905,361.712 45.300 C 360.819 43.911,357.717 40.800,357.225 40.800 C 357.021 40.800,356.739 40.438,356.599 39.996 C 356.458 39.553,355.829 38.925,355.200 38.600 C 354.571 38.275,353.942 37.647,353.801 37.204 C 353.661 36.762,353.280 36.400,352.954 36.400 C 352.629 36.400,352.058 35.869,351.685 35.219 C 351.312 34.570,350.631 33.944,350.170 33.828 C 349.357 33.624,346.403 31.474,344.570 29.752 C 344.074 29.285,343.233 28.795,342.702 28.661 C 342.171 28.528,340.941 27.787,339.968 27.013 C 338.996 26.240,338.006 25.606,337.770 25.604 C 337.533 25.602,336.917 25.150,336.400 24.600 C 335.883 24.050,335.033 23.600,334.510 23.600 C 333.286 23.600,331.364 22.605,331.061 21.815 C 330.931 21.477,330.481 21.200,330.061 21.200 C 328.983 21.200,326.506 20.111,326.122 19.468 C 325.945 19.172,324.570 18.624,323.066 18.252 C 321.562 17.879,319.942 17.320,319.466 17.009 C 318.990 16.699,317.160 16.149,315.400 15.789 C 313.640 15.428,311.650 14.795,310.978 14.382 C 310.130 13.861,308.294 13.487,304.978 13.161 C 301.971 12.864,299.459 12.379,298.200 11.852 L 296.200 11.013 202.800 10.964 C 151.430 10.936,108.230 11.045,106.800 11.205 M289.268 42.807 C 293.607 43.095,295.926 43.434,297.200 43.965 C 298.190 44.379,300.573 44.920,302.495 45.169 C 304.491 45.427,306.553 45.953,307.301 46.395 C 308.022 46.820,309.534 47.366,310.660 47.607 C 311.786 47.849,313.303 48.486,314.031 49.023 C 314.760 49.560,315.658 50.000,316.029 50.000 C 317.030 50.000,319.600 51.152,319.600 51.600 C 319.600 51.814,320.273 52.270,321.095 52.614 C 321.917 52.957,322.952 53.567,323.395 53.969 C 323.838 54.372,324.875 55.014,325.700 55.396 C 326.525 55.778,327.200 56.257,327.200 56.459 C 327.200 56.661,327.822 57.194,328.582 57.643 C 329.343 58.091,330.075 58.805,330.209 59.229 C 330.344 59.653,330.773 60.000,331.162 60.000 C 332.140 60.000,335.827 63.291,338.216 66.296 C 339.307 67.669,340.740 69.413,341.400 70.171 C 343.833 72.965,344.461 73.807,345.069 75.089 C 345.411 75.810,345.846 76.400,346.035 76.400 C 346.482 76.400,347.600 78.564,347.600 79.427 C 347.600 79.794,348.140 80.709,348.800 81.461 C 349.460 82.213,350.000 83.258,350.000 83.783 C 350.000 84.309,350.475 85.303,351.056 85.994 C 351.637 86.684,352.262 88.048,352.444 89.023 C 352.626 89.999,353.241 91.783,353.811 92.987 C 354.497 94.437,354.967 96.341,355.203 98.627 C 355.399 100.525,355.839 102.505,356.182 103.028 C 357.486 105.019,357.579 111.367,357.593 199.624 C 357.607 288.923,357.517 295.030,356.158 297.115 C 355.830 297.619,355.402 299.431,355.206 301.143 C 354.760 305.057,354.432 306.439,353.764 307.212 C 353.474 307.548,352.978 308.808,352.663 310.012 C 352.348 311.215,351.620 313.082,351.045 314.160 C 350.470 315.237,350.000 316.516,350.000 317.001 C 350.000 317.486,349.547 318.372,348.994 318.969 C 348.441 319.566,347.743 320.627,347.444 321.327 C 347.145 322.027,346.428 323.140,345.851 323.800 C 345.273 324.460,344.801 325.263,344.800 325.585 C 344.800 325.907,344.357 326.627,343.815 327.185 C 340.950 330.138,340.468 330.709,339.888 331.830 C 338.799 333.936,332.878 339.667,331.262 340.180 C 330.788 340.331,330.400 340.635,330.400 340.856 C 330.400 341.434,329.498 342.251,328.517 342.563 C 328.052 342.710,327.381 343.274,327.027 343.816 C 326.672 344.357,326.140 344.800,325.846 344.800 C 325.551 344.800,324.631 345.340,323.801 345.999 C 322.971 346.659,321.602 347.384,320.759 347.611 C 319.916 347.838,319.086 348.262,318.913 348.553 C 318.494 349.263,317.038 350.000,316.057 350.000 C 315.619 350.000,314.708 350.466,314.031 351.035 C 313.331 351.625,311.729 352.321,310.315 352.651 C 308.948 352.970,307.553 353.468,307.215 353.759 C 306.383 354.474,305.196 354.759,301.261 355.192 C 299.425 355.394,297.489 355.843,296.959 356.190 C 294.990 357.480,288.116 357.579,199.884 357.590 C 110.587 357.600,105.069 357.519,102.994 356.160 C 102.504 355.839,100.505 355.395,98.552 355.174 C 96.492 354.941,94.352 354.435,93.456 353.970 C 92.607 353.528,90.897 352.903,89.656 352.581 C 88.415 352.260,86.912 351.637,86.316 351.198 C 85.720 350.759,85.000 350.392,84.716 350.382 C 83.515 350.342,81.079 349.205,80.539 348.434 C 80.217 347.975,79.674 347.600,79.331 347.600 C 78.988 347.600,77.849 346.970,76.800 346.200 C 75.751 345.430,74.707 344.800,74.480 344.800 C 74.253 344.800,73.558 344.260,72.935 343.600 C 72.312 342.940,71.573 342.400,71.293 342.400 C 71.012 342.400,70.590 341.977,70.355 341.461 C 70.120 340.944,69.268 340.230,68.464 339.874 C 66.935 339.197,63.991 336.405,61.216 333.000 C 60.320 331.900,59.139 330.548,58.593 329.996 C 58.047 329.443,57.600 328.779,57.600 328.518 C 57.600 328.258,57.260 327.807,56.844 327.516 C 56.428 327.224,55.753 326.438,55.344 325.768 C 54.935 325.097,54.191 323.931,53.692 323.175 C 53.192 322.419,52.670 321.350,52.531 320.800 C 52.392 320.250,51.856 319.291,51.339 318.669 C 50.822 318.047,50.299 317.057,50.176 316.469 C 49.951 315.396,49.858 315.213,48.396 313.000 C 47.960 312.340,47.602 311.336,47.601 310.768 C 47.601 310.200,47.142 308.850,46.582 307.768 C 45.919 306.486,45.385 304.476,45.050 302.000 C 44.767 299.910,44.227 297.607,43.849 296.882 C 42.579 294.448,42.425 284.119,42.413 200.162 C 42.400 114.166,42.525 106.456,43.998 102.800 C 44.397 101.810,44.916 99.519,45.151 97.708 C 45.411 95.704,45.974 93.636,46.589 92.422 C 47.145 91.324,47.600 90.069,47.600 89.632 C 47.600 88.820,48.385 86.760,48.832 86.400 C 49.326 86.002,50.000 84.435,50.000 83.685 C 50.000 83.264,50.442 82.307,50.983 81.559 C 51.523 80.812,52.253 79.570,52.604 78.800 C 52.955 78.030,53.663 76.950,54.176 76.400 C 54.690 75.850,55.234 74.990,55.385 74.489 C 55.537 73.988,56.097 73.293,56.630 72.943 C 57.164 72.594,57.600 72.064,57.600 71.766 C 57.600 71.468,58.140 70.825,58.800 70.337 C 59.460 69.849,60.000 69.151,60.000 68.785 C 60.000 68.145,62.592 64.941,64.167 63.636 C 64.589 63.286,65.690 62.325,66.612 61.500 C 67.535 60.675,68.490 60.000,68.736 60.000 C 68.981 60.000,69.478 59.548,69.840 58.995 C 70.202 58.443,70.931 57.882,71.460 57.749 C 71.988 57.617,72.597 57.180,72.811 56.779 C 73.026 56.378,73.921 55.646,74.801 55.152 C 75.680 54.657,76.400 54.133,76.400 53.987 C 76.400 53.841,77.165 53.406,78.100 53.020 C 79.880 52.285,80.243 52.089,82.200 50.796 C 82.860 50.360,83.798 50.002,84.284 50.001 C 84.771 50.001,85.491 49.664,85.884 49.254 C 86.891 48.205,88.172 47.600,89.387 47.600 C 89.959 47.600,91.331 47.142,92.436 46.582 C 93.656 45.964,95.734 45.394,97.723 45.133 C 99.525 44.896,101.900 44.338,103.000 43.893 C 104.455 43.305,106.417 43.008,110.200 42.804 C 118.758 42.344,282.331 42.347,289.268 42.807 M296.800 75.400 C 295.590 75.932,294.117 76.375,293.526 76.384 C 291.951 76.408,290.324 77.112,289.284 78.223 C 288.780 78.760,288.101 79.200,287.775 79.200 C 287.449 79.200,286.987 79.630,286.747 80.156 C 286.508 80.682,285.884 81.341,285.362 81.620 C 284.840 81.899,284.307 82.464,284.176 82.875 C 284.046 83.285,283.521 83.895,283.011 84.230 C 282.461 84.590,281.973 85.421,281.814 86.264 C 281.667 87.048,281.118 88.118,280.594 88.642 C 278.247 90.990,278.096 106.271,280.405 107.888 C 280.807 108.170,281.255 108.941,281.400 109.601 C 281.545 110.261,282.269 111.524,283.008 112.409 C 283.747 113.294,284.465 114.374,284.603 114.809 C 284.741 115.244,285.092 115.600,285.383 115.600 C 285.675 115.600,286.784 116.320,287.849 117.200 C 288.914 118.080,289.959 118.800,290.171 118.800 C 290.383 118.800,291.016 119.237,291.578 119.771 C 292.616 120.757,301.477 122.330,303.151 121.826 C 303.508 121.719,305.320 121.444,307.178 121.217 C 309.474 120.935,311.012 120.510,311.978 119.889 C 312.760 119.386,313.925 118.746,314.566 118.466 C 315.207 118.186,316.178 117.562,316.723 117.079 C 319.594 114.532,321.200 112.797,321.200 112.241 C 321.200 111.899,321.645 111.327,322.189 110.970 C 322.816 110.560,323.273 109.787,323.435 108.861 C 323.577 108.057,324.167 106.230,324.746 104.800 C 326.269 101.044,326.218 94.393,324.645 91.432 C 324.070 90.350,323.600 88.965,323.600 88.355 C 323.600 87.745,323.278 87.010,322.884 86.723 C 322.490 86.435,321.732 85.570,321.199 84.800 C 319.707 82.643,316.911 79.790,315.695 79.184 C 315.093 78.884,314.150 78.244,313.600 77.761 C 313.050 77.279,311.790 76.696,310.800 76.465 C 309.810 76.234,308.010 75.681,306.800 75.236 C 303.652 74.077,299.658 74.143,296.800 75.400 M190.600 103.994 C 189.280 104.169,186.687 104.333,184.839 104.357 C 182.094 104.392,181.068 104.594,179.243 105.457 C 177.422 106.319,173.828 107.067,170.962 107.182 C 170.721 107.192,170.001 107.650,169.362 108.200 C 168.723 108.749,167.822 109.199,167.360 109.200 C 166.232 109.200,163.944 109.989,163.188 110.639 C 162.852 110.928,161.515 111.441,160.218 111.779 C 158.921 112.116,157.481 112.748,157.018 113.183 C 156.556 113.617,155.388 114.252,154.422 114.592 C 153.457 114.933,152.440 115.536,152.163 115.932 C 151.885 116.329,150.935 116.891,150.052 117.183 C 149.169 117.474,148.077 118.137,147.626 118.656 C 147.174 119.175,146.604 119.600,146.358 119.600 C 146.111 119.600,145.345 120.059,144.655 120.621 C 141.137 123.482,139.905 124.375,138.800 124.864 C 138.135 125.159,137.487 125.726,137.361 126.124 C 137.234 126.523,136.700 127.045,136.173 127.285 C 135.646 127.525,135.107 128.064,134.973 128.484 C 134.840 128.903,134.295 129.412,133.761 129.615 C 133.227 129.818,132.585 130.434,132.334 130.984 C 132.084 131.534,131.544 132.091,131.135 132.221 C 130.726 132.350,130.125 132.971,129.800 133.600 C 129.475 134.229,128.856 134.855,128.425 134.992 C 127.994 135.129,127.526 135.603,127.386 136.045 C 127.245 136.487,126.696 137.047,126.165 137.289 C 125.634 137.530,125.198 137.925,125.196 138.164 C 125.191 138.651,122.260 142.770,120.646 144.559 C 120.071 145.196,119.600 145.906,119.600 146.137 C 119.600 146.367,119.179 147.016,118.664 147.578 C 118.149 148.140,117.490 149.230,117.200 150.000 C 116.910 150.770,116.265 151.850,115.768 152.400 C 115.270 152.950,114.740 154.069,114.589 154.888 C 114.439 155.706,113.903 156.788,113.399 157.292 C 112.895 157.796,112.274 158.981,112.020 159.925 C 111.766 160.870,111.224 161.976,110.816 162.384 C 110.408 162.792,109.846 164.178,109.568 165.463 C 109.290 166.748,108.761 168.250,108.392 168.800 C 107.612 169.964,106.800 173.015,106.800 174.784 C 106.800 175.461,106.322 176.928,105.739 178.045 C 103.109 183.073,103.080 216.557,105.700 221.800 C 106.334 223.069,106.789 224.820,106.943 226.593 C 107.110 228.504,107.451 229.742,108.021 230.514 C 108.479 231.134,109.105 232.577,109.412 233.721 C 109.719 234.864,110.427 236.686,110.985 237.768 C 111.543 238.850,112.000 240.200,112.001 240.768 C 112.001 241.336,112.524 242.411,113.163 243.158 C 113.801 243.905,114.430 245.051,114.561 245.704 C 114.692 246.358,115.336 247.505,115.993 248.254 C 116.651 249.002,117.310 250.106,117.459 250.707 C 117.608 251.308,118.063 252.037,118.470 252.327 C 118.878 252.616,119.478 253.426,119.803 254.127 C 120.128 254.827,121.208 256.390,122.202 257.600 C 123.196 258.810,124.297 260.324,124.649 260.965 C 125.186 261.945,126.504 263.409,130.326 267.269 C 134.272 271.256,138.479 275.200,138.785 275.200 C 138.998 275.200,139.763 275.703,140.486 276.318 C 141.209 276.932,142.340 277.773,143.000 278.186 C 143.660 278.598,144.435 279.265,144.723 279.668 C 145.010 280.071,145.491 280.400,145.792 280.400 C 146.093 280.400,146.847 280.828,147.469 281.351 C 148.091 281.874,149.455 282.704,150.500 283.195 C 151.545 283.686,152.400 284.219,152.400 284.380 C 152.400 284.788,154.278 285.600,155.222 285.600 C 155.654 285.600,156.572 286.140,157.263 286.800 C 157.954 287.460,158.915 288.000,159.399 288.000 C 159.883 288.000,161.072 288.534,162.040 289.187 C 163.008 289.840,164.606 290.497,165.592 290.646 C 166.577 290.796,168.158 291.351,169.105 291.880 C 170.052 292.408,171.766 292.938,172.914 293.057 C 175.468 293.321,177.606 293.949,178.294 294.637 C 178.877 295.220,179.924 295.370,187.800 295.999 C 200.694 297.028,217.713 296.278,221.509 294.514 C 222.733 293.945,224.830 293.412,226.509 293.243 C 228.679 293.025,229.788 292.684,230.956 291.876 C 231.812 291.284,232.933 290.800,233.447 290.800 C 233.962 290.800,235.728 290.170,237.373 289.400 C 239.017 288.630,240.789 288.000,241.309 288.000 C 241.830 288.000,242.639 287.559,243.107 287.021 C 243.575 286.483,244.643 285.853,245.479 285.621 C 246.316 285.390,247.381 284.796,247.846 284.300 C 248.311 283.805,249.391 283.150,250.246 282.844 C 251.101 282.538,252.230 281.863,252.755 281.344 C 253.280 280.825,253.885 280.400,254.100 280.400 C 254.480 280.400,255.647 279.524,258.726 276.928 C 259.555 276.229,260.678 275.545,261.221 275.409 C 261.763 275.273,262.512 274.630,262.885 273.981 C 263.258 273.331,263.846 272.800,264.191 272.800 C 264.537 272.800,264.992 272.347,265.203 271.793 C 265.413 271.239,266.042 270.612,266.600 270.400 C 267.158 270.188,267.781 269.577,267.984 269.041 C 268.188 268.506,268.679 267.964,269.077 267.835 C 269.475 267.707,270.107 267.062,270.481 266.401 C 270.856 265.740,271.446 265.200,271.791 265.200 C 272.137 265.200,272.592 264.748,272.802 264.195 C 273.012 263.642,273.624 262.990,274.161 262.745 C 274.699 262.500,275.255 261.835,275.398 261.267 C 275.540 260.699,276.229 259.555,276.928 258.726 C 279.524 255.647,280.400 254.480,280.400 254.100 C 280.400 253.885,280.825 253.280,281.344 252.755 C 281.863 252.230,282.536 251.107,282.839 250.260 C 283.142 249.412,283.779 248.330,284.254 247.855 C 284.729 247.380,285.316 246.255,285.558 245.355 C 285.801 244.454,286.449 243.232,287.000 242.638 C 287.550 242.045,288.000 241.199,288.000 240.760 C 288.000 239.798,288.925 237.927,289.730 237.258 C 290.051 236.992,290.440 235.931,290.594 234.900 C 290.749 233.868,291.308 232.171,291.837 231.126 C 292.366 230.082,292.968 228.040,293.173 226.587 C 293.379 225.135,293.940 223.193,294.421 222.273 C 296.996 217.341,297.127 184.265,294.591 178.983 C 294.001 177.752,293.479 175.675,293.253 173.653 C 292.981 171.225,292.664 170.106,292.065 169.469 C 291.616 168.991,291.048 167.706,290.803 166.613 C 290.558 165.520,290.014 164.070,289.594 163.390 C 289.174 162.710,288.555 161.100,288.220 159.811 C 287.884 158.523,287.240 157.124,286.789 156.704 C 286.337 156.283,285.863 155.415,285.735 154.775 C 285.607 154.135,285.088 153.197,284.582 152.691 C 284.076 152.185,283.351 150.994,282.971 150.043 C 282.591 149.093,281.857 147.893,281.340 147.376 C 280.823 146.859,280.400 146.168,280.400 145.841 C 280.400 145.513,280.058 145.006,279.640 144.713 C 279.222 144.420,278.484 143.510,278.000 142.690 C 277.517 141.871,276.987 141.200,276.823 141.200 C 276.660 141.200,276.183 140.530,275.763 139.710 C 275.343 138.891,273.996 137.226,272.768 136.010 C 271.541 134.795,270.422 133.485,270.281 133.100 C 270.140 132.715,269.806 132.400,269.539 132.400 C 269.271 132.400,267.508 130.809,265.619 128.864 C 263.731 126.919,261.762 125.101,261.243 124.823 C 260.200 124.265,257.230 122.082,255.459 120.573 C 254.831 120.038,254.094 119.600,253.821 119.600 C 253.548 119.600,252.997 119.239,252.597 118.797 C 251.798 117.913,249.770 116.800,248.961 116.800 C 248.678 116.800,248.185 116.428,247.867 115.974 C 247.549 115.520,246.423 114.888,245.365 114.569 C 244.307 114.251,243.072 113.650,242.621 113.234 C 242.169 112.817,241.100 112.287,240.243 112.055 C 239.387 111.823,238.307 111.288,237.843 110.866 C 237.380 110.444,236.010 109.871,234.800 109.593 C 233.590 109.314,231.790 108.673,230.800 108.167 C 229.810 107.661,227.695 107.072,226.100 106.857 C 224.399 106.627,222.611 106.101,221.773 105.583 C 219.608 104.246,197.269 103.107,190.600 103.994 M202.400 134.784 C 203.170 134.993,204.686 135.266,205.768 135.391 C 206.850 135.516,208.110 135.703,208.568 135.806 C 209.026 135.908,211.116 136.159,213.214 136.362 C 216.042 136.636,217.531 136.999,218.974 137.766 C 220.044 138.334,221.348 138.800,221.872 138.800 C 223.019 138.800,225.600 139.828,225.600 140.285 C 225.600 140.464,226.535 140.833,227.677 141.104 C 228.819 141.375,230.214 142.028,230.777 142.554 C 231.340 143.080,232.250 143.641,232.800 143.800 C 233.350 143.959,234.250 144.503,234.800 145.008 C 235.350 145.513,236.475 146.203,237.300 146.542 C 238.125 146.882,238.800 147.426,238.800 147.753 C 238.800 148.079,239.155 148.459,239.590 148.597 C 240.024 148.735,240.706 149.262,241.104 149.769 C 241.503 150.276,242.363 150.969,243.015 151.309 C 244.480 152.072,248.103 155.685,248.848 157.126 C 249.152 157.713,249.895 158.615,250.500 159.132 C 251.105 159.648,251.600 160.254,251.600 160.478 C 251.600 160.702,252.050 161.239,252.600 161.671 C 253.150 162.104,253.600 162.709,253.600 163.015 C 253.600 163.321,254.114 164.163,254.743 164.886 C 255.371 165.609,256.119 166.920,256.404 167.800 C 256.689 168.680,257.229 169.617,257.605 169.883 C 257.980 170.149,258.525 171.229,258.816 172.283 C 259.108 173.337,259.661 174.426,260.045 174.703 C 260.441 174.988,260.944 176.205,261.204 177.503 C 261.457 178.766,262.081 180.618,262.592 181.617 C 263.313 183.027,263.628 184.637,264.003 188.817 C 264.268 191.778,264.690 194.631,264.941 195.158 C 265.596 196.534,265.503 201.529,264.731 206.400 C 264.365 208.710,263.956 211.943,263.822 213.584 C 263.651 215.683,263.226 217.313,262.389 219.085 C 261.735 220.469,261.200 221.991,261.200 222.466 C 261.200 222.941,260.778 224.066,260.263 224.965 C 259.748 225.864,259.092 227.463,258.806 228.517 C 258.520 229.571,257.979 230.651,257.604 230.917 C 257.228 231.183,256.560 232.210,256.118 233.200 C 255.677 234.190,254.930 235.343,254.458 235.762 C 253.986 236.181,253.600 236.852,253.600 237.253 C 253.600 237.654,253.178 238.258,252.662 238.596 C 252.146 238.935,251.527 239.643,251.286 240.171 C 251.046 240.699,250.496 241.243,250.064 241.380 C 249.633 241.517,249.179 242.028,249.057 242.516 C 248.766 243.675,243.664 248.769,242.501 249.060 C 242.006 249.185,241.600 249.543,241.600 249.857 C 241.600 250.170,240.970 250.799,240.200 251.253 C 239.430 251.707,238.800 252.250,238.800 252.460 C 238.800 252.669,238.213 253.086,237.496 253.386 C 236.779 253.685,235.696 254.390,235.090 254.951 C 234.484 255.513,233.316 256.153,232.493 256.375 C 231.670 256.597,230.693 257.132,230.322 257.566 C 229.951 257.999,228.872 258.575,227.924 258.845 C 226.976 259.115,225.806 259.687,225.324 260.115 C 224.842 260.544,223.628 261.048,222.625 261.235 C 221.623 261.422,219.857 262.020,218.701 262.564 C 217.110 263.312,215.241 263.695,211.000 264.142 C 207.920 264.466,204.590 264.939,203.600 265.194 C 201.623 265.701,199.810 265.608,193.800 264.691 C 191.600 264.355,188.365 263.953,186.612 263.798 C 184.465 263.608,182.827 263.204,181.600 262.562 C 180.598 262.038,178.949 261.454,177.935 261.265 C 176.922 261.076,175.577 260.558,174.946 260.116 C 174.316 259.673,173.144 259.191,172.342 259.045 C 171.540 258.899,170.211 258.244,169.387 257.590 C 168.564 256.935,167.651 256.400,167.359 256.400 C 167.067 256.400,166.209 255.857,165.453 255.193 C 164.697 254.529,163.528 253.794,162.855 253.559 C 162.183 253.325,161.523 252.788,161.389 252.367 C 161.256 251.945,160.904 251.600,160.609 251.600 C 160.313 251.600,159.648 251.105,159.132 250.500 C 158.615 249.895,157.710 249.150,157.119 248.845 C 155.592 248.055,151.742 244.109,151.184 242.763 C 150.926 242.138,150.402 241.528,150.021 241.407 C 149.640 241.286,149.075 240.695,148.765 240.093 C 148.455 239.492,147.975 238.855,147.698 238.679 C 147.421 238.502,146.855 237.692,146.440 236.879 C 146.025 236.065,145.324 235.073,144.882 234.674 C 144.441 234.274,143.969 233.358,143.833 232.638 C 143.698 231.917,143.153 230.920,142.622 230.420 C 142.081 229.912,141.538 228.819,141.389 227.937 C 141.239 227.046,140.702 225.970,140.154 225.462 C 139.481 224.838,139.070 223.858,138.809 222.256 C 138.603 220.987,138.039 219.310,137.557 218.530 C 136.962 217.567,136.575 216.065,136.355 213.856 C 135.992 210.223,135.457 206.313,134.782 202.369 C 134.430 200.311,134.445 199.354,134.852 197.969 C 135.137 196.996,135.406 195.570,135.449 194.800 C 135.733 189.699,136.793 183.059,137.557 181.592 C 138.023 180.699,138.589 179.120,138.816 178.084 C 139.042 177.048,139.553 175.750,139.951 175.200 C 140.348 174.650,140.901 173.252,141.178 172.094 C 141.456 170.935,142.016 169.754,142.424 169.469 C 142.831 169.183,143.509 168.151,143.930 167.175 C 144.352 166.199,145.080 165.057,145.548 164.638 C 146.017 164.219,146.400 163.640,146.400 163.351 C 146.400 162.861,147.466 161.532,150.100 158.739 C 150.705 158.097,151.200 157.392,151.200 157.172 C 151.200 156.650,156.651 151.200,157.173 151.200 C 157.393 151.200,158.188 150.615,158.939 149.900 C 161.585 147.382,162.819 146.400,163.337 146.400 C 163.625 146.400,164.275 145.959,164.781 145.420 C 165.287 144.882,166.482 144.175,167.436 143.850 C 168.390 143.525,169.569 142.888,170.055 142.434 C 170.542 141.981,171.551 141.495,172.299 141.355 C 173.046 141.215,174.167 140.671,174.790 140.147 C 175.413 139.623,176.863 139.016,178.013 138.797 C 179.163 138.579,180.703 138.031,181.436 137.578 C 182.317 137.033,183.958 136.629,186.284 136.382 C 189.923 135.997,194.079 135.409,197.200 134.837 C 199.776 134.365,200.814 134.354,202.400 134.784 " stroke="none" fill="#bc167c" fill-rule="evenodd"></path></g></svg>