<?xml version="1.0" encoding="UTF-8"?>
<!DOCTYPE svg PUBLIC "-//W3C//DTD SVG 1.1//EN" "http://www.w3.org/Graphics/SVG/1.1/DTD/svg11.dtd">
<!-- Creator: CorelDRAW 2019 (64-Bit) -->
<svg xmlns="http://www.w3.org/2000/svg" xml:space="preserve" width="200.977mm" height="200.977mm" version="1.1" style="shape-rendering:geometricPrecision; text-rendering:geometricPrecision; image-rendering:optimizeQuality; fill-rule:evenodd; clip-rule:evenodd"
viewBox="0 0 200977 200977"
 xmlns:xlink="http://www.w3.org/1999/xlink"
 xmlns:xodm="http://www.corel.com/coreldraw/odm/2003"
 enable-background="new 0 0 512 512">
 <defs>
  <style type="text/css">
   <![CDATA[
    .fil0 {fill:#FEFEFE;fill-rule:nonzero}
   ]]>
  </style>
 </defs>
 <g id="Слой_x0020_1">
  <metadata id="CorelCorpID_0Corel-Layer"/>
  <g id="_593275535040">
   <g>
    <path class="fil0" d="M80595.7 -40.8c44502,0 80554.7,36052.7 80554.7,80554.7 0,19236.3 -6726.6,36873 -17964.8,50736.3l55371.1 55371.1c3281.3,3281.3 3281.3,8572.3 0,11853.5 -3281.3,3281.3 -8572.3,3281.3 -11853.5,0l-55371.1 -55371.1c-13863.3,11238.3 -31500,17964.8 -50736.3,17964.8 -44502,0 -80554.7,-36052.7 -80554.7,-80554.7 0,-44502 36093.8,-80554.7 80554.7,-80554.7l-0.1 0.1zm0 144375c35232.4,0 63820.3,-28587.9 63820.3,-63820.3 0,-35232.4 -28587.9,-63820.3 -63820.3,-63820.3 -35232.4,0 -63820.3,28587.9 -63820.3,63820.3 0,35232.4 28587.9,63820.3 63820.3,63820.3z"/>
   </g>
  </g>
 </g>
</svg>
