<svg id="svg" version="1.1" xmlns="http://www.w3.org/2000/svg" xmlns:xlink="http://www.w3.org/1999/xlink" width="400" height="140.2061855670103" viewBox="0, 0, 400,140.2061855670103"><g id="svgg"><path id="path0" d="M105.333 5.320 C 103.087 5.381,97.688 5.405,93.333 5.373 C 82.628 5.294,74.638 5.695,64.333 6.831 C 63.462 6.927,62.413 7.039,62.000 7.080 C 61.587 7.122,60.725 7.224,60.083 7.307 C 58.076 7.566,56.110 7.816,55.417 7.900 C 55.050 7.944,53.775 8.103,52.583 8.253 C 51.392 8.404,49.629 8.614,48.667 8.722 C 47.704 8.829,46.842 8.965,46.750 9.024 C 46.658 9.083,45.776 9.186,44.789 9.252 C 43.802 9.319,42.959 9.432,42.914 9.504 C 42.870 9.576,42.045 9.688,41.081 9.754 C 40.117 9.820,39.287 9.939,39.238 10.020 C 39.188 10.101,38.818 10.167,38.415 10.167 C 38.012 10.167,37.323 10.242,36.883 10.335 C 36.443 10.427,35.446 10.576,34.667 10.666 C 33.138 10.842,31.352 11.185,31.083 11.355 C 30.992 11.413,30.657 11.517,30.339 11.585 C 30.021 11.653,29.646 11.768,29.505 11.839 C 29.365 11.911,28.500 12.331,27.583 12.773 C 26.667 13.215,25.879 13.620,25.833 13.672 C 25.787 13.725,25.450 13.948,25.083 14.168 C 24.717 14.389,24.079 14.883,23.667 15.266 C 23.254 15.649,22.617 16.228,22.250 16.551 C 21.883 16.875,21.321 17.372,21.000 17.655 C 20.679 17.938,20.248 18.215,20.042 18.270 C 19.835 18.325,19.667 18.422,19.667 18.485 C 19.667 18.549,19.273 18.739,18.792 18.907 C 17.508 19.357,15.700 20.816,15.941 21.206 C 16.003 21.307,15.974 21.337,15.873 21.274 C 15.771 21.211,15.407 21.610,15.023 22.207 C 14.653 22.781,14.272 23.341,14.175 23.451 C 14.079 23.562,14.000 23.725,14.000 23.814 C 14.000 23.903,13.906 24.077,13.792 24.200 C 13.349 24.677,12.500 26.021,12.500 26.245 C 12.500 26.374,12.425 26.527,12.333 26.583 C 12.125 26.712,12.112 27.833,12.319 27.833 C 12.402 27.833,12.521 28.133,12.583 28.499 C 12.645 28.865,12.764 29.207,12.848 29.259 C 12.932 29.311,13.000 29.914,13.000 30.599 C 13.000 32.330,12.619 32.928,11.144 33.509 C 10.156 33.898,9.405 34.628,9.246 35.353 C 9.188 35.617,9.085 35.833,9.018 35.833 C 8.952 35.833,8.813 36.265,8.712 36.792 C 8.328 38.778,8.165 39.358,7.737 40.262 C 7.496 40.773,7.193 41.231,7.066 41.280 C 6.656 41.437,6.816 42.284,7.500 43.583 C 8.162 44.841,8.309 45.573,8.011 46.127 C 7.637 46.824,7.275 48.845,6.992 51.833 C 6.901 52.796,6.758 53.733,6.674 53.917 C 6.591 54.100,6.476 54.605,6.418 55.038 C 6.361 55.471,6.243 55.869,6.157 55.923 C 6.071 55.976,6.000 56.150,6.000 56.310 C 6.000 56.470,5.591 57.252,5.091 58.048 C 4.592 58.844,4.132 59.778,4.070 60.123 C 4.007 60.468,3.900 60.825,3.832 60.917 C 3.763 61.008,3.654 61.664,3.589 62.374 C 3.525 63.084,3.403 63.707,3.319 63.759 C 3.235 63.811,3.167 64.092,3.167 64.385 C 3.166 65.097,2.333 66.800,1.688 67.406 C 1.102 67.957,1.006 68.656,1.391 69.558 C 1.702 70.286,1.969 71.135,2.161 72.009 C 2.250 72.416,2.441 73.237,2.585 73.833 C 3.156 76.193,3.274 78.847,2.834 79.417 C 2.763 79.508,2.653 79.827,2.589 80.125 C 2.526 80.423,2.419 80.667,2.353 80.667 C 1.775 80.667,1.835 84.992,2.428 86.129 C 2.558 86.379,2.665 86.666,2.666 86.766 C 2.667 86.933,2.991 87.710,3.323 88.339 C 3.397 88.479,3.513 88.854,3.581 89.172 C 3.649 89.490,3.763 89.825,3.833 89.917 C 3.904 90.008,4.017 90.343,4.085 90.661 C 4.153 90.979,4.268 91.354,4.341 91.495 C 4.413 91.635,4.599 92.200,4.754 92.750 C 4.909 93.300,5.141 94.071,5.268 94.464 C 5.396 94.857,5.500 95.321,5.500 95.496 C 5.500 95.671,5.571 95.857,5.657 95.911 C 5.743 95.964,5.864 96.344,5.926 96.754 C 5.987 97.164,6.104 97.500,6.186 97.500 C 6.267 97.500,6.333 97.619,6.333 97.765 C 6.333 97.910,6.558 98.516,6.833 99.110 C 7.108 99.704,7.333 100.224,7.333 100.265 C 7.333 100.552,8.212 101.658,8.365 101.564 C 8.480 101.493,8.505 101.524,8.430 101.644 C 8.363 101.754,8.534 102.146,8.821 102.536 C 9.223 103.082,9.333 103.403,9.333 104.023 C 9.333 104.458,9.408 104.860,9.500 104.917 C 9.592 104.973,9.667 105.228,9.667 105.482 C 9.667 105.736,9.719 105.997,9.783 106.060 C 9.846 106.124,9.914 106.283,9.933 106.413 C 10.011 106.943,10.791 108.275,11.417 108.947 C 11.783 109.341,12.233 109.848,12.417 110.074 C 12.600 110.300,12.825 110.488,12.917 110.493 C 13.008 110.498,13.310 110.707,13.588 110.959 C 14.427 111.720,15.379 112.404,16.083 112.753 C 16.450 112.935,16.775 113.140,16.806 113.208 C 16.836 113.277,16.969 113.333,17.100 113.333 C 17.453 113.333,18.461 114.435,18.913 115.316 C 19.587 116.626,21.002 117.833,21.863 117.833 C 22.019 117.833,22.188 117.900,22.239 117.982 C 22.290 118.064,22.613 118.169,22.957 118.214 C 23.302 118.259,24.082 118.390,24.691 118.503 C 25.827 118.716,27.271 118.603,29.000 118.168 C 29.412 118.064,30.162 117.890,30.667 117.781 C 31.171 117.672,31.688 117.516,31.817 117.433 C 32.073 117.268,35.118 117.102,42.750 116.837 C 45.500 116.742,47.975 116.595,48.250 116.512 C 48.525 116.428,49.895 116.308,51.294 116.244 C 52.693 116.181,53.878 116.062,53.928 115.981 C 53.979 115.900,54.334 115.832,54.718 115.830 C 55.102 115.829,56.129 115.718,57.000 115.583 C 57.871 115.449,59.033 115.338,59.583 115.335 C 60.133 115.333,60.846 115.260,61.167 115.173 C 62.098 114.919,69.854 114.601,74.667 114.618 C 85.508 114.657,107.714 115.000,109.000 115.147 C 109.779 115.237,111.373 115.297,112.542 115.280 C 113.710 115.264,114.667 115.290,114.667 115.339 C 114.667 115.456,118.640 115.834,119.865 115.833 C 120.387 115.833,120.855 115.901,120.906 115.983 C 120.957 116.065,122.030 116.186,123.291 116.252 C 124.552 116.318,125.658 116.429,125.750 116.499 C 125.842 116.568,126.967 116.677,128.250 116.740 C 129.533 116.802,130.808 116.921,131.083 117.002 C 131.358 117.084,132.483 117.226,133.583 117.319 C 134.683 117.412,136.408 117.608,137.417 117.755 C 138.425 117.902,139.737 118.093,140.333 118.179 C 140.929 118.266,142.429 118.430,143.667 118.544 C 144.904 118.657,145.992 118.797,146.083 118.855 C 146.175 118.913,147.000 119.014,147.917 119.080 C 148.833 119.147,149.666 119.268,149.767 119.350 C 149.868 119.433,152.081 119.575,154.684 119.667 C 160.587 119.875,164.316 120.114,164.750 120.312 C 164.933 120.396,165.646 120.549,166.333 120.651 C 167.021 120.754,167.958 120.915,168.417 121.010 C 168.875 121.104,169.850 121.272,170.583 121.382 C 171.317 121.493,171.992 121.631,172.083 121.689 C 172.175 121.748,172.887 121.850,173.667 121.917 C 174.446 121.983,175.158 122.086,175.250 122.144 C 175.425 122.255,177.806 122.550,180.917 122.847 C 181.925 122.943,182.862 123.068,183.000 123.125 C 183.386 123.285,187.430 123.700,188.859 123.726 C 189.561 123.739,190.100 123.806,190.058 123.875 C 190.015 123.944,190.116 124.010,190.282 124.021 C 190.448 124.033,190.771 124.063,191.000 124.088 C 191.229 124.113,192.167 124.185,193.083 124.248 C 194.000 124.310,194.862 124.408,195.000 124.464 C 195.137 124.521,196.338 124.662,197.667 124.779 C 198.996 124.895,201.246 125.106,202.667 125.247 C 204.088 125.389,206.600 125.604,208.250 125.725 C 209.900 125.847,211.362 125.992,211.500 126.047 C 211.637 126.102,212.900 126.189,214.306 126.239 C 215.712 126.290,216.934 126.376,217.022 126.430 C 217.110 126.485,218.023 126.594,219.049 126.674 C 220.076 126.754,221.218 126.861,221.587 126.913 C 222.333 127.017,224.535 127.235,228.167 127.565 C 229.496 127.686,230.583 127.806,230.583 127.833 C 230.583 127.859,231.746 127.983,233.167 128.107 C 234.588 128.232,236.125 128.371,236.583 128.417 C 239.458 128.704,241.199 128.853,243.333 128.993 C 244.662 129.081,246.088 129.197,246.500 129.252 C 247.442 129.376,252.424 129.684,254.417 129.741 C 255.242 129.764,258.279 129.838,261.167 129.905 C 264.054 129.972,266.529 130.074,266.667 130.132 C 268.290 130.811,303.675 130.846,305.250 130.169 C 305.433 130.091,306.521 129.976,307.667 129.915 C 309.865 129.798,310.192 129.771,312.583 129.513 C 316.929 129.045,318.924 128.815,320.583 128.588 C 321.592 128.451,323.167 128.243,324.083 128.127 C 325.000 128.011,325.825 127.869,325.917 127.811 C 326.008 127.752,326.721 127.650,327.500 127.583 C 328.279 127.517,328.992 127.414,329.083 127.356 C 329.175 127.298,329.925 127.155,330.750 127.039 C 331.575 126.923,332.625 126.760,333.083 126.678 C 337.374 125.902,343.259 125.115,347.215 124.787 C 348.571 124.675,349.733 124.508,349.798 124.417 C 349.863 124.325,350.479 124.249,351.167 124.248 C 351.854 124.247,352.867 124.186,353.417 124.112 C 353.967 124.039,354.942 123.910,355.583 123.828 C 356.758 123.676,358.952 123.350,361.417 122.961 C 362.150 122.845,362.825 122.701,362.917 122.642 C 363.008 122.582,363.516 122.480,364.044 122.414 C 364.572 122.348,365.041 122.235,365.086 122.163 C 365.130 122.090,365.561 121.978,366.042 121.913 C 366.523 121.848,367.097 121.702,367.316 121.588 C 367.747 121.365,369.499 121.825,369.970 122.285 C 370.801 123.096,372.521 121.945,372.289 120.734 C 372.248 120.519,372.263 120.373,372.322 120.410 C 372.381 120.446,372.606 120.144,372.821 119.738 C 373.037 119.332,373.309 119.000,373.426 119.000 C 373.543 119.000,373.670 118.906,373.709 118.792 C 373.761 118.637,374.457 118.583,376.431 118.583 L 379.083 118.583 380.549 117.867 C 381.640 117.333,382.061 117.035,382.195 116.700 C 382.294 116.453,382.437 116.100,382.512 115.917 C 382.587 115.733,382.673 114.998,382.703 114.283 C 382.733 113.568,382.839 112.931,382.940 112.867 C 383.040 112.802,383.169 112.600,383.227 112.417 C 383.514 111.502,385.152 110.370,385.868 110.591 C 386.078 110.656,386.593 111.028,387.013 111.418 C 387.886 112.228,388.350 112.425,388.811 112.179 C 389.186 111.978,389.752 110.343,389.620 109.839 C 389.571 109.652,389.599 109.542,389.682 109.593 C 389.765 109.644,389.833 109.356,389.833 108.952 C 389.833 107.970,390.194 107.283,391.349 106.066 C 392.824 104.512,392.717 103.491,390.895 101.721 C 390.119 100.966,389.875 99.570,390.484 99.367 C 390.584 99.333,390.667 99.192,390.667 99.053 C 390.667 98.914,390.776 98.564,390.909 98.275 C 391.177 97.696,391.438 96.200,391.667 93.931 C 391.826 92.356,392.105 90.939,392.351 90.461 C 392.433 90.301,392.503 90.076,392.506 89.961 C 392.509 89.845,392.656 89.450,392.833 89.083 C 393.010 88.717,393.158 88.263,393.161 88.075 C 393.164 87.887,393.259 87.641,393.371 87.529 C 393.641 87.259,393.630 83.222,393.359 82.714 C 393.126 82.279,393.099 78.786,393.325 78.373 C 393.412 78.214,393.530 77.653,393.587 77.128 C 393.644 76.602,393.760 76.129,393.845 76.076 C 393.930 76.023,394.000 75.854,394.001 75.698 C 394.002 75.543,394.104 75.221,394.228 74.983 C 394.907 73.683,394.840 66.506,394.087 59.667 C 393.641 55.608,393.418 53.919,393.309 53.750 C 393.250 53.658,393.147 53.001,393.081 52.289 C 393.015 51.578,392.894 50.954,392.814 50.904 C 392.733 50.855,392.667 50.587,392.667 50.309 C 392.667 49.811,392.245 47.898,391.992 47.250 C 391.870 46.937,391.759 46.532,391.322 44.792 C 391.224 44.402,391.079 43.961,391.000 43.812 C 390.921 43.663,390.804 43.251,390.740 42.896 C 390.676 42.540,390.565 42.175,390.494 42.083 C 390.423 41.992,390.311 41.542,390.245 41.083 C 390.179 40.625,390.069 40.175,390.001 40.083 C 389.933 39.992,389.829 39.654,389.771 39.333 C 389.713 39.012,389.620 38.563,389.564 38.333 C 389.467 37.932,389.395 37.522,389.004 35.167 C 388.906 34.571,388.761 33.968,388.683 33.827 C 388.605 33.686,388.488 33.255,388.423 32.869 C 388.358 32.484,388.236 32.126,388.152 32.074 C 388.068 32.023,388.000 31.865,388.000 31.724 C 388.000 31.583,387.881 31.193,387.735 30.859 C 387.202 29.637,386.775 28.748,386.680 28.667 C 386.627 28.621,386.437 28.321,386.258 28.000 C 385.909 27.372,385.909 27.373,385.168 26.500 C 384.895 26.179,384.671 25.871,384.669 25.815 C 384.668 25.759,384.423 25.449,384.125 25.126 C 383.827 24.803,383.283 24.149,382.917 23.672 C 382.550 23.196,382.110 22.643,381.938 22.444 C 381.766 22.246,381.316 21.671,380.938 21.167 C 380.560 20.663,380.120 20.106,379.962 19.931 C 379.803 19.755,379.466 19.305,379.212 18.931 C 378.958 18.556,378.659 18.154,378.548 18.036 C 378.436 17.918,378.214 17.599,378.053 17.327 C 377.893 17.056,377.703 16.833,377.631 16.833 C 377.559 16.833,377.500 16.749,377.500 16.646 C 377.500 16.543,377.129 16.112,376.676 15.688 C 375.567 14.650,375.448 14.559,375.029 14.426 C 374.830 14.363,374.667 14.249,374.667 14.174 C 374.667 14.099,374.395 13.986,374.063 13.924 C 373.731 13.862,373.337 13.749,373.188 13.674 C 372.096 13.126,366.289 12.807,364.043 13.171 C 363.470 13.264,361.333 13.415,359.293 13.506 C 354.793 13.706,347.152 14.429,346.750 14.693 C 346.658 14.753,345.870 14.856,345.000 14.922 C 344.129 14.988,343.342 15.098,343.250 15.167 C 343.083 15.294,340.589 15.588,340.221 15.525 C 340.113 15.506,339.978 15.568,339.919 15.662 C 339.861 15.756,339.522 15.833,339.165 15.833 C 338.808 15.833,338.156 15.909,337.717 16.001 C 337.277 16.093,336.167 16.245,335.250 16.338 C 333.470 16.518,330.936 16.831,327.833 17.254 C 326.779 17.398,325.092 17.600,324.083 17.703 C 323.075 17.806,322.212 17.941,322.167 18.003 C 322.076 18.126,319.258 18.379,318.374 18.344 C 318.075 18.332,317.700 18.391,317.541 18.475 C 316.867 18.827,306.140 18.793,302.333 18.427 C 301.921 18.387,299.633 18.303,297.250 18.240 C 294.867 18.177,292.838 18.063,292.741 17.986 C 292.644 17.909,287.282 17.799,280.824 17.742 C 262.156 17.575,260.852 17.555,255.667 17.351 C 252.963 17.245,250.525 17.092,250.250 17.010 C 249.975 16.928,248.925 16.814,247.917 16.756 C 246.908 16.698,245.858 16.583,245.583 16.499 C 245.308 16.415,244.558 16.313,243.917 16.272 C 243.275 16.232,242.619 16.146,242.458 16.081 C 242.298 16.017,242.050 16.009,241.908 16.064 C 241.760 16.121,241.693 16.093,241.751 15.998 C 241.812 15.900,241.583 15.833,241.186 15.833 C 240.820 15.833,240.477 15.764,240.424 15.679 C 240.372 15.594,239.655 15.472,238.831 15.408 C 238.007 15.343,237.333 15.233,237.333 15.163 C 237.333 15.093,236.583 14.982,235.665 14.917 C 234.748 14.851,233.961 14.739,233.917 14.667 C 233.873 14.596,232.935 14.483,231.833 14.417 C 230.732 14.350,229.793 14.236,229.747 14.162 C 229.701 14.088,229.233 14.020,228.707 14.011 C 228.181 14.003,227.112 13.924,226.333 13.836 C 225.554 13.747,223.979 13.603,222.833 13.514 C 221.688 13.426,220.037 13.272,219.167 13.174 C 218.296 13.075,217.096 12.961,216.500 12.919 C 215.904 12.877,214.067 12.729,212.417 12.591 C 210.767 12.452,208.217 12.240,206.750 12.121 C 205.283 12.001,203.971 11.850,203.833 11.785 C 203.696 11.721,201.446 11.591,198.833 11.498 C 191.272 11.229,187.698 11.040,186.603 10.852 C 185.524 10.667,182.422 10.351,180.333 10.213 C 179.646 10.168,179.008 10.072,178.917 10.000 C 178.825 9.929,177.737 9.816,176.500 9.750 C 175.262 9.684,174.175 9.572,174.083 9.501 C 173.992 9.430,172.942 9.318,171.750 9.252 C 170.558 9.186,169.508 9.075,169.417 9.004 C 169.325 8.934,168.323 8.824,167.190 8.761 C 166.057 8.697,164.969 8.585,164.773 8.512 C 164.577 8.439,163.517 8.327,162.417 8.265 C 161.317 8.202,160.192 8.083,159.917 8.001 C 159.642 7.919,158.568 7.812,157.532 7.763 C 156.495 7.714,155.573 7.629,155.484 7.573 C 155.308 7.465,153.595 7.282,149.500 6.935 C 148.079 6.815,146.917 6.694,146.917 6.666 C 146.917 6.589,141.366 6.187,137.083 5.955 C 134.975 5.840,133.175 5.698,133.083 5.640 C 132.668 5.375,112.038 5.138,105.333 5.320 " stroke="none" fill="#dc042c" fill-rule="evenodd"></path></g></svg>