<svg id="svg" version="1.1" xmlns="http://www.w3.org/2000/svg" xmlns:xlink="http://www.w3.org/1999/xlink" width="400" height="363.1168831168832" viewBox="0, 0, 400,363.1168831168832"><g id="svgg"><path id="path0" d="M198.728 3.235 C 198.728 3.415,197.952 3.641,197.003 3.737 C 195.408 3.898,192.762 4.472,191.462 4.938 C 191.163 5.045,190.879 5.127,190.832 5.119 C 190.626 5.086,186.395 7.484,184.709 8.589 C 180.984 11.033,175.656 17.765,174.882 21.006 C 174.755 21.542,174.503 22.167,174.324 22.396 C 174.145 22.624,173.900 23.646,173.779 24.666 C 173.658 25.687,173.452 26.521,173.322 26.521 C 173.191 26.521,173.088 27.298,173.093 28.247 C 173.098 29.196,173.064 99.946,173.018 185.468 L 172.934 340.963 154.039 340.891 L 135.145 340.819 135.149 241.254 C 135.151 186.055,135.013 141.689,134.841 141.689 C 134.669 141.689,134.431 140.520,134.311 139.090 C 134.191 137.660,133.922 136.320,133.713 136.111 C 133.504 135.902,133.333 135.510,133.333 135.239 C 133.333 134.819,132.856 133.597,131.738 131.153 C 130.059 127.486,126.229 123.228,122.263 120.619 C 121.058 119.827,119.909 119.053,119.709 118.898 C 119.510 118.743,118.080 118.209,116.532 117.710 C 114.984 117.211,113.717 116.680,113.716 116.530 C 113.715 116.381,110.690 116.258,106.994 116.258 C 102.755 116.258,100.272 116.392,100.272 116.621 C 100.272 116.821,99.943 116.985,99.541 116.985 C 99.139 116.985,98.526 117.130,98.179 117.309 C 97.462 117.677,95.460 118.547,95.186 118.609 C 90.232 119.731,81.353 130.107,80.435 135.845 C 80.303 136.671,80.053 137.434,79.880 137.541 C 79.706 137.648,79.564 138.353,79.564 139.107 C 79.564 139.861,79.480 140.562,79.378 140.665 C 79.275 140.767,79.153 185.841,79.105 240.829 L 79.019 340.808 41.689 340.788 L 4.360 340.768 4.360 350.039 L 4.360 359.310 200.817 359.219 L 397.275 359.128 397.372 349.950 L 397.469 340.771 360.045 340.867 L 322.622 340.963 322.501 297.548 C 322.378 253.139,322.305 250.800,320.965 247.901 C 320.674 247.272,320.436 246.600,320.436 246.409 C 320.436 241.918,309.526 231.486,303.456 230.172 C 302.808 230.031,302.186 229.766,302.072 229.581 C 301.958 229.397,301.384 229.246,300.796 229.246 C 300.208 229.246,299.728 229.083,299.728 228.883 C 299.728 228.657,297.729 228.520,294.460 228.520 C 291.190 228.520,289.192 228.657,289.192 228.883 C 289.192 229.083,288.711 229.246,288.123 229.246 C 287.536 229.246,286.948 229.418,286.818 229.629 C 286.688 229.839,286.393 229.947,286.161 229.870 C 285.766 229.737,279.792 232.569,278.702 233.405 C 275.511 235.853,270.300 241.805,270.300 243.002 C 270.300 243.196,270.166 243.409,270.004 243.476 C 269.612 243.636,267.757 248.328,267.757 249.159 C 267.757 249.517,267.552 250.014,267.302 250.263 C 266.945 250.621,266.827 260.336,266.747 295.840 L 266.645 340.963 247.583 340.963 L 228.521 340.963 228.418 183.833 C 228.322 37.362,228.273 26.537,227.698 24.257 C 227.163 22.138,225.257 17.626,224.435 16.530 C 221.404 12.494,219.897 10.829,218.185 9.628 C 217.047 8.828,215.913 7.990,215.666 7.764 C 215.418 7.538,214.245 6.915,213.058 6.379 C 211.870 5.843,210.620 5.254,210.279 5.071 C 209.938 4.887,208.995 4.630,208.182 4.500 C 207.370 4.371,206.617 4.122,206.510 3.949 C 206.403 3.775,205.507 3.633,204.520 3.633 C 203.533 3.633,202.725 3.470,202.725 3.270 C 202.725 3.070,201.826 2.906,200.727 2.906 C 199.628 2.906,198.728 3.054,198.728 3.235 " stroke="none" fill="#dc042c" fill-rule="evenodd"></path></g></svg>