<svg id="svg" version="1.1" xmlns="http://www.w3.org/2000/svg" xmlns:xlink="http://www.w3.org/1999/xlink" width="400" height="421.505376344086" viewBox="0, 0, 400,421.505376344086"><g id="svgg"><path id="path0" d="M174.400 39.221 C 164.088 39.464,161.736 39.632,159.200 40.308 C 157.404 40.786,154.152 41.209,151.098 41.360 C 147.443 41.541,145.377 41.844,143.818 42.428 C 142.554 42.901,139.910 43.382,137.520 43.574 C 134.642 43.805,132.918 44.155,131.800 44.735 C 130.903 45.201,128.970 45.683,127.400 45.833 C 125.788 45.987,124.063 46.423,123.334 46.861 C 122.638 47.280,120.889 47.765,119.447 47.938 C 117.893 48.125,116.510 48.538,116.054 48.952 C 115.630 49.335,114.166 49.807,112.800 50.000 C 111.434 50.193,110.000 50.638,109.611 50.990 C 109.223 51.341,107.817 51.851,106.486 52.122 C 105.155 52.394,103.737 52.912,103.333 53.274 C 102.930 53.636,101.923 54.058,101.097 54.211 C 100.270 54.365,99.123 54.860,98.548 55.313 C 97.973 55.765,96.601 56.277,95.500 56.451 C 94.231 56.652,93.298 57.054,92.951 57.548 C 92.645 57.985,91.698 58.448,90.802 58.600 C 89.921 58.748,89.065 59.112,88.900 59.407 C 88.735 59.701,87.787 60.291,86.794 60.717 C 85.801 61.142,84.744 61.785,84.445 62.145 C 84.147 62.505,83.633 62.800,83.304 62.800 C 82.975 62.800,82.091 63.340,81.339 64.000 C 80.587 64.660,79.639 65.200,79.232 65.200 C 78.825 65.200,78.197 65.650,77.837 66.200 C 77.476 66.750,76.922 67.200,76.605 67.200 C 76.288 67.200,75.849 67.535,75.629 67.945 C 75.410 68.355,74.639 68.923,73.915 69.209 C 72.590 69.731,71.625 70.481,69.681 72.500 C 69.098 73.105,68.387 73.600,68.101 73.600 C 67.815 73.600,67.415 74.035,67.213 74.566 C 67.011 75.097,66.476 75.649,66.023 75.793 C 65.570 75.936,65.200 76.250,65.200 76.491 C 65.200 76.731,64.300 77.803,63.201 78.874 C 62.101 79.945,60.948 81.402,60.639 82.111 C 60.329 82.820,59.337 84.190,58.433 85.156 C 57.529 86.122,56.567 87.301,56.295 87.776 C 55.003 90.033,54.129 91.389,53.339 92.361 C 52.866 92.945,52.286 94.137,52.050 95.011 C 51.814 95.885,51.256 96.827,50.810 97.103 C 50.365 97.380,50.000 97.940,50.000 98.348 C 50.000 98.755,49.569 99.724,49.041 100.501 C 48.514 101.278,47.964 102.455,47.819 103.116 C 47.673 103.776,47.223 104.617,46.817 104.985 C 46.411 105.352,45.964 106.316,45.823 107.126 C 45.491 109.040,44.793 110.800,44.365 110.800 C 44.180 110.800,43.906 111.716,43.757 112.836 C 43.594 114.065,43.122 115.306,42.567 115.967 C 41.981 116.663,41.548 117.850,41.378 119.230 C 41.230 120.424,40.758 122.016,40.328 122.769 C 39.897 123.522,39.398 125.457,39.217 127.072 C 39.036 128.686,38.590 130.460,38.227 131.014 C 37.804 131.661,37.434 133.535,37.196 136.245 C 36.979 138.719,36.551 140.991,36.163 141.734 C 35.703 142.613,35.336 145.133,34.962 149.981 C 34.642 154.135,34.135 157.860,33.712 159.181 C 32.613 162.605,32.628 230.119,33.728 233.800 C 34.122 235.120,34.628 238.717,34.851 241.792 C 35.124 245.547,35.524 248.110,36.068 249.592 C 36.513 250.807,37.020 253.350,37.194 255.245 C 37.388 257.363,37.775 259.096,38.199 259.742 C 38.578 260.320,39.040 262.151,39.226 263.811 C 39.455 265.852,39.829 267.165,40.382 267.868 C 40.832 268.440,41.200 269.487,41.200 270.194 C 41.200 271.828,41.968 274.072,42.719 274.630 C 43.037 274.867,43.443 275.979,43.620 277.102 C 43.798 278.224,44.288 279.488,44.711 279.911 C 45.133 280.333,45.593 281.399,45.734 282.279 C 45.875 283.159,46.370 284.363,46.835 284.954 C 47.300 285.544,47.776 286.748,47.895 287.629 C 48.026 288.610,48.393 289.382,48.841 289.622 C 49.243 289.837,49.787 290.730,50.049 291.607 C 50.312 292.483,50.687 293.200,50.884 293.200 C 51.080 293.200,51.522 293.872,51.865 294.693 C 52.208 295.515,52.815 296.415,53.213 296.694 C 53.611 296.973,54.050 297.716,54.188 298.345 C 54.326 298.975,54.881 299.874,55.420 300.342 C 55.959 300.811,56.400 301.460,56.400 301.783 C 56.400 302.107,56.758 302.564,57.196 302.798 C 57.634 303.032,58.289 303.803,58.652 304.512 C 60.080 307.296,69.319 317.600,70.388 317.600 C 70.604 317.600,71.072 318.043,71.427 318.584 C 71.781 319.126,72.406 319.675,72.815 319.805 C 73.224 319.935,73.666 320.377,73.796 320.787 C 73.926 321.197,74.560 321.717,75.203 321.941 C 75.847 322.166,77.455 323.216,78.775 324.275 C 82.671 327.398,83.330 327.845,84.763 328.336 C 85.513 328.592,86.364 329.141,86.653 329.555 C 86.943 329.969,87.810 330.425,88.579 330.570 C 89.348 330.714,90.213 331.169,90.502 331.582 C 90.791 331.994,91.718 332.461,92.563 332.619 C 93.408 332.778,94.469 333.333,94.922 333.854 C 95.504 334.523,96.168 334.800,97.194 334.800 C 98.093 334.800,99.134 335.161,99.932 335.750 C 100.640 336.272,102.090 336.815,103.156 336.956 C 104.221 337.098,105.500 337.567,105.998 337.998 C 106.496 338.430,107.514 338.898,108.261 339.038 C 110.863 339.526,110.800 339.013,110.803 359.589 C 110.806 377.007,110.857 378.367,111.600 380.800 C 112.037 382.230,112.399 383.940,112.404 384.600 C 112.410 385.260,112.939 386.610,113.581 387.600 C 114.686 389.306,115.052 389.734,117.030 391.636 C 119.024 393.553,127.989 393.560,130.044 391.645 C 130.543 391.180,131.178 390.800,131.455 390.800 C 132.489 390.800,146.676 376.015,149.115 372.395 C 149.932 371.183,151.455 369.348,152.500 368.318 C 153.545 367.289,154.400 366.296,154.400 366.112 C 154.400 365.929,154.895 365.305,155.500 364.727 C 156.105 364.148,156.802 363.455,157.048 363.186 C 157.295 362.917,158.240 361.979,159.148 361.101 C 160.057 360.224,160.800 359.158,160.800 358.733 C 160.800 358.308,161.835 356.896,163.100 355.595 C 164.365 354.293,166.083 352.477,166.917 351.559 L 168.434 349.891 172.717 350.337 C 175.073 350.583,177.990 350.954,179.200 351.163 C 181.890 351.626,209.741 351.661,212.800 351.204 C 218.221 350.396,222.719 349.982,229.600 349.658 C 235.305 349.390,237.298 349.154,238.300 348.626 C 239.222 348.141,241.204 347.845,245.100 347.610 C 249.093 347.370,251.093 347.066,252.400 346.500 C 253.469 346.037,255.580 345.627,257.600 345.492 C 259.910 345.336,261.508 344.997,262.585 344.432 C 263.456 343.974,264.896 343.599,265.785 343.598 C 267.690 343.595,270.400 342.906,270.400 342.424 C 270.400 341.877,271.599 341.557,274.915 341.217 C 277.008 341.002,278.291 340.660,278.829 340.174 C 279.299 339.748,280.607 339.334,282.003 339.170 C 283.703 338.969,284.731 338.593,285.620 337.845 C 286.440 337.155,287.336 336.800,288.259 336.800 C 289.028 336.800,290.410 336.370,291.329 335.845 C 292.248 335.319,293.636 334.779,294.413 334.643 C 295.190 334.507,296.124 334.047,296.489 333.621 C 296.855 333.194,297.809 332.722,298.609 332.572 C 299.410 332.422,300.492 331.872,301.014 331.349 C 301.536 330.827,302.393 330.400,302.918 330.400 C 303.444 330.400,304.307 330.026,304.837 329.570 C 305.994 328.573,310.052 326.000,310.468 326.000 C 310.737 326.000,311.515 325.359,313.800 323.256 C 314.240 322.851,315.050 322.291,315.600 322.012 C 316.837 321.384,317.343 320.934,321.649 316.640 C 323.546 314.748,325.305 313.200,325.559 313.200 C 325.812 313.200,326.185 312.765,326.387 312.234 C 326.589 311.703,327.097 311.160,327.516 311.027 C 327.936 310.893,328.490 310.383,328.748 309.892 C 329.663 308.151,331.748 305.346,333.896 302.965 C 334.389 302.419,334.895 301.561,335.021 301.058 C 335.147 300.556,335.689 299.634,336.225 299.010 C 336.761 298.386,337.200 297.638,337.200 297.347 C 337.200 297.056,337.650 296.524,338.200 296.163 C 338.789 295.778,339.200 295.128,339.200 294.585 C 339.200 294.077,339.638 293.140,340.174 292.504 C 340.710 291.867,341.273 290.818,341.426 290.173 C 341.578 289.528,342.111 288.550,342.610 288.000 C 343.109 287.450,343.641 286.240,343.792 285.312 C 343.943 284.383,344.397 283.204,344.800 282.691 C 345.204 282.177,345.657 281.103,345.807 280.302 C 345.957 279.502,346.512 278.261,347.040 277.546 C 347.673 276.687,348.000 275.705,348.000 274.657 C 348.000 273.715,348.385 272.406,348.947 271.435 C 349.605 270.300,349.955 268.943,350.093 267.000 C 350.220 265.216,350.586 263.692,351.104 262.800 C 351.655 261.850,352.047 260.097,352.325 257.344 C 352.550 255.113,353.026 252.724,353.382 252.035 C 353.846 251.138,354.136 248.877,354.403 244.091 C 354.754 237.793,355.122 235.097,355.775 234.041 C 355.929 233.791,356.213 229.225,356.406 223.894 C 356.599 218.562,356.940 211.770,357.165 208.800 C 358.453 191.767,358.444 189.721,357.015 173.015 C 356.677 169.064,356.400 163.663,356.400 161.014 C 356.400 157.302,356.209 155.556,355.569 153.399 C 355.103 151.829,354.587 148.492,354.395 145.800 C 354.159 142.499,353.803 140.438,353.257 139.200 C 352.802 138.169,352.344 135.948,352.184 134.000 C 352.002 131.783,351.642 130.163,351.147 129.344 C 350.730 128.653,350.229 126.813,350.033 125.254 C 349.838 123.695,349.323 121.830,348.889 121.110 C 348.456 120.389,348.000 118.748,347.876 117.462 C 347.730 115.953,347.415 114.953,346.988 114.641 C 346.624 114.374,346.168 113.311,345.975 112.278 C 345.782 111.246,345.245 109.888,344.782 109.262 C 344.319 108.635,343.842 107.330,343.721 106.361 C 343.585 105.263,343.158 104.267,342.587 103.717 C 342.083 103.231,341.542 102.241,341.384 101.517 C 341.226 100.793,340.670 99.691,340.148 99.069 C 339.627 98.447,339.200 97.509,339.200 96.985 C 339.200 96.460,338.863 95.709,338.451 95.316 C 338.039 94.922,337.421 94.047,337.077 93.371 C 336.734 92.695,336.171 91.908,335.826 91.622 C 335.482 91.336,335.200 90.764,335.200 90.351 C 335.200 89.938,334.795 89.197,334.300 88.704 C 333.004 87.414,331.698 85.595,331.004 84.115 C 330.310 82.633,330.237 82.550,324.197 76.300 C 321.699 73.715,319.510 71.600,319.332 71.600 C 319.154 71.600,318.557 71.163,318.004 70.630 C 315.586 68.293,314.770 67.645,313.913 67.376 C 313.030 67.100,311.396 65.927,309.400 64.137 C 308.871 63.663,307.787 63.060,306.991 62.797 C 306.195 62.534,305.448 62.070,305.331 61.764 C 305.214 61.459,304.371 61.011,303.459 60.769 C 302.546 60.527,301.440 60.001,301.000 59.600 C 300.560 59.199,299.480 58.680,298.600 58.446 C 297.720 58.212,296.773 57.656,296.497 57.210 C 296.183 56.705,295.566 56.400,294.856 56.400 C 294.231 56.400,292.926 55.978,291.956 55.463 C 290.987 54.947,289.538 54.402,288.737 54.252 C 287.936 54.102,286.858 53.649,286.341 53.246 C 285.823 52.842,284.558 52.388,283.528 52.236 C 282.499 52.084,281.187 51.590,280.613 51.139 C 279.962 50.627,278.589 50.197,276.956 49.994 C 275.447 49.807,274.021 49.381,273.585 48.986 C 273.095 48.543,271.729 48.191,269.698 47.987 C 267.784 47.794,266.028 47.358,265.183 46.867 C 264.368 46.394,262.458 45.905,260.534 45.678 C 258.737 45.466,256.667 44.986,255.934 44.612 C 255.200 44.238,252.980 43.780,251.000 43.594 C 246.559 43.177,244.996 42.895,243.200 42.187 C 242.430 41.884,239.049 41.447,235.686 41.217 C 231.985 40.964,228.988 40.555,228.092 40.181 C 226.914 39.688,223.640 39.487,212.006 39.191 C 196.149 38.788,192.763 38.790,174.400 39.221 M211.600 63.815 C 220.771 64.040,224.484 64.386,228.400 65.382 C 229.610 65.689,233.083 66.118,236.117 66.336 C 239.776 66.598,241.944 66.933,242.553 67.332 C 243.119 67.704,245.269 68.086,248.163 68.330 C 251.650 68.625,253.053 68.905,253.624 69.422 C 254.144 69.892,255.421 70.208,257.557 70.396 C 259.632 70.579,261.205 70.960,262.128 71.504 C 262.901 71.961,264.584 72.462,265.867 72.619 C 267.150 72.776,269.009 73.330,269.997 73.852 C 270.985 74.373,272.332 74.800,272.991 74.800 C 273.650 74.800,275.091 75.237,276.194 75.772 C 277.297 76.307,278.876 76.855,279.702 76.990 C 280.527 77.126,281.521 77.578,281.910 77.996 C 282.299 78.413,283.368 78.924,284.285 79.130 C 285.202 79.336,286.437 79.886,287.030 80.352 C 287.623 80.818,288.452 81.200,288.873 81.200 C 289.294 81.200,290.035 81.615,290.519 82.121 C 291.004 82.628,292.162 83.264,293.093 83.535 C 294.025 83.806,294.976 84.382,295.208 84.814 C 295.439 85.246,295.883 85.600,296.193 85.600 C 296.504 85.600,297.244 86.050,297.838 86.600 C 298.431 87.150,299.171 87.600,299.481 87.600 C 300.357 87.600,312.400 99.962,312.400 100.861 C 312.400 101.288,312.850 102.055,313.400 102.565 C 313.950 103.075,314.400 103.682,314.400 103.915 C 314.400 104.148,314.825 104.847,315.345 105.469 C 315.865 106.091,316.430 107.050,316.600 107.600 C 316.770 108.150,317.335 109.109,317.855 109.731 C 318.375 110.353,318.800 111.284,318.800 111.800 C 318.800 112.316,319.250 113.273,319.800 113.927 C 320.350 114.581,320.800 115.530,320.800 116.036 C 320.800 116.543,321.263 117.626,321.830 118.443 C 322.442 119.326,322.979 120.809,323.154 122.100 C 323.333 123.417,323.774 124.620,324.276 125.159 C 325.078 126.020,325.587 127.902,325.596 130.046 C 325.598 130.621,325.971 131.563,326.424 132.140 C 327.012 132.887,327.346 134.143,327.592 136.519 C 327.785 138.395,328.281 140.540,328.725 141.426 C 329.295 142.562,329.581 144.184,329.751 147.251 C 329.911 150.136,330.237 152.087,330.766 153.321 C 331.409 154.821,331.593 156.500,331.810 162.870 C 331.956 167.122,332.226 171.230,332.411 172.000 C 333.661 177.204,333.893 203.909,332.759 212.200 C 332.351 215.189,332.220 217.164,331.579 229.993 C 331.286 235.856,331.007 238.435,330.597 239.061 C 330.235 239.613,329.892 241.835,329.667 245.068 C 329.390 249.069,329.123 250.551,328.456 251.794 C 327.935 252.763,327.600 254.112,327.600 255.235 C 327.600 256.405,327.255 257.729,326.659 258.851 C 326.141 259.824,325.583 261.516,325.419 262.611 C 325.114 264.649,324.646 265.811,323.785 266.672 C 323.517 266.941,323.177 267.959,323.031 268.934 C 322.884 269.910,322.434 271.007,322.031 271.372 C 321.627 271.738,321.184 272.743,321.046 273.605 C 320.908 274.468,320.467 275.495,320.067 275.887 C 319.667 276.279,319.111 277.172,318.833 277.871 C 318.555 278.570,317.983 279.453,317.563 279.833 C 317.144 280.213,316.800 280.940,316.800 281.448 C 316.800 281.956,316.260 282.987,315.600 283.739 C 314.940 284.491,314.400 285.297,314.400 285.530 C 314.400 285.764,314.067 286.190,313.660 286.477 C 313.252 286.765,312.615 287.540,312.243 288.200 C 311.174 290.095,309.922 291.679,308.197 293.317 C 307.319 294.152,305.139 296.247,303.353 297.973 C 301.567 299.700,299.684 301.246,299.168 301.410 C 298.652 301.574,297.895 302.134,297.486 302.654 C 297.077 303.174,296.506 303.600,296.217 303.600 C 295.928 303.600,295.403 304.042,295.049 304.581 C 294.654 305.183,293.853 305.666,292.975 305.831 C 292.189 305.979,291.334 306.437,291.076 306.850 C 290.818 307.262,290.412 307.600,290.172 307.600 C 289.933 307.600,288.941 308.118,287.969 308.751 C 286.996 309.384,285.480 310.030,284.600 310.187 C 283.720 310.343,282.694 310.797,282.320 311.197 C 281.947 311.596,280.874 312.052,279.938 312.211 C 279.001 312.369,277.777 312.833,277.217 313.242 C 276.642 313.663,274.906 314.167,273.221 314.403 C 271.494 314.644,269.927 315.104,269.493 315.497 C 269.021 315.924,267.718 316.268,265.968 316.429 C 264.171 316.593,262.918 316.931,262.416 317.386 C 261.899 317.853,260.462 318.224,258.120 318.494 C 255.999 318.738,253.885 319.255,252.800 319.793 C 251.460 320.458,249.957 320.753,246.922 320.944 C 244.048 321.125,242.453 321.423,241.522 321.951 C 240.506 322.527,238.749 322.799,233.929 323.125 C 229.525 323.423,227.270 323.750,226.358 324.222 C 224.401 325.234,197.018 326.061,180.740 325.600 L 173.681 325.400 172.659 326.500 C 172.098 327.105,171.464 327.600,171.251 327.600 C 171.038 327.600,170.740 328.163,170.589 328.850 C 170.422 329.611,169.470 330.919,168.157 332.190 C 166.971 333.339,166.000 334.482,166.000 334.731 C 166.000 334.979,165.550 335.476,165.000 335.837 C 164.450 336.197,164.000 336.735,164.000 337.032 C 164.000 337.329,163.665 337.751,163.255 337.971 C 162.845 338.190,162.273 338.961,161.983 339.685 C 161.693 340.408,160.543 341.938,159.428 343.084 C 158.312 344.230,156.950 345.717,156.400 346.389 C 155.850 347.060,154.950 348.139,154.400 348.785 C 153.850 349.432,152.860 350.700,152.200 351.603 C 151.540 352.506,150.055 354.269,148.900 355.521 C 147.745 356.773,146.800 358.019,146.800 358.289 C 146.800 358.560,146.357 359.072,145.816 359.427 C 145.274 359.781,144.725 360.406,144.595 360.815 C 144.465 361.224,144.008 361.670,143.580 361.806 C 143.151 361.943,142.800 362.306,142.800 362.613 C 142.800 362.921,142.260 363.725,141.600 364.400 C 140.940 365.075,140.400 365.794,140.400 365.998 C 140.400 366.201,138.960 367.833,137.200 369.624 C 135.440 371.415,134.000 373.030,134.000 373.211 C 134.000 373.393,133.550 373.896,133.000 374.329 C 132.450 374.761,132.000 375.240,132.000 375.393 C 132.000 375.663,127.468 380.087,125.333 381.900 C 123.878 383.136,123.240 383.030,121.502 381.266 L 120.005 379.746 119.902 348.184 L 119.800 316.622 118.087 316.330 C 117.144 316.169,115.932 315.690,115.391 315.265 C 114.851 314.840,113.618 314.374,112.651 314.229 C 111.684 314.083,110.581 313.621,110.200 313.200 C 109.819 312.779,108.733 312.319,107.785 312.177 C 106.732 312.019,105.713 311.546,105.162 310.959 C 104.616 310.379,103.807 310.000,103.111 310.000 C 102.399 310.000,101.609 309.620,101.035 309.000 C 100.525 308.450,99.943 308.000,99.741 308.000 C 99.203 308.000,95.135 305.380,94.186 304.422 C 93.738 303.970,93.174 303.600,92.932 303.600 C 92.690 303.600,92.212 303.172,91.869 302.649 C 91.526 302.126,90.770 301.579,90.188 301.433 C 88.980 301.130,79.413 291.703,79.004 290.411 C 78.758 289.638,78.051 288.732,75.996 286.558 C 75.558 286.095,75.200 285.548,75.200 285.343 C 75.200 285.138,74.667 284.347,74.016 283.585 C 73.365 282.823,72.825 281.912,72.816 281.559 C 72.807 281.207,72.260 280.354,71.600 279.663 C 70.940 278.972,70.400 277.984,70.400 277.466 C 70.400 276.948,70.039 276.198,69.598 275.798 C 69.157 275.399,68.600 274.341,68.359 273.446 C 68.118 272.552,67.603 271.597,67.214 271.325 C 66.792 271.029,66.428 270.122,66.310 269.074 C 66.201 268.109,65.730 266.797,65.263 266.159 C 64.754 265.465,64.265 263.930,64.042 262.330 C 63.835 260.852,63.315 259.157,62.875 258.530 C 62.363 257.803,62.002 256.458,61.861 254.757 C 61.732 253.208,61.314 251.553,60.851 250.757 C 60.274 249.766,59.985 248.269,59.779 245.200 C 59.576 242.179,59.266 240.551,58.675 239.400 C 57.934 237.957,57.803 236.525,57.337 224.800 C 57.053 217.650,56.615 210.090,56.363 208.000 C 56.112 205.910,56.017 203.120,56.153 201.800 C 56.391 199.483,56.784 190.237,57.555 168.800 C 57.871 160.021,58.033 158.349,58.715 156.800 C 59.274 155.531,59.587 153.643,59.775 150.400 C 59.971 147.020,60.258 145.350,60.855 144.104 C 61.335 143.101,61.794 141.023,61.976 139.022 C 62.166 136.939,62.552 135.228,62.979 134.576 C 63.360 133.994,63.822 132.459,64.005 131.164 C 64.188 129.870,64.691 128.314,65.122 127.706 C 65.553 127.097,66.117 125.579,66.375 124.331 C 66.633 123.083,67.094 121.854,67.400 121.600 C 67.706 121.346,68.155 120.182,68.397 119.014 C 68.640 117.846,69.186 116.575,69.611 116.190 C 70.036 115.805,70.496 114.897,70.632 114.171 C 70.768 113.446,71.215 112.549,71.625 112.178 C 72.034 111.807,72.571 110.895,72.816 110.152 C 73.061 109.408,73.410 108.800,73.591 108.800 C 73.771 108.800,74.291 108.086,74.746 107.213 C 75.555 105.662,75.901 105.195,77.841 103.031 C 78.364 102.449,78.909 101.483,79.052 100.886 C 79.276 99.951,80.307 98.723,84.140 94.831 C 85.643 93.306,86.224 92.755,88.322 90.875 C 89.135 90.146,90.070 89.307,90.400 89.011 C 90.730 88.715,91.540 88.242,92.200 87.961 C 92.860 87.679,93.760 87.113,94.200 86.703 C 95.207 85.763,99.253 83.200,99.729 83.200 C 99.925 83.200,100.420 82.774,100.830 82.253 C 101.276 81.686,102.182 81.209,103.087 81.063 C 103.950 80.925,104.806 80.489,105.079 80.049 C 105.359 79.598,106.233 79.163,107.179 79.004 C 108.070 78.853,108.935 78.502,109.100 78.223 C 109.552 77.460,111.012 76.800,112.248 76.800 C 112.853 76.800,113.732 76.440,114.200 76.000 C 114.672 75.556,116.108 75.007,117.426 74.765 C 118.732 74.526,120.091 74.069,120.448 73.750 C 120.804 73.432,122.244 72.966,123.648 72.715 C 125.051 72.464,126.679 71.929,127.265 71.527 C 127.866 71.114,129.436 70.686,130.865 70.545 C 132.259 70.407,134.210 69.932,135.200 69.489 C 136.201 69.040,138.597 68.524,140.600 68.324 C 142.580 68.126,144.920 67.625,145.800 67.211 C 146.954 66.667,148.795 66.379,152.400 66.178 C 155.414 66.010,158.353 65.602,159.800 65.151 C 161.523 64.613,164.457 64.286,170.200 63.992 C 184.493 63.260,188.351 63.243,211.600 63.815 M191.088 102.855 C 188.734 104.611,188.351 107.522,190.173 109.807 L 191.123 110.999 199.062 111.223 C 205.922 111.417,207.244 111.559,208.800 112.271 C 209.790 112.724,211.760 113.209,213.178 113.349 C 214.596 113.489,216.515 113.971,217.442 114.420 C 218.370 114.870,220.084 115.388,221.252 115.573 C 222.720 115.805,223.547 116.169,223.936 116.754 C 224.344 117.368,224.914 117.600,226.018 117.600 C 227.024 117.600,227.922 117.917,228.669 118.536 C 229.291 119.051,230.413 119.681,231.163 119.937 C 231.913 120.193,232.764 120.741,233.053 121.155 C 233.343 121.569,234.213 122.026,234.985 122.171 C 235.758 122.316,236.572 122.774,236.795 123.190 C 237.017 123.606,237.604 124.073,238.100 124.228 C 238.595 124.383,239.509 124.935,240.131 125.455 C 240.753 125.975,241.471 126.400,241.726 126.400 C 241.982 126.400,242.643 126.843,243.196 127.384 C 252.372 136.375,255.669 139.834,256.446 141.285 C 256.701 141.763,257.336 142.613,257.855 143.173 C 258.375 143.733,258.800 144.412,258.800 144.682 C 258.800 144.951,259.154 145.361,259.586 145.592 C 260.018 145.824,260.595 146.775,260.869 147.707 C 261.142 148.638,261.688 149.635,262.083 149.923 C 262.477 150.210,262.800 150.691,262.800 150.992 C 262.800 151.293,263.252 152.076,263.805 152.733 C 264.358 153.391,264.966 154.761,265.156 155.779 C 265.347 156.796,265.816 157.976,266.200 158.400 C 266.584 158.824,267.050 159.988,267.237 160.985 C 267.423 161.983,267.938 163.295,268.381 163.900 C 268.850 164.541,269.346 166.145,269.569 167.742 C 269.787 169.307,270.248 170.811,270.642 171.247 C 271.130 171.786,271.422 173.095,271.638 175.705 C 271.812 177.809,272.300 180.306,272.771 181.504 C 273.486 183.319,273.600 184.480,273.600 189.946 C 273.600 197.087,273.929 201.200,274.499 201.200 C 274.711 201.200,275.419 201.650,276.073 202.200 C 277.322 203.251,278.507 203.470,279.317 202.800 C 279.583 202.580,280.250 202.056,280.800 201.635 C 282.313 200.478,281.853 179.561,280.247 176.481 C 279.869 175.755,279.383 173.603,279.166 171.697 C 278.937 169.681,278.522 167.955,278.173 167.570 C 277.843 167.205,277.388 165.760,277.162 164.358 C 276.937 162.957,276.490 161.521,276.170 161.167 C 275.850 160.814,275.312 159.464,274.975 158.167 C 274.637 156.870,274.033 155.447,273.633 155.005 C 273.233 154.562,272.809 153.557,272.690 152.772 C 272.571 151.987,272.007 150.657,271.437 149.816 C 270.867 148.976,270.400 147.960,270.400 147.558 C 270.400 147.157,270.054 146.643,269.632 146.417 C 269.210 146.191,268.646 145.330,268.379 144.503 C 268.112 143.676,267.558 142.678,267.147 142.284 C 266.736 141.891,266.400 141.421,266.400 141.239 C 266.400 141.058,265.860 140.231,265.200 139.400 C 264.540 138.569,264.000 137.575,264.000 137.191 C 264.000 136.807,263.550 136.197,263.000 135.837 C 262.450 135.476,262.000 134.997,262.000 134.771 C 262.000 134.167,248.428 120.800,247.814 120.800 C 247.527 120.800,246.997 120.350,246.637 119.800 C 246.276 119.250,245.754 118.800,245.476 118.800 C 245.197 118.800,244.347 118.267,243.585 117.616 C 242.823 116.965,242.007 116.425,241.772 116.416 C 241.537 116.407,240.953 115.950,240.475 115.400 C 239.989 114.841,239.172 114.400,238.623 114.400 C 238.083 114.400,237.156 113.950,236.562 113.400 C 235.969 112.850,235.073 112.400,234.572 112.400 C 234.071 112.400,233.148 111.968,232.520 111.439 C 231.892 110.911,230.663 110.286,229.789 110.050 C 228.915 109.814,227.988 109.279,227.729 108.862 C 227.387 108.311,226.651 108.054,225.035 107.920 C 223.644 107.804,222.506 107.458,221.994 106.995 C 221.490 106.538,220.189 106.135,218.604 105.944 C 217.190 105.774,215.234 105.271,214.257 104.826 C 212.994 104.251,210.977 103.902,207.283 103.621 C 204.425 103.404,201.302 102.952,200.343 102.619 C 197.651 101.681,192.485 101.813,191.088 102.855 M131.064 112.683 C 130.659 112.787,130.011 113.189,129.625 113.575 C 129.238 113.962,128.174 114.398,127.261 114.544 C 126.347 114.690,125.600 114.983,125.600 115.194 C 125.600 115.406,125.067 115.855,124.416 116.192 C 123.765 116.528,122.784 117.253,122.235 117.802 C 121.686 118.351,120.974 118.800,120.653 118.800 C 120.332 118.800,119.087 119.790,117.887 121.000 C 116.686 122.210,115.501 123.200,115.252 123.200 C 115.003 123.200,114.800 123.380,114.800 123.600 C 114.800 123.820,113.810 124.982,112.600 126.183 C 111.390 127.383,110.400 128.515,110.400 128.698 C 110.400 128.881,109.867 129.653,109.216 130.415 C 108.565 131.177,108.025 132.083,108.016 132.428 C 108.007 132.773,107.550 133.447,107.000 133.925 C 106.305 134.530,106.000 135.204,106.000 136.138 C 106.000 136.876,105.550 138.327,105.000 139.362 C 103.639 141.921,103.522 148.085,104.804 149.714 C 105.245 150.275,105.718 151.335,105.855 152.068 C 105.991 152.800,106.529 153.812,107.051 154.316 C 107.701 154.944,108.000 155.682,108.000 156.658 C 108.000 157.590,108.341 158.490,108.984 159.254 C 109.525 159.897,110.085 161.093,110.227 161.912 C 110.370 162.730,110.896 164.030,111.396 164.800 C 111.896 165.570,112.417 166.811,112.554 167.557 C 112.691 168.303,113.089 169.123,113.438 169.379 C 113.788 169.634,114.238 170.723,114.439 171.798 C 114.640 172.873,115.150 174.124,115.573 174.577 C 115.995 175.029,116.468 175.940,116.623 176.600 C 116.778 177.260,117.229 178.160,117.624 178.600 C 118.019 179.040,118.559 180.300,118.823 181.400 C 119.086 182.500,119.548 183.599,119.848 183.842 C 120.149 184.085,120.662 185.042,120.989 185.968 C 121.316 186.894,121.947 188.115,122.391 188.680 C 122.836 189.245,123.200 189.926,123.200 190.192 C 123.200 190.458,123.566 191.007,124.013 191.412 C 124.460 191.816,125.025 192.939,125.269 193.908 C 125.513 194.876,125.940 195.756,126.219 195.863 C 126.498 195.970,126.952 196.630,127.227 197.329 C 127.502 198.028,128.126 199.050,128.612 199.600 C 129.099 200.150,129.623 201.132,129.777 201.782 C 129.931 202.432,130.404 203.207,130.828 203.505 C 131.253 203.802,131.600 204.278,131.600 204.563 C 131.600 204.848,132.140 205.646,132.800 206.337 C 133.460 207.028,134.000 207.956,134.000 208.399 C 134.000 208.842,134.450 209.597,135.000 210.075 C 135.550 210.553,136.000 211.149,136.000 211.400 C 136.000 211.651,136.445 212.243,136.989 212.716 C 137.534 213.189,138.101 214.077,138.251 214.688 C 138.400 215.300,138.868 216.160,139.290 216.600 C 142.054 219.482,144.147 221.966,144.682 223.000 C 145.024 223.660,145.539 224.470,145.827 224.800 C 146.114 225.130,146.946 226.073,147.675 226.895 C 148.404 227.718,149.450 228.937,150.000 229.604 C 152.430 232.555,169.410 249.200,169.989 249.200 C 170.186 249.200,170.455 249.542,170.587 249.960 C 170.720 250.378,171.242 250.824,171.748 250.951 C 172.754 251.204,176.485 253.952,178.915 256.230 C 179.402 256.686,180.084 257.164,180.432 257.291 C 181.399 257.645,185.600 260.870,185.600 261.258 C 185.600 261.446,185.856 261.600,186.169 261.600 C 186.482 261.600,187.247 262.025,187.869 262.545 C 188.491 263.065,189.387 263.612,189.860 263.759 C 190.332 263.907,191.142 264.448,191.660 264.960 C 192.177 265.473,193.050 266.031,193.600 266.201 C 194.150 266.371,195.109 266.935,195.731 267.455 C 196.353 267.975,197.111 268.400,197.417 268.400 C 197.722 268.400,198.161 268.754,198.393 269.186 C 198.624 269.619,199.510 270.160,200.360 270.389 C 201.211 270.618,202.132 271.077,202.406 271.408 C 202.681 271.739,203.647 272.376,204.553 272.825 C 207.536 274.301,208.992 275.140,209.600 275.734 C 209.930 276.056,210.974 276.527,211.921 276.781 C 212.867 277.035,213.741 277.501,213.862 277.817 C 213.983 278.134,214.796 278.607,215.669 278.868 C 216.541 279.129,217.468 279.647,217.727 280.018 C 217.987 280.389,218.830 280.826,219.600 280.989 C 220.370 281.153,221.379 281.634,221.843 282.059 C 222.306 282.484,223.386 282.938,224.243 283.068 C 225.099 283.198,226.250 283.707,226.800 284.200 C 227.350 284.694,228.340 285.223,229.000 285.378 C 229.660 285.533,230.560 285.991,231.000 286.396 C 231.440 286.801,232.865 287.327,234.167 287.565 C 235.469 287.803,236.819 288.247,237.167 288.552 C 239.661 290.734,251.112 290.712,254.356 288.517 C 255.102 288.013,255.925 287.600,256.186 287.600 C 256.447 287.600,257.083 287.150,257.600 286.600 C 258.117 286.050,258.711 285.600,258.922 285.600 C 259.262 285.600,263.299 281.568,268.400 276.132 C 269.390 275.077,270.416 273.715,270.681 273.107 C 270.945 272.498,271.331 272.000,271.537 272.000 C 271.744 272.000,272.204 271.274,272.559 270.387 C 272.914 269.499,273.471 268.671,273.798 268.546 C 274.124 268.420,274.579 267.571,274.809 266.659 C 275.038 265.746,275.580 264.260,276.013 263.356 C 277.200 260.877,277.069 257.792,275.663 255.120 C 274.591 253.082,267.676 245.600,266.864 245.600 C 266.663 245.600,266.254 245.306,265.955 244.946 C 265.656 244.586,264.779 243.890,264.006 243.400 C 263.233 242.910,261.853 241.783,260.941 240.895 C 260.028 240.006,258.903 239.160,258.440 239.013 C 257.978 238.866,257.421 238.413,257.203 238.005 C 256.985 237.598,256.265 237.146,255.604 237.001 C 254.942 236.856,254.176 236.419,253.900 236.032 C 253.625 235.644,252.950 235.090,252.400 234.800 C 251.850 234.510,251.165 233.942,250.877 233.537 C 250.590 233.131,250.011 232.800,249.591 232.800 C 249.171 232.800,248.237 232.284,247.514 231.654 C 246.791 231.024,245.795 230.382,245.300 230.227 C 244.805 230.073,244.400 229.768,244.400 229.551 C 244.400 229.333,243.596 228.799,242.612 228.364 C 241.629 227.929,240.652 227.265,240.441 226.887 C 239.700 225.563,229.401 225.893,227.562 227.300 C 226.771 227.905,225.822 228.400,225.452 228.400 C 225.083 228.400,224.623 228.812,224.432 229.316 C 224.240 229.820,223.781 230.483,223.412 230.790 C 223.043 231.096,222.409 231.989,222.003 232.773 C 221.597 233.558,220.935 234.512,220.532 234.894 C 220.130 235.275,219.350 236.146,218.800 236.828 C 215.975 240.333,215.162 240.903,212.202 241.462 C 208.550 242.152,202.717 241.422,200.984 240.059 C 200.384 239.587,199.478 239.200,198.972 239.200 C 197.749 239.200,195.970 238.503,195.433 237.813 C 195.195 237.508,194.256 237.063,193.347 236.826 C 192.437 236.589,191.462 236.115,191.178 235.774 C 190.895 235.433,190.109 234.890,189.432 234.569 C 187.468 233.636,185.055 232.090,184.608 231.479 C 184.382 231.170,183.802 230.791,183.319 230.638 C 182.836 230.484,182.333 230.019,182.201 229.604 C 182.070 229.189,181.385 228.658,180.681 228.424 C 178.858 227.819,167.200 216.137,167.200 214.915 C 167.200 214.708,166.750 214.117,166.200 213.600 C 165.650 213.083,165.200 212.453,165.200 212.200 C 165.200 211.947,164.759 211.325,164.221 210.819 C 163.682 210.314,163.128 209.381,162.988 208.746 C 162.849 208.112,162.409 207.419,162.010 207.205 C 161.611 206.992,161.093 206.268,160.859 205.597 C 160.625 204.925,160.147 204.090,159.797 203.740 C 159.447 203.390,159.058 202.592,158.933 201.967 C 158.808 201.342,158.286 200.555,157.772 200.218 C 157.189 199.837,156.739 199.040,156.575 198.103 C 156.431 197.276,155.902 195.970,155.400 195.200 C 154.898 194.430,154.361 193.080,154.208 192.200 C 154.055 191.320,153.608 190.299,153.215 189.931 C 152.822 189.563,152.376 188.393,152.224 187.331 C 152.073 186.269,151.762 184.860,151.534 184.200 C 151.225 183.305,151.282 182.217,151.760 179.917 C 152.112 178.221,152.400 176.742,152.400 176.631 C 152.400 176.364,157.241 171.680,158.841 170.400 C 162.680 167.327,165.474 164.098,166.803 161.200 C 167.574 159.518,167.170 151.757,166.277 151.105 C 165.880 150.815,165.376 149.784,165.158 148.813 C 164.940 147.843,164.411 146.803,163.981 146.502 C 163.551 146.201,163.200 145.726,163.200 145.447 C 163.200 145.168,162.767 144.533,162.238 144.036 C 161.709 143.539,161.161 142.520,161.021 141.771 C 160.880 141.022,160.432 140.231,160.025 140.013 C 159.617 139.795,159.091 139.064,158.856 138.388 C 158.443 137.203,157.785 136.227,155.554 133.485 C 154.979 132.778,154.380 131.789,154.223 131.287 C 154.066 130.785,153.547 129.939,153.069 129.408 C 152.591 128.877,151.750 127.890,151.200 127.216 C 150.312 126.127,148.628 124.193,146.989 122.380 C 146.681 122.039,146.197 121.225,145.914 120.570 C 145.089 118.661,141.685 115.097,139.800 114.169 C 139.140 113.844,138.150 113.316,137.600 112.995 C 136.643 112.437,132.740 112.250,131.064 112.683 M197.500 126.805 C 195.679 128.630,195.897 131.462,197.986 133.141 C 199.517 134.371,199.752 134.427,204.759 134.753 C 208.815 135.018,210.305 135.278,211.586 135.946 C 212.487 136.416,213.804 136.808,214.512 136.818 C 216.053 136.839,218.592 137.696,219.526 138.511 C 219.897 138.834,220.850 139.215,221.645 139.357 C 222.440 139.499,223.415 139.975,223.813 140.414 C 224.210 140.853,225.237 141.324,226.095 141.462 C 227.111 141.624,227.870 142.040,228.273 142.655 C 228.614 143.175,229.137 143.600,229.437 143.600 C 229.736 143.600,230.276 144.050,230.637 144.600 C 230.997 145.150,231.537 145.600,231.837 145.600 C 232.136 145.600,232.665 146.033,233.012 146.562 C 233.358 147.091,234.072 147.632,234.597 147.764 C 235.791 148.063,238.190 150.516,239.230 152.500 C 239.662 153.325,240.197 154.000,240.418 154.000 C 240.639 154.000,240.999 154.472,241.219 155.049 C 241.438 155.627,242.064 156.450,242.609 156.878 C 243.167 157.317,243.600 158.073,243.600 158.608 C 243.600 159.131,244.046 160.040,244.591 160.628 C 245.136 161.216,245.703 162.344,245.851 163.134 C 246.000 163.923,246.483 164.863,246.926 165.222 C 247.495 165.683,247.817 166.593,248.020 168.320 C 248.183 169.695,248.591 171.048,248.954 171.411 C 249.891 172.348,250.987 181.947,250.816 187.728 C 250.775 189.124,250.952 190.301,251.258 190.670 C 251.539 191.009,251.956 191.659,252.184 192.115 C 253.095 193.933,256.809 193.720,258.598 191.747 L 259.638 190.600 259.488 184.336 C 259.366 179.207,259.211 177.877,258.636 176.998 C 258.184 176.309,257.803 174.557,257.571 172.099 C 257.346 169.729,256.983 168.023,256.616 167.618 C 256.290 167.258,255.804 165.981,255.536 164.782 C 255.269 163.582,254.633 162.091,254.125 161.469 C 253.616 160.847,253.200 159.811,253.200 159.165 C 253.200 158.482,252.861 157.702,252.389 157.298 C 251.943 156.916,251.385 155.887,251.149 155.011 C 250.913 154.136,250.378 153.180,249.960 152.887 C 249.542 152.594,249.200 152.105,249.200 151.800 C 249.200 151.495,248.867 151.010,248.460 150.723 C 248.052 150.435,247.397 149.570,247.002 148.800 C 246.608 148.030,245.906 147.012,245.443 146.538 C 244.979 146.063,244.380 145.433,244.111 145.138 C 243.519 144.486,242.781 143.745,242.071 143.089 C 241.781 142.820,240.598 141.680,239.443 140.555 C 238.288 139.430,236.690 138.294,235.891 138.030 C 235.089 137.765,234.328 137.203,234.192 136.775 C 234.057 136.349,233.680 136.000,233.354 136.000 C 233.028 136.000,232.365 135.574,231.881 135.052 C 231.396 134.531,230.434 133.981,229.741 133.830 C 229.049 133.678,228.170 133.208,227.787 132.785 C 227.404 132.362,226.440 131.905,225.645 131.770 C 224.850 131.636,223.710 131.180,223.111 130.759 C 222.512 130.337,220.887 129.754,219.500 129.464 C 218.113 129.173,216.533 128.658,215.989 128.319 C 215.445 127.980,213.392 127.489,211.427 127.226 C 209.461 126.964,207.234 126.491,206.478 126.175 C 203.957 125.122,198.820 125.483,197.500 126.805 M205.438 150.200 C 204.628 150.750,203.813 151.200,203.629 151.200 C 203.444 151.200,203.185 151.605,203.052 152.100 C 201.934 156.274,203.839 158.188,209.518 158.594 C 212.874 158.834,213.777 159.045,214.856 159.842 C 215.571 160.369,216.669 160.800,217.297 160.800 C 218.000 160.800,218.794 161.183,219.365 161.800 C 219.875 162.350,220.451 162.802,220.646 162.805 C 220.841 162.807,221.720 163.626,222.600 164.624 C 223.480 165.622,224.597 166.848,225.083 167.349 C 225.568 167.850,226.150 169.087,226.377 170.097 C 226.604 171.108,227.134 172.535,227.555 173.268 C 228.129 174.266,228.391 175.780,228.600 179.300 C 228.753 181.885,229.027 184.000,229.209 184.000 C 229.390 184.000,230.047 184.421,230.669 184.937 C 233.495 187.277,236.375 185.623,236.479 181.600 C 236.602 176.832,235.948 171.040,235.159 169.915 C 234.740 169.318,234.207 167.941,233.974 166.854 C 233.741 165.768,233.202 164.564,232.775 164.178 C 232.349 163.792,232.000 163.224,232.000 162.917 C 232.000 161.619,222.981 153.301,221.259 153.010 C 220.360 152.858,219.175 152.381,218.626 151.949 C 217.979 151.440,216.604 151.048,214.714 150.834 C 213.111 150.652,211.103 150.210,210.251 149.852 C 208.133 148.960,207.161 149.031,205.438 150.200 " stroke="none" fill="#8c27ab" fill-rule="evenodd"></path></g></svg>