<svg id="svg" version="1.1" xmlns="http://www.w3.org/2000/svg" xmlns:xlink="http://www.w3.org/1999/xlink" width="400" height="237.62376237623764" viewBox="0, 0, 400,237.62376237623764"><g id="svgg"><path id="path0" d="M151.319 12.598 C 149.378 12.699,148.943 12.792,148.740 13.156 C 148.460 13.655,146.771 14.485,146.018 14.493 C 145.722 14.496,145.247 14.844,144.876 15.330 C 144.528 15.787,144.129 16.162,143.990 16.162 C 143.609 16.162,139.116 20.769,138.932 21.348 C 138.844 21.626,138.498 22.069,138.163 22.332 L 137.555 22.810 138.254 23.467 C 138.638 23.828,139.054 24.308,139.179 24.532 C 139.352 24.846,139.958 25.000,141.776 25.195 C 144.530 25.490,145.254 25.697,146.282 26.481 C 146.694 26.795,147.485 27.175,148.039 27.324 C 148.593 27.473,149.227 27.812,149.449 28.077 C 149.670 28.342,150.279 28.777,150.802 29.044 C 152.348 29.833,155.437 33.311,155.437 34.263 C 155.437 34.401,155.696 34.717,156.013 34.966 C 156.330 35.215,156.774 35.979,157.000 36.664 C 157.226 37.348,157.659 38.235,157.961 38.634 C 158.620 39.503,158.919 40.905,159.123 44.078 C 159.229 45.728,159.441 46.845,159.821 47.762 C 160.790 50.101,160.974 54.179,160.956 72.965 C 160.938 91.437,160.779 95.057,159.820 98.752 C 159.481 100.059,159.148 101.931,159.081 102.911 C 158.935 105.064,158.642 106.123,157.932 107.076 C 157.637 107.471,157.255 108.434,157.082 109.215 C 156.874 110.156,156.547 110.858,156.116 111.294 C 155.757 111.656,155.324 112.346,155.153 112.827 C 154.700 114.104,153.472 115.237,152.347 115.417 C 151.738 115.514,151.119 115.849,150.582 116.369 C 149.388 117.529,146.734 117.449,145.336 116.209 C 145.074 115.978,144.379 115.662,143.791 115.507 C 142.669 115.213,141.889 114.677,141.889 114.203 C 141.889 114.049,141.275 113.751,140.523 113.542 C 139.442 113.241,139.063 113.004,138.712 112.409 C 138.468 111.995,137.907 111.443,137.465 111.182 C 137.023 110.921,136.661 110.608,136.661 110.487 C 136.661 110.366,135.719 109.324,134.567 108.173 C 133.416 107.022,132.300 105.715,132.087 105.268 C 131.874 104.822,131.467 104.296,131.182 104.100 C 130.898 103.904,130.471 103.299,130.234 102.755 C 129.998 102.211,129.597 101.701,129.344 101.621 C 129.092 101.540,128.690 101.043,128.452 100.515 C 128.214 99.988,127.734 99.352,127.385 99.104 C 126.975 98.812,126.602 98.185,126.336 97.338 C 126.032 96.372,125.756 95.945,125.291 95.722 C 124.912 95.541,124.553 95.094,124.395 94.606 C 124.250 94.159,123.860 93.572,123.529 93.302 C 122.933 92.816,121.925 91.155,121.925 90.660 C 121.925 90.519,121.619 90.178,121.245 89.902 C 120.845 89.606,120.502 89.080,120.410 88.623 C 120.322 88.181,119.903 87.525,119.435 87.096 C 118.918 86.622,118.510 85.952,118.330 85.282 C 118.141 84.572,117.842 84.101,117.431 83.862 C 117.052 83.642,116.635 83.032,116.347 82.275 C 116.089 81.599,115.800 81.046,115.703 81.046 C 115.456 81.046,114.405 79.152,114.228 78.388 C 114.147 78.037,113.878 77.686,113.629 77.607 C 113.136 77.450,112.500 76.286,112.264 75.107 C 112.182 74.695,111.862 74.193,111.552 73.990 C 111.025 73.644,110.042 71.825,110.042 71.194 C 110.042 71.037,109.777 70.660,109.454 70.357 C 109.131 70.053,108.706 69.259,108.511 68.592 C 108.300 67.873,107.861 67.105,107.434 66.705 C 107.037 66.334,106.652 65.746,106.578 65.398 C 106.351 64.331,105.988 63.613,105.505 63.274 C 105.000 62.921,104.337 61.523,104.337 60.813 C 104.337 60.567,104.076 60.138,103.757 59.860 C 103.106 59.294,102.436 57.807,102.436 56.927 C 102.436 56.608,102.271 56.209,102.068 56.040 C 101.068 55.207,100.768 54.730,100.504 53.552 C 100.347 52.848,99.972 52.006,99.672 51.682 C 99.372 51.359,99.007 50.640,98.861 50.086 C 98.184 47.515,98.041 47.140,97.524 46.572 C 97.221 46.239,96.802 45.383,96.593 44.671 C 96.385 43.958,95.902 43.047,95.519 42.647 C 94.991 42.094,94.745 41.504,94.495 40.191 C 94.281 39.070,93.994 38.304,93.676 38.008 C 93.407 37.757,92.970 36.824,92.705 35.933 C 92.426 34.996,91.978 34.083,91.642 33.768 C 91.296 33.443,90.998 32.824,90.906 32.238 C 90.608 30.354,90.229 29.348,89.581 28.730 C 89.222 28.388,88.825 27.734,88.699 27.277 C 88.391 26.162,85.053 22.675,83.741 22.098 C 83.198 21.859,82.686 21.452,82.604 21.194 C 82.294 20.218,80.831 20.155,55.734 20.039 C 24.500 19.894,14.932 20.161,14.607 21.183 C 14.528 21.432,14.057 21.844,13.559 22.097 C 12.648 22.562,12.359 22.965,12.359 23.770 C 12.359 24.011,12.181 24.387,11.963 24.605 C 11.488 25.079,11.402 28.096,11.840 28.914 C 11.990 29.195,12.282 30.478,12.488 31.765 C 12.783 33.601,12.988 34.236,13.442 34.711 C 13.760 35.045,14.182 35.863,14.380 36.531 C 14.578 37.199,15.052 38.078,15.433 38.486 C 16.080 39.178,16.637 40.849,16.637 42.095 C 16.637 42.359,17.005 42.922,17.455 43.346 C 18.111 43.965,18.305 44.366,18.439 45.375 C 18.552 46.227,18.797 46.835,19.198 47.261 C 19.909 48.017,20.440 49.198,20.440 50.024 C 20.440 50.378,20.695 50.847,21.057 51.160 C 21.845 51.842,22.241 52.621,22.456 53.911 C 22.556 54.514,22.904 55.255,23.295 55.701 C 23.669 56.128,24.122 57.073,24.326 57.852 C 24.526 58.617,24.955 59.523,25.281 59.865 C 25.657 60.261,26.010 61.082,26.249 62.119 C 26.517 63.283,26.792 63.882,27.208 64.210 C 27.573 64.497,27.961 65.234,28.245 66.179 C 28.494 67.009,29.016 68.101,29.404 68.604 C 29.793 69.107,30.244 70.000,30.407 70.588 C 30.570 71.176,30.962 71.932,31.277 72.266 C 31.592 72.601,32.012 73.496,32.210 74.256 C 32.442 75.145,32.777 75.800,33.152 76.094 C 33.515 76.380,33.904 77.119,34.186 78.062 C 34.436 78.893,34.960 79.984,35.351 80.487 C 35.742 80.991,36.195 81.903,36.358 82.514 C 36.521 83.126,36.911 83.868,37.226 84.164 C 37.541 84.460,37.945 85.196,38.125 85.800 C 38.304 86.405,38.775 87.223,39.170 87.619 C 39.566 88.015,40.013 88.794,40.163 89.350 C 40.315 89.917,40.787 90.713,41.236 91.162 C 41.816 91.743,42.081 92.264,42.200 93.058 C 42.309 93.780,42.601 94.410,43.059 94.908 C 43.441 95.323,43.935 96.272,44.156 97.017 C 44.428 97.930,44.726 98.448,45.073 98.606 C 45.393 98.752,45.781 99.361,46.101 100.222 C 46.384 100.982,46.915 101.925,47.281 102.317 C 47.656 102.719,48.070 103.549,48.231 104.219 C 48.395 104.900,48.803 105.711,49.189 106.120 C 49.559 106.512,49.933 107.173,50.020 107.589 C 50.116 108.046,50.492 108.583,50.970 108.948 C 51.572 109.407,51.832 109.852,52.056 110.807 C 52.256 111.658,52.608 112.323,53.151 112.874 C 53.591 113.320,53.951 113.814,53.951 113.971 C 53.951 114.127,54.379 114.885,54.901 115.654 C 55.424 116.423,55.852 117.248,55.852 117.487 C 55.852 117.726,56.275 118.340,56.791 118.851 C 57.613 119.665,58.224 120.944,58.228 121.860 C 58.229 122.021,58.494 122.325,58.817 122.537 C 59.141 122.749,59.684 123.491,60.024 124.186 C 60.363 124.880,60.843 125.631,61.089 125.854 C 61.336 126.077,61.709 126.776,61.919 127.408 C 62.163 128.145,62.474 128.613,62.782 128.711 C 63.284 128.870,64.150 130.488,64.175 131.313 C 64.183 131.576,64.522 132.001,64.935 132.264 C 65.345 132.525,65.795 133.081,65.936 133.499 C 66.076 133.917,66.525 134.585,66.932 134.982 C 67.344 135.384,67.806 136.182,67.974 136.779 C 68.180 137.517,68.462 137.946,68.876 138.148 C 69.228 138.321,69.602 138.809,69.780 139.328 C 69.947 139.814,70.460 140.589,70.920 141.049 C 71.381 141.509,71.867 142.293,72.001 142.791 C 72.144 143.323,72.528 143.906,72.932 144.204 C 73.310 144.484,73.694 145.013,73.786 145.380 C 73.879 145.748,74.316 146.381,74.758 146.786 C 75.267 147.252,75.669 147.923,75.853 148.610 C 76.050 149.345,76.322 149.778,76.694 149.948 C 76.997 150.086,77.476 150.674,77.758 151.255 C 78.040 151.836,78.469 152.364,78.711 152.427 C 78.961 152.492,79.416 153.121,79.763 153.879 C 80.100 154.614,80.632 155.384,80.947 155.590 C 81.261 155.796,81.645 156.391,81.802 156.912 C 81.984 157.520,82.278 157.932,82.625 158.064 C 82.922 158.177,83.372 158.675,83.625 159.170 C 83.878 159.666,84.314 160.278,84.593 160.531 C 84.873 160.784,85.331 161.372,85.612 161.838 C 85.892 162.304,86.531 163.138,87.030 163.690 C 87.530 164.243,87.938 164.846,87.938 165.030 C 87.938 165.214,88.203 165.538,88.527 165.750 C 88.852 165.963,89.294 166.479,89.510 166.897 C 89.727 167.316,90.213 167.983,90.590 168.380 C 90.968 168.778,91.747 169.599,92.322 170.205 C 92.897 170.811,93.579 171.720,93.838 172.225 C 94.096 172.730,94.630 173.380,95.024 173.670 C 95.418 173.959,95.806 174.499,95.888 174.869 C 95.988 175.327,96.261 175.626,96.746 175.809 C 97.204 175.982,97.548 176.338,97.712 176.809 C 97.871 177.266,98.130 177.540,98.402 177.540 C 98.843 177.540,99.814 178.572,99.831 179.058 C 99.836 179.203,100.183 179.538,100.602 179.802 C 101.021 180.066,101.501 180.567,101.669 180.917 C 101.836 181.266,102.188 181.621,102.451 181.704 C 102.714 181.788,103.186 182.262,103.499 182.758 C 103.812 183.254,104.321 183.724,104.631 183.801 C 104.964 183.885,105.356 184.284,105.593 184.782 C 105.813 185.243,106.137 185.621,106.312 185.621 C 106.695 185.621,107.665 186.608,107.665 186.998 C 107.665 187.150,108.080 187.487,108.587 187.746 C 109.171 188.043,109.566 188.438,109.661 188.820 C 109.757 189.203,109.979 189.424,110.267 189.424 C 110.724 189.424,111.700 190.449,111.711 190.941 C 111.715 191.087,112.137 191.400,112.651 191.636 C 113.164 191.873,113.650 192.276,113.732 192.532 C 113.813 192.789,114.430 193.278,115.103 193.619 C 115.776 193.960,117.007 194.919,117.838 195.750 C 118.670 196.582,119.808 197.464,120.367 197.712 C 121.061 198.019,121.432 198.351,121.534 198.757 C 121.646 199.206,121.890 199.391,122.522 199.510 C 123.025 199.604,123.839 200.091,124.553 200.725 C 125.208 201.307,125.895 201.783,126.080 201.783 C 126.265 201.783,126.692 202.144,127.030 202.586 C 127.382 203.049,127.935 203.448,128.331 203.527 C 128.710 203.603,129.392 204.036,129.845 204.489 C 130.298 204.943,131.120 205.449,131.671 205.614 C 132.256 205.789,132.879 206.192,133.167 206.582 C 133.438 206.949,133.866 207.249,134.118 207.249 C 134.777 207.249,136.366 208.196,136.787 208.839 C 136.985 209.141,137.332 209.389,137.557 209.389 C 138.493 209.392,139.775 209.924,140.434 210.583 C 140.897 211.046,141.559 211.376,142.374 211.551 C 143.163 211.720,143.875 212.068,144.337 212.510 C 144.736 212.891,145.311 213.253,145.615 213.315 C 145.919 213.378,146.419 213.480,146.727 213.543 C 147.035 213.606,147.685 214.022,148.172 214.468 C 148.924 215.157,149.292 215.304,150.638 215.448 C 152.007 215.594,152.317 215.721,152.953 216.396 C 153.538 217.016,153.952 217.210,154.978 217.349 C 156.568 217.563,158.173 218.089,158.984 218.661 C 159.386 218.945,160.411 219.184,161.973 219.359 C 164.055 219.592,164.461 219.715,165.251 220.349 C 166.060 220.998,166.401 221.095,168.578 221.296 C 171.124 221.531,173.369 222.056,173.630 222.478 C 173.934 222.970,174.922 223.140,179.104 223.418 C 181.900 223.605,183.825 223.854,184.743 224.147 C 187.893 225.153,188.665 225.193,204.991 225.193 L 220.677 225.193 222.103 224.453 C 222.888 224.046,224.252 223.572,225.136 223.399 C 226.558 223.121,226.797 222.994,227.209 222.295 C 227.465 221.861,227.945 221.382,228.275 221.232 C 228.641 221.065,228.960 220.654,229.090 220.181 C 229.208 219.753,229.700 218.808,230.184 218.080 L 231.062 216.756 231.383 210.279 C 231.671 204.475,232.005 201.110,232.347 200.555 C 232.686 200.008,233.116 197.588,233.254 195.451 C 233.435 192.663,233.671 191.684,234.329 190.983 C 234.647 190.645,234.910 189.807,235.132 188.421 C 235.420 186.623,235.552 186.286,236.178 185.759 C 236.676 185.341,236.944 184.855,237.052 184.175 C 237.230 183.061,237.809 181.818,238.149 181.818 C 238.275 181.818,238.651 181.386,238.984 180.858 C 239.317 180.331,239.838 179.785,240.142 179.647 C 240.446 179.509,240.864 179.040,241.071 178.607 C 241.277 178.173,241.686 177.742,241.980 177.649 C 242.273 177.556,242.843 177.130,243.246 176.703 C 244.842 175.010,253.770 175.254,255.356 177.033 C 255.605 177.313,256.229 177.655,256.742 177.793 C 257.373 177.963,257.802 178.269,258.070 178.741 C 258.289 179.125,258.554 179.439,258.661 179.440 C 259.422 179.446,261.243 180.545,261.659 181.250 C 261.921 181.693,262.250 182.056,262.390 182.056 C 263.084 182.056,272.016 191.609,272.271 192.624 C 272.346 192.922,272.672 193.287,272.996 193.435 C 273.319 193.582,273.735 194.064,273.920 194.506 C 274.136 195.025,274.471 195.364,274.865 195.463 C 275.234 195.555,275.619 195.920,275.843 196.388 C 276.045 196.813,276.533 197.346,276.926 197.571 C 277.320 197.797,277.761 198.298,277.907 198.685 C 278.053 199.072,278.454 199.505,278.799 199.648 C 279.144 199.791,279.597 200.267,279.806 200.706 C 280.016 201.145,280.390 201.569,280.638 201.647 C 280.886 201.726,281.239 202.082,281.424 202.439 C 281.818 203.201,294.063 215.567,294.424 215.567 C 294.559 215.567,294.954 215.906,295.302 216.319 C 295.650 216.732,296.274 217.240,296.689 217.448 C 297.105 217.655,297.573 218.097,297.731 218.429 C 297.960 218.912,298.302 219.092,299.438 219.326 C 300.508 219.547,301.004 219.792,301.445 220.317 C 301.882 220.835,302.415 221.102,303.530 221.360 C 304.650 221.618,305.182 221.885,305.634 222.415 C 306.166 223.039,306.509 223.168,308.475 223.488 C 309.948 223.728,310.948 224.027,311.405 224.365 C 312.613 225.259,314.326 225.302,347.950 225.301 C 382.509 225.301,382.317 225.307,383.357 224.169 C 383.710 223.782,384.315 223.396,384.702 223.311 C 385.190 223.204,385.485 222.942,385.670 222.453 C 385.816 222.066,386.251 221.568,386.636 221.347 C 387.220 221.012,387.379 220.712,387.597 219.541 C 387.751 218.715,388.181 217.633,388.641 216.915 C 389.792 215.117,389.790 211.118,388.637 209.075 C 388.231 208.355,387.767 207.055,387.607 206.185 C 387.403 205.076,387.181 204.532,386.864 204.363 C 386.344 204.084,385.515 202.395,385.507 201.598 C 385.504 201.241,385.298 200.980,384.901 200.829 C 384.512 200.681,384.133 200.211,383.828 199.500 C 383.568 198.894,383.088 198.188,382.761 197.931 C 382.082 197.397,381.462 196.312,381.462 195.660 C 381.462 195.416,381.150 194.987,380.770 194.706 C 380.389 194.424,379.955 193.821,379.805 193.365 C 379.654 192.909,379.324 192.470,379.071 192.390 C 378.818 192.310,378.297 191.797,377.915 191.250 C 377.532 190.703,376.958 189.982,376.640 189.648 C 375.906 188.877,375.520 188.158,375.520 187.561 C 375.520 187.253,375.271 187.007,374.788 186.838 C 374.329 186.678,373.962 186.330,373.800 185.902 C 373.651 185.508,373.261 185.115,372.875 184.969 C 372.424 184.799,372.082 184.404,371.821 183.752 C 371.609 183.221,371.230 182.722,370.979 182.642 C 370.729 182.563,370.285 182.083,369.993 181.575 C 369.701 181.068,369.230 180.547,368.946 180.418 C 368.662 180.289,368.287 179.892,368.112 179.537 C 367.938 179.182,367.582 178.774,367.320 178.632 C 367.059 178.489,366.752 178.224,366.638 178.044 C 366.227 177.394,361.293 172.549,361.041 172.549 C 360.900 172.549,360.784 172.446,360.784 172.320 C 360.784 171.999,355.423 166.607,355.104 166.607 C 354.960 166.607,354.843 166.504,354.843 166.379 C 354.843 166.090,349.498 160.665,349.214 160.665 C 349.098 160.665,348.814 160.345,348.583 159.954 C 348.352 159.563,347.928 159.120,347.641 158.971 C 347.353 158.821,346.316 157.870,345.336 156.856 C 344.355 155.843,343.349 154.975,343.099 154.928 C 342.850 154.881,342.475 154.499,342.267 154.078 C 342.059 153.656,341.597 153.209,341.235 153.080 C 340.875 152.952,340.366 152.484,340.105 152.040 C 339.843 151.597,339.367 151.115,339.048 150.969 C 338.728 150.823,338.304 150.391,338.106 150.008 C 337.909 149.626,337.476 149.245,337.146 149.162 C 336.756 149.064,336.423 148.720,336.198 148.182 C 335.998 147.702,335.597 147.256,335.246 147.123 C 334.913 146.996,334.447 146.573,334.209 146.183 C 333.972 145.793,333.505 145.259,333.172 144.997 C 332.838 144.734,332.442 144.222,332.291 143.858 C 332.140 143.494,331.710 143.021,331.335 142.807 C 330.872 142.542,330.500 142.007,330.173 141.132 C 329.908 140.425,329.372 139.504,328.981 139.085 C 328.407 138.470,328.240 138.039,328.116 136.839 C 328.031 136.022,327.786 134.575,327.572 133.623 C 327.195 131.948,327.199 131.824,327.707 129.702 C 327.995 128.497,328.229 127.319,328.227 127.085 C 328.223 126.645,329.028 124.905,329.500 124.333 C 329.648 124.154,329.982 123.352,330.244 122.551 C 330.567 121.559,330.886 121.020,331.241 120.864 C 331.747 120.642,331.915 120.389,332.469 119.009 C 332.614 118.647,332.989 118.253,333.301 118.135 C 333.695 117.985,333.916 117.664,334.025 117.081 C 334.120 116.577,334.566 115.835,335.142 115.221 C 335.669 114.660,336.246 113.859,336.423 113.441 C 336.600 113.024,336.974 112.542,337.255 112.372 C 337.535 112.201,337.912 111.714,338.092 111.290 C 338.271 110.865,338.678 110.400,338.995 110.255 C 339.361 110.089,339.674 109.650,339.853 109.053 C 340.007 108.536,340.564 107.683,341.090 107.157 C 341.616 106.631,342.156 105.886,342.290 105.501 C 342.424 105.116,342.793 104.666,343.109 104.501 C 343.425 104.335,343.868 103.830,344.093 103.377 C 344.319 102.925,344.748 102.448,345.045 102.317 C 345.385 102.169,345.678 101.742,345.830 101.176 C 345.966 100.671,346.486 99.860,347.006 99.339 C 347.519 98.826,348.096 98.030,348.289 97.570 C 348.481 97.110,348.906 96.611,349.233 96.462 C 349.595 96.297,349.889 95.915,349.983 95.486 C 350.075 95.065,350.406 94.626,350.804 94.398 C 351.224 94.157,351.662 93.553,351.991 92.760 C 352.287 92.044,352.810 91.290,353.207 91.008 C 353.589 90.736,354.051 90.156,354.234 89.719 C 354.416 89.283,354.841 88.745,355.179 88.524 C 355.517 88.302,355.793 87.992,355.793 87.833 C 355.793 87.498,356.690 86.644,357.245 86.449 C 357.471 86.370,357.691 85.917,357.783 85.341 C 357.894 84.647,358.208 84.097,358.874 83.432 C 359.388 82.918,359.977 82.172,360.182 81.774 C 360.388 81.376,360.822 80.876,361.146 80.664 C 361.470 80.452,361.735 80.095,361.735 79.871 C 361.735 79.437,362.674 78.431,363.079 78.431 C 363.214 78.431,363.450 78.008,363.605 77.491 C 363.760 76.973,364.272 76.144,364.743 75.649 C 365.213 75.153,365.793 74.296,366.032 73.745 C 366.324 73.068,366.655 72.695,367.048 72.596 C 367.481 72.487,367.671 72.237,367.786 71.624 C 367.872 71.169,368.290 70.403,368.717 69.920 C 369.143 69.438,369.737 68.637,370.037 68.140 C 370.337 67.643,370.825 67.078,371.122 66.883 C 371.419 66.689,371.726 66.206,371.805 65.810 C 371.884 65.415,372.284 64.756,372.693 64.347 C 373.102 63.938,373.652 63.189,373.916 62.683 C 374.180 62.177,374.648 61.598,374.956 61.396 C 375.279 61.185,375.626 60.614,375.776 60.045 C 375.921 59.501,376.316 58.835,376.661 58.556 C 377.012 58.272,377.500 57.441,377.778 56.655 C 378.132 55.655,378.449 55.173,378.896 54.958 C 379.362 54.734,379.561 54.412,379.684 53.683 C 379.789 53.061,380.150 52.375,380.680 51.788 C 381.159 51.258,381.605 50.447,381.735 49.872 C 381.858 49.321,382.304 48.493,382.730 48.022 C 383.248 47.448,383.600 46.723,383.804 45.811 C 384.000 44.936,384.300 44.303,384.648 44.029 C 385.424 43.418,385.740 42.714,385.740 41.592 C 385.740 40.497,386.032 39.811,386.812 39.080 C 387.206 38.710,387.408 38.098,387.624 36.622 C 387.883 34.852,388.385 33.525,389.152 32.584 C 389.327 32.369,389.424 31.070,389.424 28.933 L 389.424 25.616 388.549 24.859 C 388.068 24.443,387.600 23.804,387.508 23.440 C 387.417 23.076,387.169 22.717,386.957 22.643 C 385.672 22.194,384.533 21.563,384.231 21.133 C 383.520 20.117,382.241 20.083,344.623 20.083 C 305.204 20.083,307.405 19.995,305.814 21.645 C 305.319 22.159,304.706 22.579,304.451 22.579 C 304.145 22.579,303.868 22.865,303.636 23.420 C 303.404 23.974,303.046 24.344,302.588 24.504 C 302.112 24.670,301.852 24.949,301.767 25.386 C 301.411 27.216,301.047 28.222,300.544 28.758 C 300.210 29.115,299.872 29.917,299.700 30.766 C 299.352 32.473,299.062 33.179,298.346 34.065 C 298.046 34.434,297.802 34.977,297.802 35.270 C 297.802 36.142,297.075 38.010,296.608 38.337 C 296.341 38.524,295.986 39.401,295.683 40.618 C 295.334 42.017,294.981 42.833,294.476 43.409 C 294.083 43.857,293.761 44.383,293.761 44.577 C 293.761 45.246,292.827 47.588,292.451 47.863 C 292.245 48.014,291.906 48.880,291.699 49.786 C 291.417 51.023,291.154 51.582,290.641 52.032 C 290.266 52.362,289.958 52.794,289.957 52.994 C 289.954 53.867,289.394 55.250,288.811 55.824 C 288.418 56.211,287.997 57.077,287.701 58.108 C 287.316 59.451,287.100 59.829,286.572 60.082 C 286.153 60.282,285.918 60.582,285.917 60.916 C 285.914 61.959,285.388 63.298,284.742 63.906 C 284.378 64.248,284.016 64.872,283.937 65.293 C 283.774 66.165,282.703 67.974,282.350 67.974 C 282.221 67.974,282.113 68.161,282.110 68.390 C 282.101 69.105,281.199 70.841,280.493 71.501 C 280.055 71.911,279.762 72.480,279.660 73.120 C 279.562 73.736,279.190 74.480,278.670 75.103 C 278.212 75.651,277.837 76.246,277.837 76.426 C 277.837 76.605,277.472 77.117,277.026 77.563 C 276.470 78.119,276.084 78.836,275.804 79.837 C 275.515 80.866,275.205 81.433,274.756 81.753 C 274.403 82.004,273.993 82.624,273.839 83.137 C 273.686 83.649,273.186 84.465,272.728 84.950 C 272.270 85.436,271.895 85.978,271.895 86.156 C 271.895 86.333,271.536 86.860,271.097 87.325 C 270.657 87.791,270.112 88.659,269.885 89.254 C 269.657 89.849,269.165 90.562,268.790 90.839 C 268.415 91.117,267.897 91.793,267.638 92.344 C 267.380 92.894,266.997 93.409,266.788 93.490 C 266.579 93.570,266.247 94.019,266.051 94.488 C 265.856 94.956,265.399 95.510,265.037 95.718 C 264.586 95.977,264.228 96.514,263.901 97.424 C 263.603 98.254,263.223 98.853,262.888 99.021 C 262.593 99.169,262.074 99.703,261.733 100.209 C 261.392 100.715,260.922 101.266,260.689 101.435 C 260.455 101.603,260.083 102.121,259.863 102.586 C 259.642 103.051,259.216 103.543,258.917 103.679 C 258.617 103.816,258.264 104.237,258.132 104.615 C 257.984 105.040,257.604 105.424,257.138 105.620 C 256.678 105.813,256.259 106.233,256.066 106.692 C 255.867 107.166,255.486 107.538,255.042 107.693 C 254.604 107.846,254.308 108.132,254.262 108.447 C 254.222 108.727,253.819 109.204,253.367 109.508 C 252.915 109.812,252.420 110.359,252.267 110.723 C 252.114 111.088,251.681 111.514,251.306 111.670 C 250.931 111.825,250.436 112.281,250.207 112.682 C 249.978 113.083,249.469 113.532,249.077 113.680 C 248.685 113.828,248.301 114.149,248.224 114.394 C 248.041 114.971,246.939 115.418,245.157 115.638 C 244.373 115.735,243.503 115.964,243.223 116.146 C 242.785 116.433,242.666 116.429,242.355 116.118 C 242.157 115.920,241.218 115.629,240.268 115.473 C 238.334 115.153,236.170 113.420,235.070 111.308 C 234.791 110.774,234.357 110.150,234.105 109.922 C 233.853 109.694,233.486 108.959,233.290 108.289 C 233.093 107.619,232.669 106.687,232.348 106.218 C 231.161 104.484,231.186 105.311,231.086 64.547 L 230.992 26.302 230.296 24.856 C 229.858 23.947,229.508 22.705,229.352 21.509 C 228.999 18.803,228.932 18.588,228.392 18.416 C 228.125 18.332,227.748 17.865,227.553 17.378 C 227.359 16.892,226.888 16.310,226.508 16.085 C 226.127 15.860,225.750 15.467,225.669 15.211 C 225.575 14.917,225.156 14.649,224.525 14.481 C 223.254 14.143,222.260 13.680,221.509 13.075 C 220.924 12.604,159.318 12.185,151.319 12.598 " stroke="none" fill="#2c64bb" fill-rule="evenodd"></path></g></svg>