<svg id="svg" version="1.1" xmlns="http://www.w3.org/2000/svg" xmlns:xlink="http://www.w3.org/1999/xlink" width="400" height="251.2269938650307" viewBox="0, 0, 400,251.2269938650307"><g id="svgg"><path id="path0" d="M92.922 2.639 C 92.832 2.729,91.476 2.840,89.909 2.884 C 87.298 2.958,86.119 3.051,83.291 3.404 C 82.739 3.473,81.552 3.589,80.653 3.662 C 78.629 3.827,76.604 4.127,73.995 4.649 C 72.889 4.870,71.137 5.220,70.101 5.427 C 64.819 6.480,62.928 6.896,62.814 7.030 C 62.745 7.111,62.519 7.167,62.312 7.154 C 62.104 7.141,61.822 7.202,61.683 7.289 C 61.545 7.377,60.641 7.597,59.673 7.777 C 58.706 7.958,57.802 8.189,57.663 8.290 C 57.525 8.391,57.242 8.486,57.035 8.500 C 56.299 8.550,51.876 9.573,51.382 9.808 C 50.895 10.038,46.994 11.044,46.231 11.136 C 46.024 11.161,45.798 11.247,45.729 11.328 C 45.660 11.410,45.038 11.593,44.347 11.735 C 42.332 12.151,37.574 13.404,37.437 13.555 C 37.368 13.631,37.184 13.717,37.029 13.746 C 35.454 14.038,30.797 18.016,29.225 20.412 C 27.986 22.301,27.889 22.464,27.244 23.744 C 25.823 26.560,25.324 27.209,22.739 29.599 C 21.358 30.875,18.366 37.767,18.272 39.887 C 18.264 40.060,18.176 40.201,18.076 40.201 C 17.335 40.201,16.878 45.812,17.410 48.367 C 18.216 52.234,17.609 55.635,15.864 57.038 C 14.979 57.748,14.191 59.099,14.386 59.572 C 14.420 59.654,14.300 59.899,14.121 60.115 C 13.900 60.381,13.880 60.561,14.060 60.672 C 14.239 60.782,14.217 60.944,13.995 61.166 C 13.793 61.368,13.491 63.094,13.219 65.608 C 12.973 67.870,12.695 69.777,12.601 69.847 C 11.732 70.492,11.467 75.232,12.231 76.451 C 12.338 76.620,12.391 76.963,12.350 77.213 C 12.309 77.464,12.424 77.849,12.607 78.069 C 13.014 78.560,13.008 81.580,12.598 82.345 C 12.441 82.640,12.144 85.875,11.930 89.612 C 11.719 93.317,11.450 96.746,11.334 97.232 C 11.218 97.718,11.114 98.373,11.104 98.688 C 11.071 99.721,10.253 103.378,9.904 104.057 C 9.362 105.109,8.741 108.469,8.422 112.060 C 7.964 117.231,7.427 120.804,7.062 121.106 C 6.652 121.444,6.030 123.240,6.030 124.085 C 6.030 125.157,6.713 130.324,6.932 130.905 C 7.010 131.112,7.121 131.790,7.178 132.412 C 7.235 133.034,7.392 134.560,7.527 135.804 C 7.927 139.487,7.862 144.604,7.390 146.608 C 6.458 150.565,6.445 155.265,7.353 159.240 C 7.678 160.661,7.993 161.773,8.054 161.712 C 8.116 161.652,8.186 162.292,8.211 163.135 C 8.236 163.978,8.375 164.900,8.518 165.185 C 8.662 165.470,9.003 167.399,9.277 169.472 C 10.106 175.747,11.022 181.461,11.412 182.789 C 11.615 183.480,11.908 184.724,12.063 185.553 C 12.219 186.382,12.496 187.399,12.680 187.814 C 12.864 188.229,13.216 189.218,13.462 190.013 C 13.709 190.807,13.975 191.457,14.053 191.457 C 14.132 191.457,14.187 191.907,14.176 192.456 C 14.141 194.294,15.011 200.182,15.349 200.391 C 15.475 200.469,15.578 200.729,15.578 200.968 C 15.578 201.491,17.790 205.869,18.114 205.988 C 18.239 206.034,18.342 206.177,18.342 206.305 C 18.342 206.684,20.261 209.382,21.027 210.080 C 22.268 211.211,22.823 212.094,23.120 213.413 C 23.474 214.981,24.181 216.832,24.427 216.833 C 24.526 216.834,24.542 217.003,24.463 217.210 C 24.376 217.436,24.665 217.931,25.191 218.458 C 25.671 218.937,26.016 219.377,25.959 219.435 C 25.799 219.595,27.416 220.112,27.641 219.973 C 27.749 219.907,27.904 220.028,27.987 220.243 C 28.070 220.459,28.264 220.557,28.418 220.461 C 28.573 220.366,28.796 220.443,28.913 220.634 C 29.449 221.500,34.925 220.274,34.925 219.288 C 34.925 219.166,35.043 219.139,35.187 219.228 C 35.331 219.317,35.603 219.262,35.791 219.107 C 36.409 218.593,37.771 218.328,41.080 218.076 C 42.877 217.940,44.629 217.788,44.975 217.738 C 45.320 217.689,46.564 217.572,47.739 217.478 C 50.973 217.221,53.653 216.856,56.156 216.334 C 57.399 216.074,59.095 215.727,59.925 215.562 C 60.754 215.398,61.658 215.164,61.935 215.042 C 62.420 214.830,64.627 214.451,66.709 214.224 C 72.723 213.567,74.633 213.443,78.643 213.444 C 81.200 213.446,84.196 213.528,85.302 213.627 C 86.407 213.727,91.552 213.868,96.734 213.942 C 107.941 214.100,111.642 214.250,115.803 214.713 C 117.516 214.904,119.042 214.989,119.195 214.902 C 119.347 214.815,119.383 214.842,119.273 214.962 C 119.111 215.140,123.775 216.006,125.754 216.165 C 126.030 216.188,126.316 216.284,126.388 216.380 C 126.460 216.476,127.704 216.737,129.152 216.960 C 130.599 217.183,132.349 217.519,133.040 217.707 C 133.731 217.896,135.114 218.173,136.114 218.323 C 137.114 218.473,138.414 218.758,139.004 218.955 C 139.593 219.152,140.980 219.551,142.085 219.841 C 143.191 220.132,144.322 220.432,144.598 220.509 C 145.221 220.682,147.317 221.066,148.492 221.222 C 148.976 221.287,150.050 221.559,150.879 221.828 C 153.211 222.583,155.081 222.894,159.422 223.252 C 164.318 223.655,166.612 223.973,167.839 224.421 C 173.397 226.448,181.248 228.870,182.601 228.976 C 182.911 229.000,183.166 229.089,183.166 229.174 C 183.166 229.259,184.001 229.463,185.022 229.627 C 186.043 229.792,186.951 229.999,187.039 230.088 C 187.230 230.279,187.038 230.237,190.806 230.904 C 192.451 231.195,193.921 231.456,194.072 231.483 C 194.223 231.510,194.403 231.598,194.472 231.678 C 194.572 231.793,198.106 232.483,200.004 232.758 C 200.214 232.788,200.497 232.881,200.633 232.964 C 200.768 233.048,202.462 233.367,204.397 233.673 C 206.332 233.979,208.056 234.344,208.229 234.483 C 208.402 234.622,208.866 234.671,209.260 234.593 C 209.655 234.514,210.078 234.542,210.202 234.654 C 210.389 234.825,216.758 235.755,217.776 235.760 C 217.949 235.761,218.090 235.856,218.090 235.972 C 218.090 236.087,218.387 236.181,218.750 236.181 C 219.680 236.181,224.144 236.923,224.749 237.178 C 225.359 237.436,231.307 238.505,232.098 238.499 C 232.409 238.497,232.663 238.577,232.663 238.677 C 232.663 238.776,233.596 238.996,234.736 239.164 C 235.876 239.333,237.374 239.626,238.065 239.816 C 238.756 240.005,240.961 240.402,242.965 240.697 C 244.969 240.992,247.004 241.336,247.487 241.462 C 248.551 241.738,256.235 242.403,259.548 242.506 C 260.861 242.546,261.991 242.644,262.060 242.723 C 262.191 242.872,274.956 243.740,276.822 243.726 C 277.409 243.722,277.890 243.803,277.890 243.907 C 277.891 244.278,295.186 244.463,298.869 244.130 C 301.984 243.850,309.185 242.947,309.548 242.792 C 310.029 242.587,309.696 242.651,313.254 242.082 C 314.947 241.811,316.332 241.503,316.332 241.398 C 316.332 241.292,316.643 241.204,317.023 241.201 C 317.893 241.194,321.720 240.365,323.869 239.717 C 329.341 238.069,331.591 237.371,332.035 237.183 C 332.312 237.066,333.160 236.789,333.920 236.567 C 335.733 236.037,339.190 234.998,341.080 234.413 C 342.663 233.924,346.209 233.148,347.173 233.080 C 347.484 233.058,347.739 232.967,347.739 232.876 C 347.739 232.786,348.445 232.632,349.309 232.534 C 350.173 232.435,350.982 232.294,351.107 232.219 C 351.233 232.144,351.854 232.040,352.489 231.988 C 353.124 231.936,353.756 231.746,353.894 231.565 C 354.033 231.385,354.287 231.285,354.459 231.343 C 354.839 231.471,359.622 230.410,359.799 230.159 C 359.868 230.061,360.490 229.845,361.181 229.679 C 361.872 229.512,363.589 228.816,364.997 228.130 C 368.213 226.565,369.061 226.512,370.274 227.797 C 371.494 229.091,373.149 228.142,372.522 226.508 C 372.443 226.301,372.472 226.131,372.586 226.131 C 372.701 226.131,372.868 225.510,372.957 224.752 C 373.321 221.655,374.359 220.588,376.584 221.024 C 380.483 221.789,382.840 219.005,382.949 213.505 C 382.978 212.019,383.077 210.804,383.168 210.804 C 383.332 210.804,383.910 208.415,383.999 207.370 C 384.024 207.071,384.109 206.845,384.187 206.868 C 384.265 206.891,384.696 206.544,385.144 206.097 C 386.080 205.165,386.375 205.302,387.281 207.085 C 388.038 208.574,388.833 209.220,389.159 208.611 C 389.517 207.943,390.033 204.850,389.861 204.403 C 389.784 204.201,389.829 203.969,389.961 203.888 C 390.093 203.806,390.201 203.275,390.201 202.707 C 390.201 200.866,390.762 198.391,391.411 197.362 C 392.327 195.912,392.684 194.497,392.566 192.790 C 392.450 191.135,391.649 188.540,391.277 188.617 C 391.146 188.644,391.033 188.530,391.026 188.365 C 391.019 188.200,390.871 187.556,390.697 186.934 C 390.417 185.931,390.455 185.446,391.029 182.663 C 391.386 180.936,391.747 178.222,391.831 176.633 C 392.144 170.758,392.495 166.926,392.831 165.704 C 393.743 162.396,393.936 158.591,393.604 150.503 C 393.381 145.097,393.671 140.570,394.409 137.898 C 394.895 136.141,395.042 110.681,394.569 110.337 C 394.447 110.248,394.332 108.989,394.314 107.538 C 394.296 106.087,394.219 104.447,394.142 103.894 C 394.066 103.342,393.938 101.815,393.858 100.503 C 393.505 94.701,393.125 90.081,392.877 88.568 C 392.809 88.153,392.564 86.118,392.333 84.046 C 392.102 81.973,391.849 80.174,391.771 80.048 C 391.693 79.922,391.646 79.385,391.667 78.854 C 391.688 78.324,391.621 77.889,391.518 77.889 C 391.416 77.889,391.313 77.635,391.291 77.324 C 391.218 76.308,390.223 69.001,389.982 67.714 C 389.853 67.023,389.668 65.157,389.571 63.568 C 389.235 58.043,387.863 49.541,387.055 47.979 C 386.851 47.584,386.683 47.084,386.683 46.867 C 386.683 46.214,385.346 42.985,385.130 43.119 C 385.020 43.187,384.998 43.066,385.081 42.850 C 385.163 42.635,385.071 42.205,384.875 41.895 C 384.679 41.585,384.312 40.766,384.060 40.075 C 383.808 39.384,383.350 38.254,383.041 37.563 C 382.733 36.872,382.395 36.024,382.290 35.678 C 382.185 35.333,382.019 34.937,381.921 34.799 C 381.823 34.661,381.430 33.671,381.047 32.601 C 380.664 31.530,380.231 30.653,380.083 30.653 C 379.936 30.653,379.882 30.587,379.962 30.507 C 380.089 30.380,379.475 28.282,378.976 27.136 C 378.886 26.928,378.576 26.137,378.286 25.377 C 376.962 21.898,374.481 18.660,373.065 18.562 C 372.405 18.516,372.294 18.482,371.668 18.134 C 371.356 17.960,370.960 17.841,370.789 17.868 C 370.617 17.896,370.280 17.832,370.038 17.727 C 369.556 17.516,363.442 17.849,363.442 18.086 C 363.442 18.187,362.551 18.293,359.171 18.595 C 355.388 18.933,349.538 20.050,347.739 20.778 C 347.263 20.970,344.530 21.751,342.965 22.142 C 342.758 22.194,342.531 22.308,342.462 22.395 C 342.393 22.482,341.437 22.739,340.338 22.965 C 339.239 23.192,338.278 23.459,338.203 23.560 C 338.127 23.661,337.952 23.745,337.814 23.746 C 337.171 23.753,332.663 24.719,332.663 24.851 C 332.663 24.933,332.409 25.015,332.098 25.033 C 331.787 25.051,330.232 25.421,328.643 25.855 C 320.526 28.069,317.321 28.614,312.312 28.630 C 308.009 28.643,304.719 28.410,299.749 27.740 C 297.693 27.463,288.548 26.914,285.364 26.877 C 283.464 26.855,281.909 26.763,281.909 26.672 C 281.909 26.582,279.733 26.496,277.073 26.482 C 265.179 26.420,254.725 25.935,252.387 25.337 C 251.834 25.196,251.015 25.062,250.565 25.040 C 250.116 25.018,249.749 24.933,249.749 24.852 C 249.749 24.770,248.929 24.557,247.927 24.378 C 246.925 24.199,245.766 23.907,245.352 23.729 C 244.937 23.551,243.750 23.153,242.714 22.844 C 241.677 22.536,240.716 22.219,240.578 22.140 C 240.173 21.911,236.255 20.888,233.668 20.336 C 232.356 20.055,230.904 19.708,230.443 19.562 C 229.475 19.258,225.950 18.630,219.347 17.587 C 214.911 16.887,207.725 15.672,206.658 15.442 C 206.382 15.383,205.647 15.225,205.025 15.092 C 204.403 14.959,201.633 14.728,198.869 14.578 C 196.106 14.428,193.390 14.188,192.835 14.046 C 192.280 13.903,191.432 13.746,190.951 13.697 C 189.716 13.571,185.977 12.865,185.063 12.586 C 184.641 12.457,183.222 12.165,181.910 11.937 C 180.597 11.709,178.935 11.354,178.217 11.149 C 177.498 10.944,176.763 10.800,176.583 10.830 C 176.404 10.859,176.087 10.816,175.879 10.733 C 175.000 10.382,165.723 8.560,164.761 8.550 C 164.381 8.546,164.070 8.448,164.070 8.333 C 164.070 8.218,163.929 8.123,163.756 8.121 C 163.137 8.114,158.658 7.236,158.166 7.024 C 157.889 6.905,156.024 6.555,154.020 6.245 C 152.016 5.936,150.312 5.588,150.232 5.472 C 150.152 5.356,149.756 5.271,149.353 5.282 C 148.949 5.292,146.979 5.009,144.975 4.651 C 142.971 4.293,140.992 4.061,140.578 4.135 C 140.029 4.234,139.927 4.203,140.201 4.024 C 140.492 3.833,140.407 3.775,139.824 3.771 C 139.170 3.767,134.647 3.394,128.769 2.861 C 126.080 2.617,110.312 2.451,109.839 2.662 C 109.059 3.010,102.729 3.191,99.749 2.951 C 95.169 2.582,93.075 2.486,92.922 2.639 " stroke="none" fill="#dc042c" fill-rule="evenodd"></path></g></svg>