<svg id="svg" version="1.1" xmlns="http://www.w3.org/2000/svg" xmlns:xlink="http://www.w3.org/1999/xlink" width="400" height="79.9575821845175" viewBox="0, 0, 400,79.9575821845175"><g id="svgg"><path id="path0" d="M94.000 3.003 C 85.337 3.073,78.063 3.176,77.833 3.230 C 77.604 3.285,74.792 3.444,71.583 3.584 C 68.375 3.724,65.075 3.911,64.250 3.999 C 63.425 4.087,60.837 4.274,58.500 4.413 C 56.163 4.552,53.688 4.740,53.000 4.829 C 52.313 4.919,50.438 5.072,48.833 5.168 C 47.229 5.264,45.220 5.421,44.369 5.517 C 43.518 5.612,40.893 5.834,38.536 6.009 C 31.291 6.547,28.213 7.303,24.167 9.541 C 22.419 10.507,21.636 10.814,19.750 11.270 C 18.312 11.618,16.444 12.975,14.383 15.167 C 13.724 15.868,13.710 16.083,14.250 17.099 C 15.041 18.587,14.462 19.568,12.561 19.961 C 11.309 20.219,10.918 20.614,10.013 22.528 C 9.635 23.328,9.108 24.160,8.832 24.392 C 8.209 24.917,8.205 24.882,8.972 25.810 C 9.880 26.910,9.875 26.887,9.426 27.776 C 9.201 28.220,8.820 29.483,8.579 30.583 C 8.094 32.793,7.792 33.429,6.761 34.417 C 5.884 35.256,5.431 36.022,5.184 37.083 C 4.820 38.648,4.071 39.748,2.901 40.437 C 2.596 40.616,2.604 40.665,3.113 41.687 C 4.095 43.656,4.376 44.405,4.543 45.497 C 4.719 46.644,4.682 46.791,3.825 48.333 C 3.236 49.393,3.373 50.452,4.270 51.779 C 4.693 52.405,5.670 54.154,6.440 55.667 C 7.991 58.709,8.896 60.036,10.022 60.912 C 10.608 61.369,10.833 61.691,11.053 62.391 C 11.600 64.124,12.524 64.998,15.167 66.280 C 16.777 67.061,17.319 67.280,18.368 67.573 C 19.096 67.776,19.554 68.056,20.315 68.760 C 22.544 70.823,27.511 71.395,33.083 70.231 C 33.932 70.053,36.383 69.944,42.083 69.828 C 46.392 69.741,50.704 69.596,51.667 69.506 C 53.377 69.346,56.193 69.169,62.583 68.819 C 74.082 68.189,113.192 68.523,123.833 69.341 C 124.888 69.422,127.813 69.599,130.333 69.735 C 135.688 70.024,137.104 70.124,138.917 70.341 C 139.650 70.429,142.087 70.617,144.333 70.758 C 146.579 70.900,149.017 71.085,149.750 71.171 C 150.483 71.256,154.257 71.401,158.137 71.494 C 162.016 71.586,165.254 71.701,165.333 71.750 C 165.525 71.868,172.632 72.588,178.583 73.091 C 186.920 73.797,203.436 74.840,212.750 75.250 C 215.775 75.383,219.375 75.570,220.750 75.664 C 222.125 75.758,225.350 75.946,227.917 76.080 C 230.483 76.214,233.333 76.399,234.250 76.490 C 235.167 76.581,237.679 76.735,239.833 76.832 C 241.987 76.930,245.137 77.082,246.833 77.172 C 250.914 77.386,273.348 77.917,286.667 78.114 C 292.922 78.206,304.320 77.931,312.000 77.503 C 316.952 77.226,324.758 76.666,325.917 76.505 C 326.558 76.415,328.171 76.262,329.500 76.164 C 330.829 76.066,332.442 75.913,333.083 75.823 C 333.725 75.734,335.975 75.513,338.083 75.332 C 340.192 75.151,342.704 74.932,343.667 74.845 C 344.629 74.758,347.104 74.606,349.167 74.506 C 351.229 74.406,353.554 74.255,354.333 74.169 C 355.113 74.083,357.063 73.930,358.667 73.830 C 360.271 73.730,362.258 73.546,363.083 73.421 C 367.692 72.723,369.553 72.594,370.765 72.888 C 372.875 73.400,373.225 73.307,374.053 72.015 C 374.810 70.833,374.987 70.781,378.285 70.753 C 382.621 70.718,383.978 70.243,384.125 68.709 C 384.304 66.850,386.743 65.340,388.019 66.298 C 389.638 67.513,390.789 67.240,391.255 65.531 C 391.609 64.237,391.663 64.157,392.597 63.558 C 394.397 62.405,394.373 61.595,392.514 60.756 C 391.653 60.368,391.533 59.989,392.052 59.294 C 392.665 58.473,392.966 57.705,393.179 56.417 C 393.394 55.113,393.876 53.835,394.436 53.083 C 395.104 52.185,395.240 51.210,394.930 49.524 C 394.560 47.510,394.947 45.640,395.982 44.439 C 397.134 43.104,395.433 32.073,393.403 27.719 C 393.181 27.243,393.000 26.781,393.000 26.691 C 393.000 26.601,392.944 26.503,392.875 26.472 C 392.577 26.340,391.136 23.027,390.814 21.735 C 390.606 20.898,389.922 19.311,389.384 18.417 C 389.084 17.919,386.786 15.500,386.613 15.500 C 386.523 15.500,381.930 12.100,381.559 11.759 C 381.454 11.662,381.125 11.396,380.827 11.167 C 380.529 10.938,380.162 10.637,380.012 10.500 C 377.609 8.301,375.854 7.813,370.000 7.714 C 363.996 7.613,351.421 8.142,347.083 8.679 C 345.406 8.886,339.893 9.335,333.000 9.825 C 330.479 10.004,327.742 10.229,326.917 10.324 C 321.482 10.954,312.008 11.073,296.750 10.702 C 291.892 10.584,280.717 10.416,271.917 10.330 C 256.919 10.182,250.783 10.020,247.000 9.670 C 246.129 9.590,243.729 9.369,241.667 9.178 C 239.604 8.988,237.354 8.761,236.667 8.674 C 235.979 8.588,233.767 8.435,231.750 8.336 C 229.733 8.236,227.483 8.084,226.750 7.996 C 226.017 7.909,222.379 7.723,218.667 7.582 C 214.954 7.441,211.317 7.256,210.583 7.171 C 209.332 7.026,205.663 6.880,194.083 6.512 C 189.142 6.355,181.894 5.972,178.167 5.672 C 177.021 5.579,174.058 5.394,171.583 5.259 C 169.108 5.124,166.333 4.936,165.417 4.840 C 164.500 4.745,161.500 4.554,158.750 4.416 C 156.000 4.278,153.000 4.092,152.083 4.002 C 151.167 3.912,148.429 3.759,146.000 3.663 C 143.571 3.566,139.221 3.380,136.333 3.249 C 129.445 2.936,113.515 2.843,94.000 3.003 " stroke="none" fill="#dc042c" fill-rule="evenodd"></path></g></svg>