<svg id="svg" version="1.1" xmlns="http://www.w3.org/2000/svg" xmlns:xlink="http://www.w3.org/1999/xlink" width="400" height="340.045766590389" viewBox="0, 0, 400,340.045766590389"><g id="svgg"><path id="path0" d="M13.350 4.134 C 12.555 4.314,11.905 4.589,11.905 4.745 C 11.905 4.901,11.548 5.118,11.112 5.227 C 10.677 5.337,9.307 6.354,8.069 7.488 C 6.030 9.357,5.526 10.026,4.292 12.497 C 4.083 12.917,3.788 13.261,3.636 13.263 C 3.485 13.264,3.428 13.380,3.510 13.520 C 3.592 13.661,3.550 15.536,3.416 17.687 C 3.283 19.838,3.302 21.650,3.458 21.712 C 3.614 21.774,3.741 22.158,3.741 22.565 C 3.741 25.992,11.036 32.993,14.607 32.993 C 14.992 32.993,15.306 33.108,15.306 33.248 C 15.306 33.389,26.751 33.462,40.739 33.412 L 66.173 33.321 66.559 34.344 C 66.771 34.907,66.865 35.675,66.766 36.051 C 66.668 36.427,66.741 36.735,66.928 36.735 C 67.115 36.735,67.377 37.615,67.511 38.690 C 67.644 39.766,67.904 40.830,68.088 41.055 C 68.273 41.280,68.328 41.765,68.212 42.132 C 68.095 42.499,68.141 42.887,68.314 42.994 C 68.487 43.101,68.737 44.070,68.871 45.149 C 69.004 46.227,69.264 47.293,69.449 47.518 C 69.633 47.743,69.689 48.227,69.572 48.595 C 69.455 48.962,69.509 49.354,69.690 49.467 C 69.872 49.579,70.127 50.548,70.256 51.621 C 70.386 52.694,70.639 53.755,70.818 53.980 C 70.998 54.205,71.045 54.703,70.924 55.086 C 70.802 55.469,70.848 55.782,71.026 55.782 C 71.204 55.782,71.459 56.662,71.592 57.738 C 71.725 58.814,71.990 59.883,72.180 60.115 C 72.370 60.346,72.428 60.920,72.310 61.390 C 72.192 61.860,72.234 62.245,72.403 62.245 C 72.572 62.245,72.820 63.125,72.953 64.201 C 73.086 65.276,73.350 66.346,73.540 66.577 C 73.730 66.809,73.789 67.383,73.671 67.853 C 73.553 68.323,73.597 68.707,73.770 68.707 C 73.942 68.707,74.189 69.626,74.320 70.748 C 74.450 71.871,74.706 72.789,74.889 72.789 C 75.072 72.789,75.177 73.210,75.123 73.725 C 75.069 74.239,75.114 74.813,75.223 75.000 C 75.514 75.501,75.977 77.986,75.881 78.535 C 75.835 78.796,75.938 79.102,76.110 79.215 C 76.462 79.448,77.259 83.350,77.246 84.779 C 77.242 85.293,77.403 85.714,77.604 85.714 C 77.812 85.714,77.900 86.085,77.806 86.573 C 77.716 87.045,77.775 87.513,77.937 87.613 C 78.099 87.713,78.231 88.236,78.231 88.776 C 78.231 89.315,78.397 89.858,78.599 89.983 C 78.801 90.108,78.877 90.567,78.768 91.003 C 78.658 91.438,78.705 91.879,78.871 91.981 C 79.036 92.084,79.281 93.050,79.415 94.128 C 79.548 95.206,79.808 96.272,79.993 96.497 C 80.177 96.722,80.229 97.220,80.107 97.603 C 79.986 97.986,80.030 98.299,80.205 98.299 C 80.381 98.299,80.628 99.213,80.754 100.330 C 80.880 101.447,81.145 102.460,81.343 102.582 C 81.540 102.704,81.613 103.244,81.505 103.783 C 81.398 104.321,81.441 104.762,81.602 104.762 C 81.763 104.762,82.003 105.642,82.136 106.718 C 82.270 107.793,82.534 108.863,82.724 109.094 C 82.914 109.326,82.973 109.900,82.855 110.370 C 82.737 110.840,82.778 111.224,82.948 111.224 C 83.117 111.224,83.364 112.105,83.497 113.180 C 83.630 114.256,83.894 115.325,84.084 115.557 C 84.274 115.788,84.333 116.362,84.215 116.832 C 84.097 117.302,84.142 117.687,84.314 117.687 C 84.486 117.687,84.734 118.606,84.864 119.729 C 84.994 120.851,85.227 121.848,85.380 121.942 C 85.533 122.037,85.854 123.491,86.092 125.173 C 86.330 126.855,86.668 128.231,86.842 128.231 C 87.017 128.231,87.068 128.690,86.956 129.252 C 86.844 129.813,86.884 130.272,87.046 130.272 C 87.366 130.272,87.769 132.257,87.754 133.759 C 87.749 134.273,87.911 134.694,88.114 134.694 C 88.318 134.694,88.450 135.038,88.409 135.459 C 88.368 135.880,88.421 136.454,88.527 136.735 C 88.825 137.522,89.152 139.212,89.150 139.950 C 89.149 140.316,89.305 140.804,89.497 141.035 C 89.688 141.267,89.811 141.733,89.768 142.072 C 89.726 142.410,89.770 142.917,89.866 143.197 C 90.643 145.471,90.827 146.306,90.624 146.635 C 90.495 146.844,90.531 147.113,90.704 147.232 C 91.013 147.445,91.815 151.044,91.927 152.721 C 91.958 153.189,92.079 153.648,92.196 153.741 C 92.457 153.950,93.242 157.983,93.273 159.269 C 93.285 159.783,93.408 160.204,93.547 160.204 C 93.686 160.204,93.908 161.084,94.041 162.160 C 94.174 163.236,94.440 164.306,94.631 164.539 C 94.822 164.772,94.898 165.269,94.800 165.644 C 94.702 166.019,94.742 166.401,94.890 166.492 C 95.038 166.583,95.268 167.540,95.401 168.618 C 95.535 169.696,95.795 170.762,95.979 170.987 C 96.164 171.212,96.215 171.709,96.094 172.093 C 95.972 172.476,96.024 172.789,96.209 172.789 C 96.393 172.789,96.651 173.784,96.781 175.000 C 96.911 176.216,97.172 177.211,97.361 177.211 C 97.561 177.211,97.619 177.637,97.500 178.231 C 97.388 178.793,97.428 179.252,97.588 179.252 C 97.749 179.252,97.990 180.132,98.123 181.207 C 98.256 182.283,98.520 183.353,98.710 183.584 C 98.900 183.815,98.959 184.389,98.841 184.860 C 98.723 185.330,98.765 185.714,98.934 185.714 C 99.103 185.714,99.350 186.594,99.483 187.670 C 99.617 188.746,99.875 189.808,100.058 190.031 C 100.240 190.253,100.355 190.713,100.313 191.051 C 100.270 191.390,100.323 191.896,100.430 192.177 C 100.729 192.958,101.057 194.651,101.055 195.392 C 101.053 195.758,101.209 196.246,101.401 196.478 C 101.593 196.709,101.716 197.175,101.673 197.514 C 101.631 197.852,101.673 198.359,101.767 198.639 C 102.546 200.968,102.656 201.474,102.481 201.930 C 102.372 202.216,102.433 202.549,102.617 202.670 C 102.900 202.856,103.486 205.355,103.867 207.993 C 103.921 208.367,104.057 208.903,104.170 209.184 C 104.385 209.720,105.087 213.292,105.207 214.456 C 105.245 214.830,105.373 215.289,105.491 215.476 C 105.608 215.663,105.816 216.658,105.952 217.687 C 106.087 218.716,106.347 219.742,106.529 219.967 C 106.710 220.192,106.759 220.689,106.638 221.072 C 106.516 221.455,106.568 221.769,106.753 221.769 C 106.938 221.769,107.195 222.764,107.325 223.980 C 107.456 225.196,107.693 226.190,107.852 226.190 C 108.176 226.190,108.176 228.644,107.853 228.912 C 107.740 229.005,107.003 230.340,106.216 231.879 C 105.428 233.417,104.180 235.741,103.443 237.043 C 102.705 238.345,102.001 239.727,101.878 240.113 C 101.755 240.500,101.537 240.816,101.392 240.816 C 101.248 240.816,100.927 241.429,100.680 242.177 C 100.433 242.925,100.127 243.537,100.000 243.537 C 99.873 243.537,99.567 244.150,99.320 244.898 C 99.073 245.646,98.742 246.259,98.585 246.259 C 98.428 246.259,98.299 246.440,98.299 246.661 C 98.299 246.883,97.993 247.725,97.619 248.532 C 95.920 252.197,95.604 252.950,95.390 253.830 C 95.265 254.346,95.033 254.848,94.875 254.946 C 94.717 255.044,94.668 255.333,94.766 255.589 C 94.864 255.844,94.781 256.155,94.581 256.278 C 94.381 256.402,94.218 256.876,94.218 257.333 C 94.218 257.790,94.103 258.163,93.963 258.163 C 93.822 258.163,93.707 259.311,93.707 260.714 C 93.707 262.117,93.822 263.265,93.963 263.265 C 94.103 263.265,94.218 263.639,94.218 264.096 C 94.218 264.552,94.359 265.013,94.532 265.120 C 94.704 265.227,94.945 265.768,95.067 266.322 C 95.552 268.529,100.374 273.464,102.589 274.020 C 103.036 274.132,103.401 274.367,103.401 274.542 C 103.401 274.717,103.593 274.829,103.827 274.791 C 104.060 274.753,104.481 274.812,104.762 274.921 C 105.964 275.389,108.034 275.514,114.201 275.491 C 118.617 275.474,120.748 275.584,120.748 275.829 C 120.748 276.028,120.175 276.190,119.475 276.190 C 117.991 276.190,110.884 278.205,110.884 278.626 C 110.884 278.783,110.723 278.912,110.526 278.912 C 110.329 278.912,108.900 279.747,107.350 280.767 C 101.775 284.439,96.724 290.980,95.256 296.429 C 95.004 297.364,94.667 298.275,94.508 298.452 C 94.348 298.630,94.218 299.332,94.218 300.011 C 94.218 300.691,94.134 301.331,94.032 301.433 C 93.743 301.722,93.676 309.865,93.963 309.864 C 94.103 309.864,94.218 310.467,94.218 311.204 C 94.218 311.942,94.384 312.648,94.587 312.773 C 94.791 312.899,94.882 313.291,94.789 313.643 C 94.697 313.996,94.760 314.371,94.930 314.476 C 95.099 314.580,95.238 314.877,95.238 315.134 C 95.238 315.391,95.417 316.033,95.635 316.559 C 95.853 317.086,96.055 317.594,96.084 317.687 C 96.231 318.161,97.120 319.920,97.287 320.068 C 97.393 320.162,97.810 320.809,98.214 321.507 C 99.237 323.273,102.138 326.821,103.659 328.166 C 105.858 330.109,108.906 332.313,109.395 332.313 C 109.653 332.313,109.864 332.466,109.864 332.653 C 109.864 332.840,109.979 332.966,110.119 332.934 C 110.469 332.852,112.365 333.759,112.632 334.135 C 112.751 334.303,113.009 334.342,113.204 334.222 C 113.399 334.101,113.655 334.158,113.772 334.348 C 113.890 334.538,114.283 334.694,114.646 334.694 C 115.009 334.694,115.306 334.850,115.306 335.040 C 115.306 335.236,115.660 335.298,116.119 335.183 C 116.578 335.068,117.037 335.148,117.172 335.367 C 117.317 335.601,117.803 335.668,118.400 335.537 C 119.072 335.389,119.444 335.465,119.562 335.772 C 119.766 336.306,126.184 336.299,127.592 335.763 C 128.056 335.587,128.849 335.522,129.354 335.618 C 129.949 335.732,130.272 335.646,130.272 335.375 C 130.272 335.104,130.631 335.009,131.293 335.107 C 131.854 335.189,132.313 335.130,132.313 334.975 C 132.313 334.820,132.546 334.694,132.830 334.694 C 136.151 334.694,145.186 327.955,148.561 322.959 C 149.446 321.650,150.285 320.527,150.425 320.465 C 150.565 320.402,150.680 320.216,150.680 320.050 C 150.680 319.884,151.049 318.940,151.500 317.952 C 151.951 316.965,152.428 315.581,152.559 314.877 C 152.691 314.174,152.934 313.514,153.100 313.412 C 153.266 313.309,153.401 312.775,153.401 312.225 C 153.401 311.675,153.516 311.224,153.656 311.224 C 154.265 311.223,153.940 298.501,153.314 297.808 C 152.976 297.433,152.802 296.880,152.912 296.531 C 153.021 296.191,152.870 295.678,152.574 295.383 C 152.281 295.089,152.041 294.563,152.041 294.213 C 152.041 293.864,151.891 293.485,151.707 293.371 C 151.524 293.258,150.874 292.162,150.264 290.935 C 147.088 284.555,135.608 276.190,130.026 276.190 C 129.600 276.190,129.252 276.076,129.252 275.935 C 129.252 275.795,175.002 275.680,230.920 275.680 C 286.837 275.680,332.531 275.773,332.461 275.886 C 332.391 275.999,331.427 276.186,330.318 276.302 C 329.210 276.418,327.942 276.658,327.502 276.834 C 327.061 277.011,325.910 277.397,324.943 277.691 C 319.052 279.486,308.861 288.999,307.970 293.537 C 307.951 293.631,307.758 294.138,307.540 294.665 C 307.321 295.192,307.143 295.842,307.143 296.111 C 307.143 296.379,307.004 296.599,306.835 296.599 C 306.665 296.599,306.602 296.887,306.694 297.241 C 306.786 297.594,306.696 297.985,306.492 298.111 C 306.289 298.237,306.122 298.790,306.122 299.340 C 306.122 299.890,306.008 300.340,305.867 300.340 C 305.727 300.339,305.666 301.201,305.731 302.254 C 305.801 303.380,305.672 304.502,305.419 304.976 C 305.070 305.627,305.070 305.937,305.419 306.589 C 305.672 307.063,305.801 308.185,305.731 309.310 C 305.666 310.364,305.744 311.225,305.905 311.225 C 306.065 311.225,306.134 311.760,306.058 312.415 C 305.957 313.280,306.050 313.605,306.400 313.605 C 306.715 313.605,306.820 313.842,306.704 314.286 C 306.606 314.660,306.652 314.966,306.805 314.966 C 306.958 314.966,307.187 315.578,307.313 316.327 C 307.439 317.075,307.658 317.687,307.799 317.687 C 307.939 317.687,308.256 318.299,308.503 319.048 C 308.750 319.796,309.081 320.408,309.238 320.408 C 309.395 320.408,309.524 320.574,309.524 320.778 C 309.524 323.981,322.794 334.678,326.786 334.692 C 327.020 334.693,327.211 334.833,327.211 335.002 C 327.211 335.172,327.515 335.231,327.886 335.134 C 328.257 335.037,328.831 335.073,329.162 335.215 C 329.492 335.356,330.357 335.513,331.084 335.563 C 331.811 335.613,332.500 335.783,332.615 335.940 C 332.888 336.313,338.543 336.310,338.816 335.937 C 338.931 335.779,339.620 335.640,340.346 335.627 C 341.072 335.615,341.820 335.497,342.007 335.364 C 342.194 335.231,342.959 335.016,343.707 334.886 C 350.160 333.765,358.858 326.632,363.286 318.830 C 365.197 315.462,366.536 300.760,365.097 298.947 C 364.889 298.684,364.622 297.835,364.504 297.060 C 363.821 292.577,356.519 282.977,351.969 280.581 C 351.541 280.355,351.114 280.066,351.020 279.938 C 350.290 278.940,343.149 276.519,340.212 276.274 C 335.039 275.842,337.902 275.417,344.856 275.584 C 348.817 275.679,352.140 275.625,352.240 275.464 C 352.339 275.302,352.939 275.170,353.571 275.170 C 354.204 275.170,354.812 275.024,354.923 274.845 C 355.033 274.666,355.349 274.606,355.623 274.711 C 355.898 274.816,356.122 274.750,356.122 274.563 C 356.122 274.376,356.469 274.136,356.893 274.030 C 359.109 273.474,363.975 268.515,364.457 266.322 C 364.579 265.768,364.819 265.227,364.992 265.120 C 365.165 265.013,365.306 264.552,365.306 264.096 C 365.306 263.639,365.421 263.265,365.561 263.265 C 365.702 263.265,365.816 262.041,365.816 260.544 C 365.816 259.048,365.702 257.823,365.561 257.823 C 365.421 257.823,365.306 257.450,365.306 256.993 C 365.306 256.536,365.143 256.062,364.943 255.938 C 364.743 255.815,364.662 255.499,364.762 255.238 C 364.862 254.976,364.796 254.762,364.615 254.762 C 364.434 254.762,364.286 254.555,364.286 254.302 C 364.286 253.677,361.035 249.424,360.227 248.992 C 359.869 248.800,359.363 248.430,359.102 248.170 C 358.341 247.408,355.730 246.257,354.254 246.033 C 353.504 245.919,352.723 245.694,352.517 245.532 C 352.309 245.370,303.314 245.201,242.715 245.154 L 133.288 245.068 134.640 242.347 C 135.384 240.850,136.184 238.975,136.418 238.180 C 136.651 237.385,136.954 236.735,137.091 236.735 C 137.227 236.735,137.440 236.199,137.563 235.544 C 137.685 234.889,137.918 234.354,138.079 234.354 C 138.240 234.354,138.296 234.065,138.204 233.712 C 138.112 233.359,138.202 232.967,138.406 232.841 C 138.846 232.570,138.920 226.320,138.486 226.052 C 138.327 225.954,137.999 224.490,137.757 222.801 C 137.515 221.111,137.175 219.728,137.001 219.728 C 136.828 219.728,136.731 219.384,136.785 218.963 C 136.839 218.542,136.773 218.019,136.637 217.801 C 136.501 217.583,136.291 216.452,136.169 215.287 L 135.947 213.168 137.702 213.337 C 138.666 213.430,139.456 213.375,139.456 213.215 C 139.456 213.056,140.365 212.925,141.477 212.925 C 142.599 212.925,143.602 212.756,143.732 212.545 C 143.882 212.302,144.522 212.241,145.503 212.375 C 146.449 212.505,147.216 212.438,147.501 212.202 C 147.774 211.976,148.658 211.885,149.662 211.982 C 150.596 212.072,151.361 212.028,151.361 211.885 C 151.361 211.742,152.317 211.531,153.486 211.417 C 154.656 211.302,156.454 211.125,157.483 211.023 C 158.512 210.921,160.119 210.792,161.054 210.736 C 161.990 210.680,162.985 210.546,163.265 210.438 C 163.821 210.224,166.620 209.884,169.048 209.735 C 169.889 209.684,170.845 209.522,171.172 209.377 C 171.499 209.231,172.379 209.170,173.128 209.242 C 173.877 209.313,174.490 209.253,174.490 209.108 C 174.490 208.962,175.399 208.844,176.511 208.844 C 177.637 208.844,178.636 208.675,178.767 208.462 C 178.922 208.211,179.629 208.154,180.828 208.295 C 182.060 208.440,182.653 208.388,182.653 208.135 C 182.653 207.893,183.318 207.802,184.524 207.877 C 185.553 207.941,186.395 207.878,186.395 207.738 C 186.395 207.598,187.304 207.483,188.415 207.483 C 189.527 207.483,190.539 207.317,190.664 207.114 C 190.789 206.912,191.602 206.784,192.470 206.831 C 193.338 206.879,194.313 206.799,194.638 206.655 C 194.963 206.511,195.920 206.448,196.764 206.515 C 197.608 206.583,198.299 206.535,198.299 206.410 C 198.299 206.154,201.642 205.764,204.337 205.706 C 205.319 205.684,206.122 205.521,206.122 205.343 C 206.122 205.157,206.924 205.084,207.993 205.173 C 209.022 205.258,209.864 205.201,209.864 205.045 C 209.864 204.889,210.773 204.762,211.885 204.762 C 213.004 204.762,214.010 204.593,214.140 204.383 C 214.284 204.149,215.015 204.065,216.041 204.164 C 216.957 204.252,217.795 204.182,217.902 204.009 C 218.009 203.836,218.808 203.725,219.677 203.762 C 220.547 203.798,221.706 203.649,222.253 203.431 C 222.800 203.212,223.686 203.130,224.223 203.247 C 224.798 203.374,225.402 203.292,225.696 203.048 C 226.007 202.790,226.831 202.696,227.893 202.798 C 228.880 202.893,229.592 202.823,229.592 202.630 C 229.592 202.436,230.433 202.360,231.626 202.446 C 232.886 202.537,233.705 202.456,233.780 202.232 C 233.847 202.031,234.638 201.898,235.565 201.933 C 236.481 201.967,237.426 201.832,237.666 201.634 C 237.905 201.435,238.777 201.349,239.605 201.442 C 240.432 201.536,241.235 201.495,241.388 201.353 C 241.730 201.035,245.511 200.613,247.704 200.649 C 248.654 200.664,249.320 200.522,249.320 200.306 C 249.320 200.071,250.002 199.980,251.191 200.054 C 252.220 200.118,253.062 200.068,253.062 199.944 C 253.061 199.678,256.878 199.291,259.439 199.297 C 260.458 199.299,261.224 199.148,261.224 198.945 C 261.224 198.733,261.908 198.625,262.917 198.679 C 263.848 198.728,264.716 198.663,264.845 198.534 C 264.974 198.405,265.963 198.299,267.043 198.299 C 268.124 198.299,269.113 198.128,269.242 197.919 C 269.389 197.682,270.018 197.613,270.909 197.735 C 271.737 197.849,272.493 197.779,272.702 197.570 C 272.901 197.371,273.844 197.263,274.797 197.329 C 275.751 197.395,276.531 197.348,276.531 197.224 C 276.531 197.005,279.029 196.683,282.483 196.457 C 283.418 196.396,284.260 196.305,284.354 196.255 C 284.642 196.101,292.585 195.197,294.388 195.112 C 295.323 195.068,296.364 194.906,296.700 194.752 C 297.036 194.599,297.916 194.554,298.656 194.653 C 299.395 194.752,300.000 194.695,300.000 194.525 C 300.000 194.356,300.909 194.218,302.021 194.218 C 303.140 194.218,304.146 194.048,304.276 193.839 C 304.420 193.606,305.150 193.521,306.167 193.619 C 307.078 193.706,307.823 193.673,307.823 193.544 C 307.823 193.288,315.095 192.492,317.942 192.437 C 318.924 192.417,319.728 192.291,319.728 192.156 C 319.728 192.022,321.450 191.801,323.554 191.666 C 325.659 191.532,327.575 191.264,327.812 191.072 C 328.059 190.872,328.967 190.809,329.938 190.924 C 331.001 191.050,331.633 190.994,331.633 190.775 C 331.633 190.575,332.325 190.455,333.248 190.494 C 334.137 190.532,335.295 190.390,335.822 190.179 C 336.354 189.966,337.376 189.890,338.118 190.009 C 339.061 190.160,339.456 190.100,339.456 189.808 C 339.456 189.528,339.979 189.422,341.071 189.482 C 341.960 189.530,342.917 189.478,343.197 189.366 C 343.707 189.163,346.915 188.799,349.490 188.654 C 350.238 188.612,351.125 188.449,351.461 188.294 C 351.797 188.138,352.754 188.087,353.587 188.181 C 354.420 188.275,355.102 188.231,355.102 188.084 C 355.102 187.936,356.059 187.722,357.228 187.607 C 358.397 187.493,360.196 187.316,361.224 187.214 C 362.253 187.112,363.861 186.982,364.796 186.926 C 365.731 186.870,366.726 186.737,367.007 186.629 C 367.662 186.379,370.440 186.033,372.619 185.929 C 373.554 185.885,374.595 185.723,374.931 185.569 C 375.267 185.415,376.148 185.370,376.887 185.469 C 377.626 185.568,378.231 185.511,378.231 185.342 C 378.231 185.173,379.141 185.034,380.252 185.034 C 381.366 185.034,382.378 184.865,382.506 184.656 C 382.643 184.435,383.215 184.356,383.887 184.465 C 384.518 184.567,385.034 184.508,385.034 184.332 C 385.034 184.157,385.304 184.014,385.635 184.014 C 388.204 184.014,393.946 178.576,394.747 175.384 C 394.871 174.892,395.125 174.490,395.311 174.490 C 395.498 174.490,395.555 174.241,395.439 173.936 C 395.322 173.632,395.383 173.195,395.574 172.964 C 395.928 172.538,395.887 46.483,395.532 45.068 C 395.438 44.694,395.181 43.957,394.960 43.430 C 394.739 42.904,394.558 42.400,394.558 42.311 C 394.558 41.359,389.150 35.821,387.918 35.512 C 387.454 35.396,387.075 35.177,387.075 35.027 C 387.075 34.877,386.463 34.650,385.714 34.524 C 384.966 34.397,384.354 34.193,384.354 34.069 C 384.354 33.945,319.724 33.844,240.731 33.844 L 97.109 33.844 97.190 33.078 C 97.234 32.657,97.135 32.313,96.969 32.313 C 96.803 32.313,96.576 31.586,96.464 30.697 C 96.353 29.809,96.214 28.699,96.157 28.231 C 96.099 27.764,95.928 27.111,95.777 26.781 C 95.625 26.450,95.581 25.876,95.678 25.505 C 95.775 25.134,95.716 24.830,95.546 24.830 C 95.377 24.830,95.238 24.227,95.238 23.489 C 95.238 22.752,95.076 22.049,94.878 21.926 C 94.672 21.799,94.611 21.283,94.735 20.716 C 94.858 20.157,94.809 19.728,94.623 19.728 C 94.443 19.728,94.187 19.001,94.054 18.112 C 93.922 17.224,93.688 16.344,93.535 16.156 C 93.381 15.969,93.252 15.740,93.248 15.646 C 93.122 12.567,88.973 7.091,85.204 5.028 L 83.163 3.912 48.980 3.859 C 28.078 3.827,14.234 3.934,13.350 4.134 " stroke="none" fill="#fcfbfb" fill-rule="evenodd"></path></g></svg>