<svg id="svg" version="1.1" xmlns="http://www.w3.org/2000/svg" xmlns:xlink="http://www.w3.org/1999/xlink" width="400" height="138.98916967509024" viewBox="0, 0, 400,138.98916967509024"><g id="svgg"><path id="path0" d="M354.167 31.808 C 353.846 31.982,353.186 32.359,352.701 32.646 C 351.822 33.165,350.791 33.336,350.582 32.998 C 350.518 32.894,350.137 33.015,349.605 33.307 C 348.241 34.056,347.586 34.208,345.786 34.195 C 344.163 34.184,344.080 34.202,342.849 34.832 C 342.153 35.188,341.058 35.660,340.417 35.881 C 338.187 36.647,335.430 37.696,334.794 38.019 C 334.635 38.100,334.403 38.167,334.278 38.167 C 334.153 38.167,333.832 38.276,333.565 38.409 C 332.850 38.766,329.824 39.861,329.290 39.956 C 329.036 40.001,328.788 40.105,328.738 40.186 C 328.688 40.267,328.500 40.333,328.321 40.333 C 328.142 40.333,327.865 40.403,327.706 40.488 C 327.353 40.677,324.891 41.420,323.750 41.683 C 323.292 41.788,322.744 41.940,322.534 42.021 C 322.323 42.101,321.934 42.167,321.670 42.167 C 321.405 42.167,320.977 42.251,320.719 42.354 C 320.461 42.457,319.125 42.560,317.750 42.584 C 315.140 42.628,314.405 42.728,312.333 43.320 C 310.616 43.811,307.821 44.672,307.417 44.836 C 307.233 44.910,306.365 45.240,305.487 45.570 C 304.609 45.901,303.743 46.340,303.563 46.547 C 303.106 47.072,302.167 48.452,302.167 48.597 C 302.167 48.663,301.973 49.112,301.737 49.595 C 301.054 50.992,301.279 51.232,303.140 51.088 C 304.774 50.962,305.459 51.197,305.015 51.732 C 304.893 51.879,304.689 52.000,304.563 52.000 C 304.436 52.000,304.333 52.168,304.333 52.375 C 304.333 53.462,303.431 54.712,301.367 56.485 C 300.257 57.439,299.304 58.335,299.250 58.477 C 298.943 59.278,302.339 61.380,304.525 61.742 C 305.328 61.874,305.547 62.163,305.408 62.904 L 305.296 63.500 306.190 63.492 C 307.022 63.484,309.137 63.209,311.083 62.855 C 311.781 62.728,313.081 62.253,314.750 61.514 C 315.555 61.159,316.126 61.016,316.713 61.024 C 317.059 61.029,317.434 60.964,317.546 60.879 C 318.279 60.325,320.217 60.284,320.608 60.815 C 320.811 61.089,321.356 60.921,322.015 60.381 C 322.292 60.154,325.471 59.325,327.333 58.995 C 329.793 58.558,332.704 57.480,336.083 55.753 C 339.624 53.944,340.193 53.552,340.051 53.012 C 339.993 52.790,340.170 52.624,340.748 52.352 C 341.174 52.151,341.641 51.784,341.786 51.536 C 342.109 50.980,344.722 49.302,348.000 47.544 C 348.779 47.126,349.492 46.731,349.583 46.666 C 349.675 46.601,350.650 46.076,351.750 45.499 C 352.850 44.922,354.087 44.263,354.500 44.034 C 354.912 43.805,355.662 43.394,356.167 43.119 C 356.671 42.845,357.196 42.537,357.333 42.435 C 357.471 42.333,357.762 42.149,357.981 42.026 C 358.200 41.903,358.622 41.665,358.920 41.498 C 359.217 41.331,359.834 40.926,360.292 40.597 C 360.749 40.269,361.208 40.000,361.312 40.000 C 361.583 40.000,361.544 39.577,361.250 39.333 C 361.089 39.200,361.000 39.190,361.000 39.305 C 361.000 39.665,359.015 40.679,358.698 40.481 C 358.389 40.288,358.155 40.397,355.042 42.194 C 353.007 43.368,352.084 43.716,350.792 43.796 L 349.500 43.876 349.500 43.355 C 349.500 42.742,349.477 42.737,348.594 43.150 C 347.613 43.609,346.943 43.889,345.188 44.573 C 343.715 45.147,343.609 45.166,343.316 44.901 C 343.068 44.676,342.958 44.661,342.760 44.825 C 342.461 45.073,342.167 44.920,342.167 44.517 C 342.167 43.949,343.471 42.964,346.333 41.370 C 346.746 41.140,347.308 40.800,347.583 40.613 C 347.858 40.427,348.104 40.261,348.129 40.244 C 348.400 40.065,347.874 39.650,347.476 39.730 C 346.708 39.883,346.897 39.437,347.792 38.986 C 348.428 38.665,350.283 37.656,352.000 36.696 C 352.137 36.619,352.322 36.398,352.410 36.206 C 352.498 36.013,352.723 35.778,352.910 35.684 C 355.006 34.631,358.000 32.596,358.000 32.223 C 358.000 31.498,356.333 32.089,353.795 33.714 C 353.249 34.063,352.729 34.283,352.582 34.226 C 352.208 34.083,352.519 33.778,353.416 33.408 C 353.829 33.238,354.167 33.039,354.167 32.966 C 354.167 32.893,354.249 32.833,354.349 32.833 C 354.902 32.833,355.339 32.211,355.041 31.848 C 354.752 31.495,354.746 31.495,354.167 31.808 " stroke="none" fill="#fc062e" fill-rule="evenodd"></path><path id="path1" d="M87.500 1.669 C 87.087 1.746,86.000 1.817,85.083 1.828 C 84.167 1.839,83.079 1.919,82.667 2.005 C 82.254 2.092,81.204 2.239,80.333 2.331 C 79.462 2.424,78.150 2.580,77.417 2.679 C 76.683 2.778,75.596 2.921,75.000 2.996 C 74.404 3.072,73.392 3.223,72.750 3.330 C 72.108 3.438,71.208 3.589,70.750 3.665 C 70.292 3.741,68.979 4.006,67.833 4.254 C 64.838 4.903,64.319 5.009,63.667 5.103 C 63.346 5.149,62.933 5.252,62.750 5.331 C 62.370 5.495,61.683 5.653,60.833 5.772 C 60.512 5.817,60.100 5.916,59.917 5.992 C 59.265 6.262,57.074 6.871,56.457 6.952 C 56.113 6.998,55.790 7.102,55.739 7.184 C 55.688 7.266,55.431 7.333,55.167 7.333 C 54.902 7.333,54.640 7.408,54.583 7.500 C 54.527 7.592,54.296 7.667,54.071 7.667 C 53.846 7.667,53.532 7.734,53.373 7.817 C 53.214 7.900,52.746 8.062,52.333 8.178 C 50.973 8.561,48.089 9.511,47.794 9.674 C 47.635 9.762,47.352 9.833,47.167 9.833 C 46.981 9.833,46.661 9.920,46.456 10.026 C 45.689 10.423,45.499 10.500,45.294 10.500 C 45.178 10.499,44.596 10.696,44.000 10.936 C 43.404 11.176,42.729 11.447,42.500 11.539 C 42.271 11.631,41.953 11.772,41.794 11.853 C 41.635 11.934,41.390 12.000,41.250 12.000 C 41.110 12.000,40.865 12.069,40.706 12.153 C 40.222 12.409,38.844 13.000,38.731 13.000 C 38.615 13.000,36.756 13.774,36.294 14.016 C 36.135 14.099,35.891 14.167,35.752 14.167 C 35.614 14.167,35.500 14.242,35.500 14.333 C 35.500 14.425,35.382 14.500,35.237 14.500 C 35.092 14.500,34.399 14.769,33.695 15.097 C 32.992 15.426,31.967 15.905,31.417 16.162 C 29.320 17.141,22.322 20.675,22.167 20.833 C 22.121 20.879,21.858 21.028,21.583 21.164 C 21.308 21.300,20.708 21.638,20.250 21.914 C 18.674 22.865,18.416 23.009,18.125 23.107 C 17.965 23.161,17.833 23.272,17.833 23.353 C 17.833 23.434,17.756 23.500,17.662 23.500 C 17.567 23.500,16.739 23.988,15.821 24.583 C 14.903 25.179,14.080 25.667,13.992 25.667 C 13.905 25.667,13.833 25.725,13.833 25.797 C 13.833 25.869,13.590 26.072,13.292 26.247 C 12.994 26.423,12.605 26.702,12.427 26.867 C 12.249 27.032,12.012 27.167,11.899 27.167 C 11.787 27.167,11.669 27.223,11.639 27.292 C 11.608 27.360,10.984 27.867,10.252 28.417 C 1.397 35.067,-0.966 41.206,3.577 45.757 C 4.913 47.096,6.989 46.610,11.333 43.942 C 12.504 43.223,12.923 42.989,13.208 42.893 C 13.369 42.839,13.500 42.728,13.500 42.647 C 13.500 42.566,13.606 42.500,13.736 42.500 C 13.866 42.500,13.997 42.444,14.028 42.375 C 14.108 42.195,15.461 41.333,15.663 41.333 C 15.757 41.333,15.833 41.258,15.833 41.167 C 15.833 41.075,15.914 41.000,16.012 41.000 C 16.111 41.000,16.896 40.512,17.756 39.917 C 18.617 39.321,19.380 38.833,19.452 38.833 C 19.524 38.833,19.846 38.608,20.167 38.333 C 20.487 38.059,20.837 37.834,20.944 37.834 C 21.051 37.834,21.164 37.777,21.194 37.708 C 21.274 37.530,26.297 34.167,26.484 34.167 C 26.569 34.167,26.664 34.102,26.694 34.023 C 26.804 33.739,33.005 29.833,33.347 29.833 C 33.431 29.833,33.500 29.758,33.500 29.667 C 33.500 29.575,33.618 29.500,33.762 29.500 C 33.906 29.500,34.136 29.388,34.274 29.250 C 34.411 29.113,34.712 29.000,34.942 29.000 C 35.452 29.000,35.417 29.268,34.592 31.667 C 34.293 32.537,33.949 33.587,33.828 34.000 C 33.707 34.412,33.547 34.821,33.471 34.908 C 33.395 34.995,33.335 35.183,33.338 35.325 C 33.343 35.603,31.560 41.226,31.315 41.706 C 31.233 41.865,31.167 42.169,31.167 42.381 C 31.167 42.593,31.106 42.838,31.031 42.925 C 30.956 43.012,30.686 43.758,30.430 44.583 C 30.174 45.408,29.823 46.450,29.649 46.897 C 29.476 47.345,29.333 47.884,29.333 48.096 C 29.333 48.307,29.258 48.527,29.167 48.583 C 29.075 48.640,29.000 48.833,29.000 49.012 C 29.000 49.191,28.933 49.468,28.852 49.627 C 28.713 49.900,27.513 53.606,26.789 56.000 C 26.264 57.738,26.189 57.802,23.667 58.666 C 23.346 58.776,22.671 59.054,22.167 59.284 C 21.662 59.514,21.100 59.760,20.917 59.830 C 19.398 60.412,14.632 62.808,14.528 63.042 C 14.497 63.110,14.392 63.167,14.294 63.167 C 14.195 63.167,13.869 63.354,13.569 63.583 C 13.268 63.813,12.942 64.000,12.844 64.000 C 12.747 64.000,12.667 64.070,12.667 64.155 C 12.667 64.241,12.517 64.358,12.334 64.416 C 12.152 64.474,11.908 64.612,11.793 64.723 C 11.678 64.833,11.208 65.221,10.750 65.585 C 9.197 66.816,7.642 68.412,6.737 69.702 C 5.932 70.848,5.646 71.305,5.025 72.435 C 4.686 73.053,3.666 75.923,3.666 76.258 C 3.666 76.446,3.599 76.671,3.517 76.758 C 3.351 76.935,3.207 77.829,3.063 79.593 C 2.809 82.703,4.425 82.902,10.417 80.501 C 10.600 80.427,11.012 80.277,11.333 80.166 C 11.654 80.056,12.217 79.829,12.583 79.662 C 13.240 79.362,15.098 78.584,15.750 78.336 C 16.256 78.143,17.647 77.516,18.614 77.044 C 20.211 76.265,20.276 76.514,19.275 79.551 C 18.876 80.760,18.380 82.313,18.172 83.000 C 17.964 83.688,17.738 84.400,17.670 84.583 C 17.602 84.767,17.408 85.367,17.240 85.917 C 17.071 86.467,16.880 87.029,16.816 87.167 C 16.752 87.304,16.608 87.754,16.497 88.167 C 16.386 88.579,16.237 89.067,16.167 89.250 C 16.096 89.433,15.944 89.921,15.830 90.333 C 15.715 90.746,15.380 91.833,15.086 92.750 C 14.792 93.667,14.382 94.979,14.175 95.667 C 13.968 96.354,13.732 97.047,13.650 97.206 C 13.567 97.365,13.500 97.629,13.500 97.792 C 13.500 97.955,13.342 98.499,13.148 99.002 C 12.954 99.505,12.757 100.142,12.710 100.417 C 12.663 100.692,12.573 100.992,12.509 101.083 C 12.445 101.175,12.296 101.587,12.177 102.000 C 12.059 102.412,11.904 102.938,11.833 103.167 C 11.763 103.396,11.613 103.921,11.500 104.333 C 11.388 104.746,11.238 105.233,11.167 105.417 C 11.096 105.600,10.908 106.200,10.749 106.750 C 10.589 107.300,10.393 107.880,10.313 108.039 C 10.232 108.199,10.167 108.513,10.167 108.738 C 10.167 108.963,10.092 109.193,10.000 109.250 C 9.908 109.307,9.833 109.532,9.833 109.750 C 9.833 109.968,9.758 110.193,9.667 110.250 C 9.575 110.307,9.500 110.512,9.500 110.706 C 9.500 111.082,9.223 112.058,8.980 112.539 C 8.899 112.699,8.833 112.969,8.833 113.140 C 8.833 113.311,8.646 113.968,8.417 114.600 C 8.188 115.232,8.000 115.913,8.000 116.114 C 8.000 116.316,7.925 116.527,7.833 116.583 C 7.742 116.640,7.667 116.940,7.667 117.250 C 7.667 117.560,7.600 117.855,7.518 117.905 C 7.437 117.956,7.330 118.241,7.280 118.540 C 7.231 118.839,7.110 119.402,7.012 119.792 C 6.438 122.066,5.968 124.082,5.797 125.000 C 5.550 126.327,5.443 131.676,5.659 131.892 C 5.755 131.988,5.833 132.201,5.833 132.364 C 5.833 133.737,7.826 135.364,10.917 136.513 C 12.584 137.134,15.626 137.496,16.645 137.195 C 16.978 137.097,17.439 136.978,17.670 136.931 C 17.901 136.885,18.249 136.698,18.443 136.518 C 18.756 136.225,19.106 136.180,21.606 136.108 C 24.292 136.030,25.874 135.875,27.792 135.503 C 28.273 135.410,29.023 135.265,29.458 135.181 C 30.434 134.992,31.125 134.806,32.417 134.381 C 32.967 134.201,33.754 133.953,34.167 133.831 C 34.579 133.709,34.988 133.547,35.075 133.471 C 35.162 133.395,35.406 133.333,35.617 133.333 C 35.828 133.333,36.000 133.258,36.000 133.167 C 36.000 133.075,36.132 133.000,36.294 133.000 C 36.456 133.000,37.075 132.767,37.669 132.482 C 38.264 132.198,39.162 131.779,39.667 131.551 C 40.171 131.324,40.709 131.072,40.863 130.991 C 41.017 130.911,41.842 130.490,42.697 130.056 C 43.551 129.622,44.288 129.226,44.333 129.175 C 44.415 129.085,44.609 128.970,45.815 128.301 C 46.146 128.117,46.529 127.869,46.667 127.750 C 46.804 127.631,47.188 127.383,47.519 127.199 C 48.749 126.516,48.919 126.414,49.000 126.313 C 49.046 126.256,49.608 125.863,50.250 125.439 C 52.087 124.225,55.152 122.009,55.637 121.544 C 55.759 121.427,56.209 121.094,56.637 120.804 C 57.306 120.350,57.905 119.882,59.738 118.382 C 59.914 118.238,60.387 117.869,60.789 117.563 C 61.190 117.256,61.617 116.907,61.738 116.786 C 61.859 116.665,62.282 116.307,62.678 115.991 C 63.074 115.675,63.777 115.077,64.241 114.662 C 64.704 114.247,65.682 113.384,66.414 112.745 C 67.838 111.503,72.207 107.185,73.583 105.660 C 74.659 104.469,76.160 102.724,76.578 102.178 C 76.758 101.943,76.945 101.712,76.994 101.667 C 77.498 101.195,81.167 95.928,81.167 95.676 C 81.167 95.595,81.223 95.503,81.292 95.472 C 81.481 95.388,83.423 91.651,83.854 90.542 C 83.934 90.335,84.069 89.998,84.153 89.792 C 84.238 89.585,84.505 88.854,84.747 88.167 C 84.989 87.479,85.258 86.786,85.344 86.627 C 85.430 86.468,85.500 86.089,85.500 85.786 C 85.500 85.482,85.567 85.162,85.650 85.075 C 86.214 84.478,86.213 74.755,85.649 74.406 C 85.567 74.355,85.500 74.111,85.500 73.863 C 85.500 73.086,83.526 68.362,83.131 68.194 C 83.059 68.164,83.000 68.076,83.000 67.999 C 83.000 67.872,81.221 65.192,81.009 65.000 C 80.958 64.954,80.622 64.550,80.261 64.101 C 79.422 63.058,77.156 60.779,76.100 59.917 C 75.651 59.550,75.201 59.171,75.100 59.073 C 74.803 58.788,72.488 57.258,71.583 56.751 C 70.203 55.975,68.197 55.000,67.983 55.000 C 67.900 55.000,67.443 54.813,66.968 54.583 C 66.493 54.354,65.973 54.167,65.812 54.167 C 65.651 54.167,65.473 54.092,65.417 54.000 C 65.360 53.908,65.060 53.833,64.750 53.833 C 64.440 53.833,64.145 53.767,64.095 53.685 C 64.044 53.604,63.759 53.496,63.460 53.447 C 63.161 53.398,62.579 53.279,62.167 53.184 C 58.039 52.227,51.227 51.998,46.250 52.647 C 43.191 53.046,43.180 53.041,43.668 51.492 C 43.855 50.901,44.081 50.286,44.170 50.127 C 44.260 49.968,44.333 49.711,44.333 49.556 C 44.333 49.241,44.630 48.238,44.854 47.794 C 44.934 47.635,44.998 47.410,44.997 47.294 C 44.993 47.095,46.058 43.633,46.342 42.917 C 46.415 42.733,46.522 42.358,46.579 42.083 C 46.636 41.808,46.722 41.396,46.771 41.167 C 46.819 40.938,46.919 40.600,46.994 40.417 C 47.068 40.233,47.210 39.783,47.310 39.417 C 47.863 37.383,48.055 36.717,48.175 36.417 C 48.248 36.233,48.346 35.896,48.393 35.667 C 48.439 35.438,48.563 34.950,48.668 34.583 C 48.773 34.217,48.929 33.542,49.013 33.083 C 49.098 32.625,49.249 31.875,49.350 31.417 C 49.635 30.121,49.729 26.729,49.497 26.111 C 49.124 25.115,48.922 24.749,48.351 24.033 C 47.551 23.030,47.574 23.011,51.000 21.828 C 52.270 21.390,52.808 21.183,53.206 20.981 C 53.365 20.900,53.648 20.833,53.833 20.833 C 54.019 20.833,54.301 20.764,54.461 20.680 C 54.829 20.485,57.582 19.617,59.000 19.250 C 59.596 19.095,60.233 18.906,60.417 18.829 C 60.725 18.700,60.957 18.650,62.460 18.390 C 62.759 18.339,63.044 18.230,63.095 18.148 C 63.145 18.067,63.356 18.000,63.563 18.000 C 63.771 18.000,64.273 17.896,64.679 17.768 C 66.128 17.314,68.074 16.898,70.250 16.577 C 70.617 16.523,71.067 16.414,71.250 16.333 C 71.593 16.183,72.051 16.107,74.101 15.859 C 74.753 15.780,75.354 15.674,75.437 15.622 C 75.707 15.456,79.782 14.897,82.417 14.665 C 84.960 14.441,91.604 14.090,92.917 14.110 C 97.826 14.184,103.592 14.746,106.333 15.417 C 106.929 15.563,107.642 15.722,107.917 15.769 C 108.192 15.817,108.567 15.921,108.750 16.000 C 109.082 16.144,109.690 16.270,110.876 16.444 C 111.220 16.494,111.544 16.602,111.594 16.684 C 111.645 16.766,112.419 16.833,113.314 16.833 C 115.125 16.833,115.343 16.720,115.884 15.500 C 116.651 13.770,116.676 8.399,115.922 7.559 C 115.827 7.454,115.487 7.031,115.167 6.621 C 114.391 5.627,111.365 3.700,110.539 3.673 C 110.424 3.670,110.199 3.599,110.039 3.516 C 109.622 3.299,107.645 2.793,106.167 2.525 C 105.662 2.434,104.763 2.265,104.167 2.151 C 101.774 1.690,89.325 1.330,87.500 1.669 M63.385 63.503 C 66.028 63.879,67.619 64.251,68.373 64.672 C 68.532 64.761,68.773 64.833,68.908 64.833 C 69.474 64.833,71.770 66.305,73.041 67.482 C 73.950 68.324,75.167 69.998,75.167 70.408 C 75.167 70.550,75.233 70.667,75.314 70.667 C 75.816 70.667,76.402 73.594,76.397 76.083 C 76.392 78.560,75.732 82.333,75.304 82.333 C 75.228 82.333,75.167 82.522,75.167 82.752 C 75.167 82.983,75.100 83.301,75.019 83.461 C 74.938 83.620,74.798 83.938,74.706 84.167 C 74.615 84.396,74.194 85.319,73.770 86.218 C 73.347 87.117,73.000 87.923,73.000 88.010 C 73.000 88.096,72.943 88.167,72.874 88.167 C 72.805 88.167,72.643 88.410,72.514 88.708 C 72.385 89.006,71.898 89.848,71.431 90.578 C 70.965 91.308,70.508 92.030,70.417 92.181 C 70.170 92.589,69.657 93.322,69.029 94.167 C 68.722 94.579,68.309 95.136,68.110 95.403 C 67.912 95.671,67.525 96.168,67.250 96.508 C 66.975 96.847,66.487 97.452,66.167 97.852 C 64.231 100.264,59.947 104.541,56.583 107.419 C 55.942 107.968,55.379 108.460,55.333 108.513 C 55.288 108.565,54.981 108.790,54.651 109.013 C 54.322 109.235,53.797 109.626,53.485 109.882 C 52.088 111.026,45.548 115.500,45.273 115.500 C 45.225 115.500,44.481 115.912,43.620 116.417 C 42.759 116.921,41.973 117.333,41.874 117.333 C 41.775 117.333,41.669 117.390,41.639 117.458 C 41.608 117.527,40.683 118.024,39.583 118.562 C 38.483 119.099,37.453 119.606,37.294 119.686 C 37.135 119.767,36.891 119.833,36.752 119.833 C 36.614 119.833,36.500 119.908,36.500 120.000 C 36.500 120.092,36.386 120.167,36.248 120.167 C 36.109 120.167,35.865 120.234,35.706 120.317 C 35.043 120.661,33.229 121.334,32.968 121.334 C 32.813 121.334,32.640 121.408,32.583 121.500 C 32.527 121.592,32.302 121.667,32.083 121.667 C 31.865 121.667,31.640 121.742,31.583 121.833 C 31.527 121.925,31.227 122.000,30.917 122.000 C 30.607 122.000,30.312 122.067,30.261 122.148 C 30.211 122.230,29.925 122.339,29.627 122.391 C 29.328 122.443,28.671 122.570,28.167 122.671 C 27.662 122.773,26.219 122.896,24.958 122.944 L 22.667 123.032 22.667 122.274 C 22.667 121.857,22.732 121.343,22.812 121.133 C 22.958 120.750,23.131 120.166,23.469 118.917 C 23.568 118.550,23.841 117.627,24.075 116.865 C 24.309 116.103,24.500 115.301,24.500 115.083 C 24.500 114.865,24.575 114.640,24.667 114.583 C 24.758 114.527,24.833 114.264,24.833 114.000 C 24.833 113.736,24.908 113.473,25.000 113.417 C 25.092 113.360,25.167 113.098,25.167 112.833 C 25.167 112.569,25.242 112.307,25.333 112.250 C 25.425 112.193,25.500 111.997,25.500 111.813 C 25.500 111.630,25.607 111.128,25.739 110.698 C 26.115 109.468,26.652 107.646,26.854 106.917 C 26.956 106.550,27.096 106.063,27.167 105.833 C 27.237 105.604,27.388 105.079,27.501 104.667 C 27.769 103.691,28.423 101.521,28.839 100.228 C 29.019 99.666,29.167 99.052,29.167 98.863 C 29.167 98.674,29.242 98.473,29.333 98.417 C 29.425 98.360,29.500 98.098,29.500 97.833 C 29.500 97.569,29.575 97.307,29.667 97.250 C 29.758 97.193,29.833 97.020,29.833 96.865 C 29.832 96.586,30.409 94.618,31.019 92.822 C 31.192 92.312,31.333 91.767,31.333 91.612 C 31.333 91.456,31.401 91.199,31.484 91.039 C 31.566 90.880,31.727 90.412,31.840 90.000 C 31.953 89.587,32.287 88.500,32.581 87.583 C 32.876 86.667,33.211 85.579,33.325 85.167 C 33.439 84.754,33.600 84.286,33.683 84.127 C 33.766 83.968,33.833 83.654,33.833 83.429 C 33.833 83.204,33.908 82.973,34.000 82.917 C 34.092 82.860,34.167 82.649,34.168 82.448 C 34.169 82.248,34.419 81.333,34.724 80.417 C 35.028 79.500,35.373 78.412,35.489 78.000 C 35.604 77.587,35.767 77.120,35.850 76.961 C 35.932 76.801,36.000 76.519,36.000 76.333 C 36.000 76.148,36.066 75.865,36.146 75.706 C 36.226 75.547,36.498 74.742,36.749 73.917 C 37.510 71.413,37.563 71.256,37.701 71.092 C 37.774 71.005,37.833 70.728,37.833 70.477 C 37.833 70.225,37.908 69.973,38.000 69.917 C 38.092 69.860,38.167 69.601,38.167 69.342 C 38.167 68.777,38.619 68.535,41.417 67.600 C 42.425 67.263,43.380 66.915,43.539 66.827 C 43.699 66.739,43.941 66.667,44.079 66.667 C 44.216 66.667,45.098 66.405,46.039 66.085 C 46.980 65.764,47.914 65.502,48.115 65.501 C 48.316 65.501,48.522 65.433,48.572 65.352 C 48.657 65.213,49.045 65.123,50.500 64.901 C 50.821 64.853,51.233 64.749,51.417 64.671 C 51.600 64.593,52.237 64.443,52.833 64.337 C 53.429 64.231,54.217 64.078,54.583 63.997 C 54.950 63.916,56.112 63.765,57.167 63.660 C 58.221 63.555,59.115 63.439,59.153 63.401 C 59.291 63.267,62.212 63.337,63.385 63.503 M150.000 66.102 C 148.134 66.808,146.886 68.221,145.428 71.279 C 144.130 74.001,143.730 74.785,143.042 75.963 C 142.652 76.630,142.333 77.249,142.333 77.338 C 142.333 77.427,142.258 77.500,142.167 77.500 C 142.075 77.500,142.000 77.573,142.000 77.661 C 142.000 77.750,141.644 78.359,141.208 79.015 C 140.773 79.670,140.342 80.323,140.250 80.465 C 140.158 80.607,139.992 80.842,139.880 80.987 C 139.769 81.132,139.469 81.560,139.214 81.938 C 138.959 82.316,138.549 82.879,138.304 83.188 C 138.058 83.497,137.458 84.281,136.971 84.931 C 136.192 85.966,135.561 86.751,134.450 88.062 C 131.697 91.311,126.658 96.421,123.750 98.913 C 122.925 99.619,121.837 100.550,121.333 100.981 C 119.283 102.733,119.008 102.790,119.003 101.461 C 119.000 100.784,118.716 99.424,118.480 98.961 C 118.399 98.801,118.333 98.558,118.333 98.419 C 118.333 98.280,118.258 98.167,118.167 98.167 C 118.075 98.167,118.000 98.086,118.000 97.987 C 118.000 97.002,114.910 93.947,113.000 93.044 C 110.766 91.987,107.207 91.683,104.667 92.331 C 102.892 92.784,101.932 92.986,101.865 92.920 C 101.760 92.816,102.292 91.742,102.558 91.521 C 102.709 91.395,102.833 91.189,102.833 91.063 C 102.833 90.937,102.892 90.833,102.964 90.833 C 103.036 90.833,103.225 90.612,103.385 90.342 C 103.682 89.840,106.660 86.086,107.361 85.331 C 107.575 85.100,108.123 84.463,108.579 83.914 C 109.035 83.366,109.523 82.804,109.662 82.667 C 109.802 82.529,110.290 81.967,110.746 81.417 C 111.203 80.867,111.615 80.379,111.664 80.333 C 111.712 80.287,112.059 79.837,112.434 79.332 C 114.267 76.866,114.221 76.063,112.111 73.752 C 111.689 73.290,110.121 71.016,109.846 70.469 C 108.620 68.025,103.544 71.540,98.500 78.327 C 98.271 78.636,97.802 79.231,97.458 79.649 C 97.115 80.068,96.833 80.499,96.833 80.608 C 96.833 80.717,96.768 80.831,96.689 80.861 C 96.534 80.921,94.000 84.567,94.000 84.729 C 94.000 84.783,93.737 85.237,93.417 85.739 C 93.096 86.240,92.833 86.723,92.833 86.811 C 92.833 86.900,92.777 86.997,92.708 87.028 C 92.640 87.058,92.355 87.533,92.075 88.083 C 91.795 88.633,91.369 89.458,91.127 89.917 C 90.641 90.835,89.000 94.313,89.000 94.422 C 89.000 94.502,88.212 96.277,87.986 96.706 C 87.902 96.865,87.833 97.110,87.833 97.250 C 87.833 97.390,87.767 97.635,87.686 97.794 C 87.331 98.491,86.486 100.911,86.375 101.544 C 86.331 101.797,86.229 102.045,86.147 102.095 C 86.066 102.145,86.000 102.440,86.000 102.750 C 86.000 103.060,85.935 103.354,85.855 103.403 C 85.776 103.452,85.664 103.813,85.606 104.205 C 85.548 104.596,85.422 105.329,85.326 105.833 C 84.985 107.624,84.945 111.149,85.253 112.250 C 85.407 112.800,85.572 113.419,85.619 113.625 C 85.667 113.831,85.772 114.000,85.853 114.000 C 85.934 114.000,86.000 114.101,86.000 114.225 C 86.000 115.689,89.696 119.495,92.500 120.917 C 94.332 121.846,94.301 121.833,94.655 121.833 C 94.834 121.833,95.021 121.899,95.071 121.980 C 95.299 122.350,99.046 122.497,100.833 122.206 C 102.611 121.917,104.930 121.104,106.731 120.137 C 107.505 119.722,108.288 119.267,109.071 118.777 C 109.536 118.485,110.123 118.141,110.375 118.012 C 110.627 117.883,110.833 117.715,110.833 117.639 C 110.833 117.562,110.908 117.500,111.000 117.500 C 111.191 117.500,114.732 115.084,116.083 114.033 C 116.175 113.961,116.625 113.647,117.083 113.334 C 117.542 113.022,118.003 112.687,118.109 112.591 C 118.214 112.495,118.728 112.117,119.249 111.750 C 119.771 111.383,120.397 110.910,120.641 110.697 C 120.884 110.485,121.571 109.961,122.167 109.534 C 122.763 109.107,123.475 108.550,123.750 108.296 C 124.025 108.042,124.295 107.835,124.349 107.834 C 124.404 107.834,124.604 107.702,124.794 107.542 C 125.577 106.879,125.880 106.634,127.119 105.662 C 127.833 105.102,128.679 104.427,129.000 104.163 C 132.388 101.371,132.848 101.193,132.066 102.975 C 131.919 103.309,131.723 103.771,131.630 104.000 C 131.537 104.229,131.395 104.547,131.314 104.706 C 131.233 104.865,131.167 105.110,131.167 105.250 C 131.167 105.390,131.098 105.635,131.015 105.794 C 130.812 106.181,130.078 108.690,129.834 109.833 C 129.726 110.337,129.569 111.021,129.486 111.353 C 128.902 113.664,129.421 117.946,130.483 119.583 C 131.191 120.674,132.800 121.833,133.605 121.833 C 133.812 121.833,134.027 121.908,134.083 122.000 C 134.223 122.226,137.480 122.213,138.740 121.981 C 140.773 121.606,141.389 121.160,140.901 120.416 C 140.399 119.651,140.713 114.044,141.423 111.083 C 141.577 110.442,141.740 109.635,141.786 109.291 C 141.831 108.946,141.936 108.623,142.018 108.572 C 142.100 108.522,142.167 108.264,142.167 108.000 C 142.167 107.736,142.242 107.473,142.333 107.417 C 142.425 107.360,142.500 107.098,142.500 106.833 C 142.500 106.569,142.575 106.307,142.667 106.250 C 142.758 106.193,142.833 106.009,142.833 105.841 C 142.833 105.499,144.427 103.959,145.628 103.142 C 146.062 102.847,146.454 102.557,146.500 102.498 C 146.835 102.066,152.628 99.203,153.691 98.943 C 154.283 98.799,154.410 99.167,154.109 100.151 C 153.625 101.732,153.511 102.285,153.400 103.583 C 153.181 106.171,153.307 109.643,153.670 111.000 C 154.057 112.444,154.520 113.912,154.766 114.473 C 155.238 115.548,155.414 115.915,155.500 116.000 C 155.546 116.046,155.696 116.305,155.834 116.576 C 156.163 117.226,158.447 119.515,159.083 119.833 C 159.358 119.970,159.621 120.125,159.667 120.176 C 160.399 121.000,165.060 121.328,166.917 120.687 C 167.467 120.497,168.048 120.340,168.208 120.337 C 168.369 120.335,168.500 120.258,168.500 120.167 C 168.500 120.075,168.610 120.000,168.744 120.000 C 169.003 120.000,169.906 119.524,171.642 118.474 C 172.224 118.122,172.768 117.833,172.850 117.833 C 172.933 117.833,173.000 117.758,173.000 117.667 C 173.000 117.575,173.073 117.500,173.162 117.500 C 173.308 117.500,176.965 115.069,177.167 114.838 C 177.213 114.785,177.475 114.600,177.750 114.426 C 178.759 113.787,184.611 109.359,187.499 107.049 C 187.637 106.939,188.237 106.465,188.833 105.995 C 190.107 104.992,190.954 104.296,192.633 102.875 C 194.134 101.605,194.809 101.570,194.186 102.794 C 193.961 103.237,193.721 103.835,193.402 104.750 C 193.242 105.208,193.049 105.655,192.972 105.742 C 192.896 105.829,192.833 106.068,192.833 106.273 C 192.833 106.479,192.758 106.693,192.667 106.750 C 192.575 106.807,192.500 107.069,192.500 107.333 C 192.500 107.598,192.425 107.860,192.333 107.917 C 192.242 107.973,192.167 108.273,192.167 108.583 C 192.167 108.893,192.092 109.193,192.000 109.250 C 191.908 109.307,191.833 109.634,191.833 109.977 C 191.833 110.319,191.742 110.691,191.631 110.802 C 191.331 111.102,191.340 116.886,191.642 117.667 C 192.919 120.970,194.690 122.167,198.301 122.167 C 201.514 122.167,203.524 121.448,203.046 120.469 C 202.358 119.058,202.875 112.742,204.005 108.750 C 204.213 108.017,204.468 107.102,204.572 106.716 C 204.676 106.331,204.815 105.963,204.881 105.897 C 204.946 105.831,205.000 105.628,205.000 105.445 C 205.000 104.990,207.765 102.667,208.308 102.667 C 208.398 102.667,208.497 102.610,208.528 102.542 C 208.581 102.421,209.026 102.174,211.000 101.167 C 211.814 100.752,212.491 100.445,213.583 99.996 C 214.331 99.688,217.128 98.678,217.750 98.491 C 218.117 98.381,218.589 98.225,218.800 98.145 C 219.010 98.065,219.330 98.000,219.510 98.000 C 219.690 98.000,219.968 97.934,220.127 97.854 C 220.570 97.630,221.574 97.333,221.887 97.333 C 222.207 97.333,222.284 98.294,222.005 98.794 C 221.797 99.165,221.169 101.205,220.979 102.125 C 220.899 102.515,220.757 103.190,220.663 103.625 C 220.029 106.572,219.954 110.173,220.493 111.833 C 220.567 112.063,220.728 112.587,220.849 113.000 C 221.540 115.340,225.627 119.167,227.436 119.167 C 227.489 119.167,227.769 119.274,228.058 119.405 C 229.347 119.988,233.272 120.048,234.583 119.504 C 234.767 119.428,235.442 119.155,236.083 118.897 C 236.725 118.639,237.610 118.219,238.049 117.964 C 238.488 117.709,238.906 117.500,238.976 117.500 C 239.046 117.500,239.249 117.367,239.427 117.205 C 239.605 117.043,240.237 116.542,240.833 116.092 C 242.242 115.028,243.880 113.503,245.376 111.864 C 246.090 111.082,246.326 111.095,246.851 111.946 C 249.043 115.492,254.417 120.333,256.162 120.333 C 256.311 120.333,256.505 120.397,256.592 120.475 C 257.643 121.419,262.361 121.226,264.833 120.139 C 265.063 120.038,265.438 119.874,265.667 119.774 C 265.896 119.675,266.479 119.347,266.962 119.047 C 267.445 118.746,267.913 118.500,268.003 118.500 C 268.093 118.500,268.167 118.441,268.167 118.369 C 268.167 118.297,268.389 118.107,268.661 117.947 C 268.932 117.786,269.251 117.563,269.369 117.451 C 269.487 117.338,270.033 116.872,270.583 116.415 C 271.878 115.339,273.456 113.757,274.917 112.072 C 276.618 110.110,276.655 110.062,277.835 108.325 C 278.992 106.623,279.120 106.415,279.885 105.000 C 280.157 104.496,280.482 103.965,280.607 103.820 C 280.731 103.675,280.833 103.484,280.833 103.395 C 280.833 103.131,281.240 102.336,281.375 102.335 C 281.444 102.334,281.500 102.220,281.500 102.081 C 281.500 101.942,281.573 101.699,281.662 101.539 C 282.020 100.898,283.000 98.687,283.000 98.521 C 283.000 98.423,283.150 98.076,283.333 97.750 C 283.517 97.424,283.667 97.013,283.667 96.838 C 283.667 96.663,283.742 96.473,283.833 96.417 C 283.925 96.360,284.000 96.146,284.000 95.940 C 284.000 95.735,284.063 95.495,284.141 95.408 C 284.218 95.321,284.410 94.800,284.567 94.250 C 284.724 93.700,284.923 93.120,285.010 92.961 C 285.096 92.801,285.167 92.525,285.167 92.345 C 285.167 92.166,285.242 91.973,285.333 91.917 C 285.425 91.860,285.500 91.560,285.500 91.250 C 285.500 90.940,285.575 90.640,285.667 90.583 C 285.758 90.527,285.833 90.189,285.833 89.833 C 285.833 89.477,285.899 89.146,285.978 89.097 C 286.058 89.047,286.170 88.649,286.226 88.212 C 286.283 87.774,286.402 87.004,286.490 86.500 C 287.039 83.374,287.137 77.765,286.673 75.992 C 286.186 74.132,286.102 73.892,285.479 72.585 C 285.040 71.662,283.353 69.878,282.580 69.519 C 279.412 68.049,276.459 67.977,272.180 69.266 C 271.604 69.439,269.147 70.808,268.739 71.184 C 268.550 71.358,268.340 71.500,268.274 71.500 C 268.207 71.500,267.837 71.781,267.451 72.125 C 264.441 74.808,262.463 77.461,261.692 79.845 C 261.445 80.612,261.443 83.715,261.690 84.488 C 262.052 85.621,262.534 86.462,262.950 86.685 C 263.415 86.934,263.282 87.044,265.083 84.910 C 266.981 82.662,269.789 79.846,271.024 78.953 C 271.423 78.664,271.787 78.378,271.833 78.317 C 272.541 77.380,275.583 76.679,276.282 77.292 C 276.890 77.825,277.203 80.741,276.840 82.500 C 276.180 85.705,275.439 88.392,274.992 89.206 C 274.905 89.365,274.833 89.610,274.833 89.750 C 274.833 90.894,274.087 91.578,272.720 91.689 C 270.443 91.873,268.272 92.143,267.583 92.328 C 265.059 93.006,264.815 93.089,263.583 93.690 C 261.607 94.654,260.152 96.782,260.794 97.772 C 260.997 98.085,262.811 98.380,263.737 98.250 C 264.202 98.185,265.521 98.060,266.667 97.973 C 267.813 97.885,269.219 97.774,269.792 97.726 C 270.823 97.639,270.833 97.642,270.833 98.069 C 270.833 98.306,270.758 98.500,270.667 98.500 C 270.575 98.500,270.500 98.612,270.500 98.750 C 270.500 98.888,270.425 99.000,270.333 99.000 C 270.242 99.000,270.167 99.079,270.167 99.176 C 270.167 99.393,268.661 101.729,268.471 101.806 C 268.395 101.836,268.333 101.939,268.333 102.034 C 268.333 102.486,265.502 106.115,263.781 107.867 C 261.716 109.971,260.327 110.608,258.760 110.169 C 257.740 109.884,256.167 108.103,256.167 107.234 C 256.167 107.002,256.095 106.822,255.693 106.044 C 255.587 105.839,255.500 105.590,255.500 105.491 C 255.500 105.391,255.267 104.959,254.982 104.530 C 251.574 99.393,243.000 98.851,243.000 103.773 C 243.000 105.137,239.783 107.944,236.223 109.688 C 231.427 112.036,228.978 109.662,230.512 104.155 C 230.702 103.474,230.895 102.729,230.941 102.500 C 231.025 102.083,231.242 101.506,231.519 100.961 C 231.600 100.801,231.667 100.557,231.667 100.417 C 231.667 100.277,231.735 100.032,231.819 99.873 C 232.075 99.386,232.833 97.663,232.833 97.568 C 232.833 97.454,233.898 95.227,236.105 90.720 C 237.055 88.779,237.833 87.110,237.833 87.012 C 237.833 86.914,237.908 86.833,238.000 86.833 C 238.092 86.833,238.165 86.740,238.164 86.625 C 238.162 86.510,238.584 85.554,239.101 84.500 C 240.603 81.436,241.467 79.383,242.011 77.583 C 242.122 77.217,242.273 76.767,242.346 76.583 C 242.700 75.698,242.945 72.545,242.681 72.281 C 242.581 72.181,242.500 71.890,242.500 71.633 C 242.500 71.377,242.425 71.167,242.333 71.167 C 242.242 71.167,242.167 71.062,242.167 70.935 C 242.167 70.561,240.726 69.066,240.063 68.752 C 238.827 68.165,237.504 68.750,236.070 70.518 C 235.619 71.074,235.175 71.616,235.083 71.723 C 234.607 72.277,233.067 74.771,232.031 76.667 C 230.799 78.921,226.833 86.884,226.833 87.104 C 226.833 87.230,226.758 87.333,226.667 87.333 C 226.575 87.333,226.500 87.432,226.500 87.552 C 226.500 88.464,225.472 89.827,224.781 89.831 C 224.524 89.832,223.961 89.938,223.531 90.067 C 222.335 90.424,220.488 90.862,219.791 90.953 C 219.446 90.998,219.123 91.102,219.072 91.184 C 219.022 91.266,218.727 91.333,218.417 91.333 C 218.107 91.333,217.807 91.408,217.750 91.500 C 217.693 91.592,217.468 91.667,217.250 91.667 C 217.032 91.667,216.812 91.733,216.761 91.815 C 216.711 91.896,216.425 91.998,216.127 92.041 C 215.652 92.110,213.292 92.895,212.208 93.344 C 212.002 93.430,211.665 93.567,211.458 93.649 C 211.252 93.730,210.824 93.913,210.507 94.054 C 209.383 94.553,209.393 94.109,210.559 91.734 C 212.556 87.668,213.852 85.061,214.073 84.667 C 214.278 84.300,215.648 81.583,216.027 80.792 C 216.104 80.631,216.230 80.369,216.307 80.208 C 216.384 80.048,216.878 79.054,217.406 78.000 C 217.933 76.946,218.515 75.746,218.700 75.333 C 218.885 74.921,219.107 74.446,219.194 74.279 C 219.637 73.425,219.546 72.449,218.930 71.438 C 218.602 70.900,218.333 70.429,218.333 70.392 C 218.333 69.968,215.395 66.833,214.998 66.833 C 214.907 66.833,214.833 66.770,214.833 66.692 C 214.833 66.507,213.256 66.000,212.680 66.000 C 211.259 66.000,209.150 67.914,207.995 70.250 C 207.769 70.708,207.527 71.108,207.458 71.139 C 207.390 71.169,207.333 71.307,207.333 71.445 C 207.333 71.798,205.047 76.195,204.112 77.640 C 203.684 78.302,203.333 78.905,203.333 78.979 C 203.333 79.054,203.183 79.251,203.000 79.417 C 202.817 79.583,202.667 79.793,202.667 79.884 C 202.667 79.975,202.404 80.369,202.083 80.761 C 201.762 81.152,201.500 81.516,201.500 81.569 C 201.500 81.645,199.621 84.188,198.719 85.333 C 198.285 85.883,196.751 87.755,196.669 87.833 C 196.622 87.879,196.329 88.217,196.019 88.583 C 194.677 90.172,192.766 92.220,190.740 94.243 C 185.809 99.166,185.324 99.458,186.144 97.011 C 186.315 96.501,186.549 95.746,186.664 95.333 C 186.778 94.921,186.947 94.358,187.038 94.083 C 188.437 89.861,188.886 81.269,187.839 78.750 C 187.763 78.567,187.603 78.154,187.485 77.833 C 186.758 75.865,184.784 74.023,182.917 73.572 C 182.006 73.351,178.283 73.301,177.583 73.500 C 175.397 74.121,175.634 74.033,173.750 74.920 C 170.361 76.514,166.065 80.027,162.746 83.917 C 162.198 84.558,161.694 85.108,161.625 85.139 C 161.556 85.169,161.500 85.263,161.500 85.347 C 161.500 85.520,159.984 87.553,159.792 87.639 C 159.723 87.669,159.667 87.761,159.667 87.842 C 159.667 88.498,157.455 91.333,156.943 91.333 C 156.757 91.333,156.188 91.471,155.678 91.640 C 155.167 91.809,154.075 92.161,153.250 92.421 C 152.425 92.682,151.679 92.957,151.592 93.031 C 151.505 93.106,151.297 93.167,151.131 93.167 C 150.965 93.167,150.699 93.233,150.539 93.314 C 150.380 93.395,150.063 93.538,149.833 93.632 C 149.604 93.726,149.062 93.966,148.630 94.164 C 147.329 94.761,147.198 94.413,148.083 92.715 C 148.404 92.100,148.667 91.500,148.667 91.382 C 148.667 91.263,148.742 91.167,148.833 91.167 C 148.925 91.167,149.000 91.061,149.000 90.932 C 149.000 90.804,149.147 90.410,149.327 90.057 C 149.506 89.705,150.059 88.592,150.555 87.583 C 152.588 83.447,155.258 78.246,155.375 78.194 C 155.444 78.164,155.500 77.995,155.500 77.819 C 155.500 77.644,155.575 77.500,155.667 77.500 C 155.758 77.500,155.832 77.406,155.831 77.292 C 155.829 77.177,156.011 76.708,156.234 76.250 C 157.536 73.580,157.702 72.947,157.297 72.208 C 156.140 70.097,155.364 69.009,154.176 67.833 C 152.792 66.464,151.004 65.722,150.000 66.102 M381.417 68.222 C 379.847 68.974,378.759 70.493,377.041 74.333 C 375.918 76.845,373.001 82.546,372.792 82.639 C 372.723 82.669,372.665 82.819,372.663 82.972 C 372.661 83.125,372.513 83.438,372.333 83.667 C 372.154 83.896,372.006 84.167,372.004 84.269 C 372.002 84.371,371.859 84.634,371.687 84.853 C 371.516 85.071,371.116 85.737,370.799 86.333 C 370.483 86.929,369.790 88.129,369.260 89.000 C 368.730 89.871,368.157 90.825,367.987 91.120 C 367.453 92.047,366.755 93.081,366.625 93.139 C 366.556 93.169,366.500 93.269,366.500 93.360 C 366.500 93.522,363.292 98.312,362.597 99.187 C 362.406 99.428,362.100 99.833,361.917 100.087 C 359.543 103.377,357.179 105.866,354.798 107.579 C 354.221 107.994,353.659 108.408,353.549 108.500 C 353.438 108.592,353.272 108.667,353.179 108.667 C 353.086 108.667,352.761 108.807,352.456 108.978 C 352.152 109.149,351.643 109.331,351.326 109.383 C 351.009 109.434,350.537 109.529,350.278 109.594 C 349.545 109.776,347.790 109.175,346.982 108.465 C 346.212 107.788,344.667 105.128,344.667 104.479 C 344.667 104.318,344.600 104.145,344.519 104.095 C 344.438 104.045,344.329 103.797,344.277 103.544 C 344.224 103.291,344.108 102.746,344.018 102.333 C 343.928 101.921,343.733 101.021,343.584 100.333 C 343.434 99.646,343.241 98.633,343.155 98.083 C 343.068 97.533,342.925 96.708,342.838 96.250 C 342.751 95.792,342.630 95.154,342.569 94.833 C 342.150 92.625,337.627 94.353,336.152 97.285 C 335.931 97.724,335.705 98.121,335.650 98.167 C 335.595 98.212,335.498 98.475,335.434 98.750 C 335.370 99.025,335.235 99.550,335.133 99.917 C 335.030 100.283,334.919 101.783,334.886 103.250 L 334.824 105.917 333.954 106.726 C 330.831 109.628,327.284 111.107,325.816 110.119 L 325.250 109.738 325.199 107.994 C 325.152 106.378,325.296 105.371,325.683 104.627 C 325.766 104.468,325.833 104.225,325.833 104.087 C 325.833 103.835,326.560 101.830,326.846 101.294 C 326.931 101.135,327.000 100.891,327.000 100.752 C 327.000 100.614,327.075 100.500,327.167 100.500 C 327.258 100.500,327.333 100.375,327.333 100.223 C 327.333 100.071,327.750 99.077,328.259 98.015 C 328.768 96.953,329.274 95.896,329.383 95.667 C 329.493 95.438,329.620 95.212,329.666 95.167 C 329.712 95.121,329.991 94.596,330.285 94.000 C 331.033 92.486,331.727 91.260,331.875 91.194 C 331.944 91.164,332.000 91.076,332.000 91.000 C 332.000 90.923,332.337 90.290,332.750 89.592 C 333.162 88.895,333.500 88.257,333.500 88.176 C 333.500 88.094,333.563 88.003,333.641 87.972 C 333.823 87.900,335.917 83.712,336.044 83.167 C 336.097 82.938,336.261 82.266,336.409 81.675 C 336.834 79.977,336.358 78.870,334.267 76.698 C 332.336 74.691,331.322 74.287,330.304 75.121 C 329.329 75.919,326.846 78.907,326.838 79.292 C 326.835 79.406,326.777 79.500,326.708 79.500 C 326.640 79.500,326.362 79.857,326.091 80.292 C 325.819 80.727,325.547 81.121,325.486 81.167 C 325.274 81.325,320.839 88.022,320.567 88.594 C 320.418 88.909,320.229 89.167,320.148 89.167 C 320.066 89.167,320.000 89.243,320.000 89.337 C 320.000 89.488,319.221 90.785,319.001 91.000 C 318.954 91.046,318.810 91.290,318.680 91.542 C 318.550 91.794,318.381 92.000,318.305 92.000 C 318.229 92.000,318.167 92.077,318.167 92.172 C 318.167 92.266,317.679 93.094,317.083 94.012 C 316.487 94.931,316.000 95.747,316.000 95.827 C 316.000 95.907,315.943 95.997,315.873 96.028 C 315.803 96.058,315.447 96.551,315.081 97.124 C 314.716 97.696,314.360 98.164,314.292 98.165 C 314.223 98.166,314.167 98.250,314.167 98.351 C 314.167 98.563,312.004 101.722,311.801 101.806 C 311.727 101.836,311.665 101.949,311.664 102.056 C 311.662 102.162,311.481 102.475,311.263 102.750 C 311.044 103.025,310.118 104.188,309.205 105.333 C 306.861 108.277,304.024 110.833,303.101 110.833 C 302.965 110.833,302.807 110.908,302.750 111.000 C 302.553 111.318,301.091 111.181,300.240 110.764 C 296.800 109.081,296.113 104.601,298.191 97.417 C 298.376 96.775,298.597 96.120,298.681 95.961 C 298.765 95.801,298.833 95.557,298.833 95.417 C 298.833 95.277,298.905 95.032,298.992 94.873 C 299.079 94.714,299.315 94.096,299.516 93.500 C 299.717 92.904,300.066 92.004,300.291 91.500 C 300.711 90.562,300.947 90.005,301.173 89.417 C 301.243 89.233,301.571 88.503,301.901 87.794 C 302.230 87.084,302.500 86.428,302.500 86.335 C 302.500 86.243,302.575 86.167,302.667 86.167 C 302.758 86.167,302.833 86.056,302.833 85.921 C 302.833 85.659,307.076 77.253,307.336 77.000 C 308.418 75.946,308.480 73.725,307.458 72.594 C 307.298 72.416,307.167 72.218,307.167 72.154 C 307.167 71.978,304.998 70.270,304.333 69.924 C 303.286 69.377,303.175 69.333,302.834 69.333 C 301.959 69.333,299.333 71.349,299.333 72.020 C 299.333 72.087,298.833 72.953,298.221 73.945 C 297.610 74.938,297.028 75.918,296.930 76.124 C 296.831 76.329,296.694 76.498,296.625 76.499 C 296.556 76.499,296.500 76.565,296.500 76.645 C 296.500 76.725,296.105 77.494,295.622 78.354 C 294.783 79.847,292.868 83.673,292.254 85.083 C 292.094 85.450,291.859 85.968,291.732 86.234 C 291.604 86.500,291.500 86.779,291.500 86.854 C 291.500 86.986,290.799 88.611,290.486 89.206 C 290.402 89.365,290.333 89.631,290.333 89.798 C 290.333 89.964,290.271 90.171,290.196 90.258 C 290.120 90.345,289.957 90.754,289.835 91.167 C 289.712 91.579,289.361 92.681,289.056 93.616 C 288.750 94.551,288.500 95.465,288.500 95.648 C 288.500 95.831,288.425 96.027,288.333 96.083 C 288.242 96.140,288.167 96.467,288.167 96.810 C 288.167 97.153,288.099 97.505,288.016 97.592 C 287.933 97.679,287.823 98.087,287.771 98.500 C 287.719 98.912,287.595 99.775,287.495 100.417 C 287.030 103.411,287.139 109.181,287.680 110.206 C 287.765 110.365,287.833 110.648,287.833 110.833 C 287.833 111.019,287.902 111.301,287.986 111.461 C 288.070 111.620,288.267 112.050,288.425 112.417 C 291.678 120.001,298.469 123.464,304.250 120.488 C 305.535 119.826,305.862 119.620,306.409 119.126 C 306.688 118.874,306.968 118.668,307.030 118.667 C 307.092 118.667,307.242 118.573,307.364 118.458 C 307.486 118.344,308.003 117.899,308.514 117.470 C 310.192 116.060,314.020 112.059,314.868 110.829 C 315.506 109.903,316.640 108.787,316.858 108.871 C 316.992 108.922,317.178 109.469,317.306 110.188 C 317.511 111.333,317.630 111.802,318.040 113.083 C 319.391 117.301,322.431 119.461,326.778 119.293 C 329.019 119.206,332.181 118.280,332.472 117.625 C 332.503 117.556,332.615 117.499,332.722 117.498 C 333.003 117.495,334.047 116.623,335.658 115.045 C 337.249 113.487,337.376 113.439,337.762 114.251 C 338.089 114.942,340.468 117.500,340.782 117.500 C 340.902 117.500,341.000 117.561,341.000 117.636 C 341.000 117.840,343.349 118.961,344.451 119.283 C 345.589 119.615,348.822 119.765,349.667 119.525 C 353.470 118.442,354.777 117.887,356.750 116.517 C 359.731 114.447,363.145 110.745,363.885 108.779 C 364.160 108.048,364.580 108.554,364.692 109.752 C 364.836 111.287,365.896 114.273,366.368 114.472 C 366.441 114.503,366.500 114.604,366.500 114.698 C 366.500 115.539,371.196 119.667,372.153 119.667 C 372.255 119.667,372.468 119.733,372.627 119.814 C 373.232 120.122,373.767 120.314,374.250 120.396 C 374.525 120.443,375.425 120.596,376.250 120.735 C 378.152 121.056,380.495 121.058,382.417 120.740 C 383.242 120.603,384.237 120.446,384.629 120.390 C 385.021 120.335,385.381 120.224,385.430 120.145 C 385.479 120.065,385.698 120.000,385.917 120.000 C 386.135 120.000,386.360 119.925,386.417 119.833 C 386.473 119.742,386.661 119.667,386.833 119.667 C 387.005 119.667,387.657 119.405,388.282 119.084 C 388.906 118.764,389.510 118.501,389.625 118.501 C 389.740 118.500,389.833 118.425,389.833 118.333 C 389.833 118.242,389.914 118.167,390.013 118.167 C 390.852 118.167,394.386 115.117,396.390 112.662 C 399.046 109.409,399.184 105.884,396.749 103.449 C 395.996 102.696,394.333 102.550,394.333 103.236 C 394.333 103.347,394.197 103.583,394.031 103.762 C 393.864 103.941,393.658 104.207,393.572 104.353 C 391.409 108.045,386.253 111.392,382.750 111.378 C 380.187 111.368,377.167 109.312,377.167 107.578 C 377.167 107.441,377.098 107.199,377.015 107.039 C 376.412 105.892,376.414 100.392,377.016 99.758 C 377.099 99.671,377.167 99.389,377.167 99.131 C 377.167 98.873,377.234 98.532,377.317 98.373 C 377.400 98.214,377.565 97.746,377.683 97.333 C 377.886 96.631,378.806 94.440,379.170 93.794 C 379.260 93.635,379.333 93.391,379.333 93.252 C 379.333 93.114,379.408 93.000,379.500 93.000 C 379.592 93.000,379.667 92.889,379.667 92.752 C 379.667 92.515,380.922 89.796,382.095 87.491 C 383.242 85.237,387.717 76.224,388.007 75.583 C 388.440 74.626,388.536 73.822,388.275 73.333 C 387.694 72.246,387.300 71.617,386.997 71.292 C 386.815 71.097,386.667 70.876,386.667 70.801 C 386.667 70.515,384.637 68.682,383.955 68.352 C 382.816 67.800,382.348 67.776,381.417 68.222 M179.161 81.612 C 179.335 81.771,179.204 87.030,179.021 87.212 C 178.918 87.316,178.833 87.644,178.833 87.942 C 178.833 88.240,178.765 88.657,178.682 88.867 C 178.598 89.078,178.401 89.700,178.242 90.250 C 178.084 90.800,177.815 91.545,177.644 91.906 C 177.473 92.267,177.333 92.662,177.333 92.784 C 177.333 92.905,177.267 93.135,177.186 93.294 C 177.105 93.453,176.966 93.771,176.877 94.000 C 176.516 94.932,174.071 99.810,173.554 100.628 C 173.249 101.111,173.000 101.580,173.000 101.670 C 173.000 101.760,172.925 101.833,172.833 101.833 C 172.742 101.833,172.667 101.909,172.667 102.002 C 172.667 102.152,171.393 104.175,170.887 104.830 C 170.779 104.969,170.294 105.608,169.809 106.250 C 168.321 108.219,166.124 110.495,165.708 110.498 C 165.594 110.499,165.500 110.566,165.500 110.646 C 165.500 111.366,162.735 111.414,161.858 110.709 C 160.374 109.515,159.886 105.328,160.834 101.917 C 161.038 101.183,161.243 100.376,161.288 100.123 C 161.334 99.870,161.438 99.622,161.519 99.571 C 161.600 99.521,161.667 99.302,161.667 99.083 C 161.667 98.865,161.742 98.640,161.833 98.583 C 161.925 98.527,162.000 98.334,162.000 98.155 C 162.000 97.975,162.065 97.699,162.145 97.539 C 162.225 97.380,162.654 96.500,163.097 95.583 C 164.819 92.027,167.586 88.436,170.417 86.081 C 170.967 85.624,171.442 85.194,171.472 85.125 C 171.503 85.056,171.620 85.000,171.732 85.000 C 171.845 85.000,172.083 84.869,172.260 84.708 C 172.731 84.283,174.300 83.297,175.167 82.883 C 178.358 81.354,178.744 81.232,179.161 81.612 M106.833 99.752 C 107.154 99.821,107.616 100.018,107.859 100.189 C 108.102 100.360,108.371 100.500,108.457 100.500 C 108.688 100.500,109.500 101.461,109.500 101.735 C 109.500 101.865,109.591 102.002,109.701 102.039 C 110.251 102.223,109.839 105.497,109.136 106.526 C 108.969 106.769,108.833 107.016,108.833 107.075 C 108.833 108.263,103.043 113.352,101.708 113.336 C 101.594 113.334,101.500 113.408,101.500 113.500 C 101.500 113.592,101.317 113.667,101.093 113.667 C 100.869 113.667,100.647 113.730,100.600 113.807 C 100.397 114.135,97.973 114.541,96.670 114.466 C 93.974 114.310,92.927 112.409,93.751 109.167 C 93.902 108.571,94.064 107.896,94.109 107.667 C 94.192 107.251,94.407 106.675,94.686 106.127 C 94.767 105.968,94.833 105.726,94.833 105.590 C 94.833 105.374,95.263 104.354,96.099 102.583 C 96.370 102.009,96.545 101.899,99.706 100.312 C 99.865 100.232,100.142 100.167,100.321 100.167 C 100.500 100.167,100.693 100.092,100.750 100.000 C 100.807 99.908,101.130 99.832,101.468 99.831 C 101.807 99.829,102.196 99.753,102.333 99.661 C 102.606 99.479,105.870 99.545,106.833 99.752 " stroke="none" fill="#040404" fill-rule="evenodd"></path></g></svg>