<svg id="svg" version="1.1" xmlns="http://www.w3.org/2000/svg" xmlns:xlink="http://www.w3.org/1999/xlink" width="400" height="664.6616541353384" viewBox="0, 0, 400,664.6616541353384"><g id="svgg"><path id="path0" d="M192.600 12.424 C 187.063 12.559,182.407 12.854,181.600 13.122 C 179.449 13.834,174.297 14.771,169.072 15.400 C 165.868 15.786,163.935 16.222,163.072 16.755 C 162.373 17.187,160.090 17.830,158.000 18.183 C 155.782 18.558,153.415 19.243,152.314 19.830 C 151.276 20.383,149.296 21.029,147.914 21.266 C 146.531 21.502,144.860 22.089,144.200 22.570 C 143.540 23.050,141.855 23.755,140.455 24.136 C 139.055 24.517,137.345 25.250,136.655 25.765 C 135.965 26.280,134.680 26.930,133.800 27.209 C 132.226 27.709,126.357 30.702,124.400 32.003 C 123.850 32.368,122.590 32.982,121.600 33.366 C 120.610 33.750,119.438 34.401,118.995 34.813 C 118.552 35.225,117.534 35.835,116.734 36.170 C 115.934 36.504,115.037 37.019,114.740 37.314 C 114.443 37.610,113.120 38.539,111.800 39.379 C 110.480 40.219,109.310 41.036,109.200 41.193 C 109.090 41.351,108.280 41.958,107.400 42.542 C 106.520 43.126,105.050 44.188,104.134 44.902 C 103.217 45.616,101.147 47.220,99.534 48.468 C 97.920 49.715,95.070 52.188,93.200 53.963 C 91.330 55.738,89.676 57.192,89.525 57.195 C 89.132 57.202,84.400 61.826,84.400 62.202 C 84.400 62.523,82.687 64.465,78.123 69.316 C 76.718 70.809,75.358 72.494,75.100 73.060 C 74.842 73.626,74.084 74.685,73.416 75.414 C 71.614 77.377,69.903 79.531,69.000 80.970 C 66.663 84.697,65.573 86.318,64.662 87.424 C 64.108 88.097,63.346 89.447,62.969 90.424 C 62.592 91.401,61.859 92.612,61.342 93.116 C 60.824 93.620,60.400 94.261,60.400 94.540 C 60.400 94.819,59.802 96.040,59.072 97.253 C 58.341 98.466,57.429 100.256,57.045 101.229 C 56.662 102.203,55.941 103.630,55.445 104.400 C 54.948 105.170,54.223 106.790,53.835 108.000 C 53.446 109.210,52.878 110.480,52.573 110.822 C 52.268 111.164,51.563 112.836,51.008 114.537 C 50.452 116.239,49.740 118.029,49.426 118.516 C 49.111 119.002,48.572 120.621,48.229 122.114 C 47.886 123.607,47.248 125.567,46.812 126.470 C 46.376 127.372,45.645 129.888,45.188 132.059 C 44.730 134.231,44.076 136.678,43.734 137.497 C 43.391 138.316,42.689 141.959,42.173 145.593 C 41.657 149.227,40.927 153.640,40.551 155.400 C 39.046 162.442,39.347 188.854,41.016 196.200 C 41.316 197.520,41.838 200.869,42.178 203.641 C 42.517 206.414,43.073 209.473,43.414 210.439 C 43.754 211.404,44.466 214.112,44.995 216.456 C 45.524 218.800,46.317 221.501,46.757 222.459 C 47.198 223.416,47.851 225.357,48.208 226.771 C 48.566 228.186,49.273 230.166,49.778 231.171 C 50.284 232.177,51.005 234.080,51.380 235.400 C 51.755 236.720,52.308 238.182,52.608 238.650 C 52.908 239.117,53.613 240.633,54.176 242.018 C 54.739 243.403,55.465 244.830,55.789 245.188 C 56.114 245.546,56.643 246.588,56.965 247.502 C 57.556 249.175,60.108 253.744,61.489 255.600 C 61.898 256.150,62.574 257.410,62.990 258.400 C 63.407 259.390,64.062 260.560,64.445 261.000 C 64.829 261.440,66.340 263.593,67.803 265.785 C 69.267 267.976,70.810 270.012,71.232 270.307 C 71.654 270.603,72.000 271.112,72.000 271.439 C 72.000 271.765,72.675 272.737,73.500 273.598 C 75.281 275.458,77.243 277.835,77.800 278.808 C 78.264 279.617,84.541 286.502,85.957 287.754 C 86.484 288.219,87.114 288.846,87.357 289.146 C 87.601 289.447,88.324 290.167,88.964 290.746 C 89.604 291.326,92.124 293.662,94.564 295.937 C 97.004 298.212,99.663 300.415,100.474 300.832 C 101.284 301.248,102.220 301.979,102.553 302.455 C 102.886 302.930,103.782 303.698,104.543 304.160 C 105.304 304.622,107.282 306.028,108.938 307.284 C 110.594 308.540,112.545 309.826,113.274 310.141 C 114.003 310.457,114.960 311.009,115.400 311.370 C 116.688 312.425,120.423 314.793,122.800 316.062 C 124.010 316.708,125.450 317.495,126.000 317.809 C 127.486 318.660,132.710 321.055,135.037 321.953 C 136.158 322.385,137.726 323.181,138.524 323.722 C 139.321 324.263,140.644 324.832,141.464 324.986 C 142.285 325.140,143.795 325.691,144.822 326.211 C 145.848 326.731,147.887 327.435,149.352 327.774 C 150.818 328.114,152.688 328.730,153.509 329.143 C 154.329 329.555,156.440 330.196,158.200 330.567 C 159.960 330.938,162.750 331.664,164.400 332.179 C 166.050 332.695,169.830 333.424,172.800 333.800 C 175.770 334.175,179.910 334.859,182.000 335.320 C 185.292 336.045,187.459 336.177,198.218 336.308 C 211.163 336.465,212.955 336.332,226.400 334.206 C 228.490 333.876,230.756 333.604,231.435 333.603 C 232.114 333.601,234.454 333.058,236.635 332.395 C 238.816 331.733,241.904 331.003,243.498 330.774 C 245.091 330.545,247.405 329.912,248.638 329.366 C 249.872 328.821,251.808 328.177,252.941 327.935 C 254.073 327.694,255.845 327.056,256.878 326.518 C 257.911 325.980,259.685 325.294,260.820 324.995 C 261.956 324.695,263.541 324.007,264.342 323.464 C 265.144 322.922,266.876 322.174,268.191 321.802 C 269.506 321.429,271.047 320.794,271.614 320.390 C 272.182 319.986,273.446 319.346,274.423 318.967 C 275.400 318.589,276.740 317.883,277.400 317.400 C 278.060 316.916,279.432 316.153,280.448 315.705 C 281.465 315.257,282.420 314.691,282.571 314.447 C 282.722 314.202,283.870 313.535,285.123 312.964 C 286.375 312.392,287.545 311.670,287.722 311.359 C 287.899 311.047,288.709 310.515,289.522 310.176 C 290.335 309.837,291.540 309.049,292.200 308.425 C 292.860 307.800,293.953 307.011,294.629 306.671 C 295.305 306.331,296.101 305.760,296.397 305.403 C 296.694 305.046,297.491 304.522,298.168 304.238 C 298.846 303.955,300.054 303.110,300.854 302.361 C 301.654 301.613,303.274 300.280,304.454 299.400 C 307.830 296.883,326.948 277.598,327.728 275.923 C 328.106 275.110,328.930 274.030,329.558 273.523 C 330.187 273.015,330.919 272.178,331.185 271.661 C 331.452 271.145,332.813 269.242,334.210 267.432 C 335.607 265.622,337.051 263.389,337.419 262.470 C 337.786 261.552,338.234 260.800,338.414 260.800 C 339.199 260.800,347.702 245.153,349.163 241.022 C 349.556 239.910,350.334 238.331,350.892 237.514 C 351.450 236.696,352.032 235.356,352.186 234.536 C 352.340 233.715,352.876 232.224,353.378 231.222 C 353.880 230.220,354.517 228.410,354.793 227.200 C 355.069 225.990,355.793 223.830,356.402 222.400 C 357.011 220.970,357.810 218.124,358.179 216.075 C 358.548 214.026,359.203 211.242,359.636 209.887 C 360.069 208.533,360.771 204.719,361.196 201.412 C 361.622 198.105,362.290 193.510,362.682 191.200 C 363.803 184.588,363.687 165.960,362.472 157.600 C 361.977 154.190,361.309 149.311,360.988 146.759 C 360.667 144.206,360.033 140.966,359.579 139.559 C 359.126 138.151,358.408 135.328,357.983 133.285 C 357.559 131.241,357.029 129.227,356.805 128.809 C 356.581 128.390,355.972 126.458,355.452 124.516 C 354.932 122.574,354.041 120.065,353.472 118.942 C 352.902 117.818,352.226 116.021,351.970 114.949 C 351.713 113.877,351.089 112.370,350.584 111.600 C 350.078 110.830,349.403 109.300,349.083 108.200 C 348.763 107.100,347.964 105.209,347.309 103.999 C 346.653 102.788,345.980 101.348,345.813 100.799 C 345.647 100.249,345.104 99.350,344.608 98.800 C 344.111 98.250,343.388 96.948,343.000 95.906 C 342.613 94.864,342.030 93.791,341.706 93.522 C 341.381 93.252,340.675 92.035,340.136 90.816 C 339.597 89.597,338.733 88.150,338.215 87.600 C 337.698 87.050,336.984 85.970,336.629 85.200 C 335.863 83.539,333.896 80.689,332.135 78.689 C 331.440 77.899,330.763 76.913,330.631 76.499 C 330.500 76.084,329.854 75.347,329.196 74.860 C 328.538 74.374,328.000 73.777,328.000 73.533 C 328.000 73.289,327.325 72.318,326.500 71.376 C 325.675 70.433,324.190 68.730,323.200 67.590 C 317.933 61.530,306.966 51.016,302.000 47.268 C 300.130 45.856,298.060 44.203,297.400 43.595 C 296.740 42.987,295.615 42.195,294.900 41.835 C 294.185 41.474,293.600 41.035,293.600 40.858 C 293.600 40.681,292.710 40.120,291.621 39.610 C 290.533 39.100,289.266 38.250,288.806 37.721 C 288.346 37.191,287.208 36.432,286.279 36.034 C 285.349 35.635,284.344 35.015,284.045 34.655 C 283.747 34.295,283.275 34.000,282.997 34.000 C 282.719 34.000,281.413 33.280,280.094 32.399 C 278.776 31.519,276.944 30.533,276.022 30.208 C 275.101 29.883,273.848 29.261,273.238 28.827 C 272.627 28.392,271.134 27.665,269.918 27.210 C 268.703 26.755,267.403 26.046,267.030 25.633 C 266.657 25.221,265.546 24.763,264.561 24.615 C 262.489 24.304,260.096 23.383,259.127 22.523 C 258.757 22.194,256.874 21.573,254.942 21.143 C 253.010 20.712,250.883 20.027,250.215 19.619 C 249.547 19.212,247.470 18.574,245.600 18.202 C 243.730 17.831,241.390 17.172,240.400 16.738 C 239.348 16.278,236.107 15.629,232.600 15.177 C 229.300 14.751,225.340 14.030,223.800 13.575 C 219.968 12.442,208.788 12.030,192.600 12.424 M208.600 95.560 C 210.580 95.766,214.220 96.132,216.688 96.373 C 219.854 96.683,221.578 97.050,222.541 97.618 C 223.291 98.061,225.184 98.690,226.746 99.016 C 228.309 99.341,230.730 100.236,232.127 101.004 C 233.524 101.772,235.133 102.400,235.703 102.400 C 236.272 102.400,237.247 102.825,237.869 103.344 C 239.245 104.492,241.348 105.600,242.153 105.600 C 242.479 105.600,243.121 106.127,243.579 106.771 C 244.038 107.415,245.056 108.155,245.842 108.414 C 247.262 108.882,255.695 115.679,258.347 118.492 C 261.829 122.185,263.503 124.284,266.571 128.800 C 267.841 130.670,269.200 132.560,269.591 133.000 C 269.982 133.440,270.508 134.447,270.762 135.239 C 271.015 136.030,271.736 137.489,272.366 138.481 C 272.995 139.474,273.638 140.716,273.794 141.243 C 273.951 141.769,274.676 143.640,275.407 145.400 C 276.138 147.160,276.934 149.574,277.177 150.764 C 277.420 151.954,277.976 153.735,278.412 154.721 C 279.180 156.455,279.451 158.338,280.413 168.600 C 281.115 176.090,279.788 191.728,278.189 194.821 C 277.859 195.458,277.216 197.555,276.759 199.479 C 276.302 201.403,275.576 203.472,275.146 204.075 C 274.717 204.679,274.090 206.098,273.754 207.228 C 273.419 208.359,272.617 210.012,271.972 210.902 C 271.327 211.792,270.800 212.726,270.800 212.979 C 270.800 213.864,264.193 223.600,263.592 223.600 C 263.418 223.600,262.792 224.426,262.200 225.436 C 260.862 227.719,255.495 233.078,251.621 236.000 C 250.017 237.210,247.989 238.785,247.114 239.500 C 246.240 240.215,245.299 240.800,245.024 240.800 C 244.749 240.800,244.209 241.148,243.823 241.574 C 243.438 242.000,242.285 242.736,241.261 243.211 C 240.238 243.685,238.590 244.576,237.600 245.191 C 236.610 245.806,235.080 246.531,234.200 246.804 C 233.320 247.076,231.662 247.722,230.515 248.238 C 229.368 248.754,227.210 249.459,225.720 249.804 C 224.229 250.150,222.648 250.668,222.205 250.955 C 220.273 252.210,204.934 253.807,198.600 253.413 C 189.466 252.845,182.374 251.851,180.978 250.944 C 180.525 250.650,178.398 249.974,176.251 249.443 C 174.103 248.911,172.043 248.212,171.673 247.889 C 171.303 247.567,170.031 246.987,168.846 246.601 C 167.661 246.216,165.861 245.405,164.846 244.800 C 162.287 243.276,159.396 241.584,157.328 240.400 C 156.366 239.850,154.706 238.643,153.637 237.718 C 152.568 236.793,150.902 235.502,149.935 234.849 C 148.014 233.553,142.173 227.767,140.714 225.716 C 140.211 225.009,138.956 223.357,137.925 222.044 C 136.894 220.731,135.775 219.125,135.439 218.476 C 135.104 217.827,134.370 216.751,133.810 216.084 C 133.249 215.418,132.526 214.125,132.204 213.210 C 131.881 212.295,131.249 211.031,130.800 210.400 C 130.351 209.769,129.710 208.476,129.375 207.526 C 129.041 206.577,128.337 205.170,127.811 204.400 C 127.286 203.630,126.739 202.280,126.597 201.400 C 126.455 200.520,125.738 198.000,125.003 195.800 C 121.703 185.918,121.591 163.757,124.790 153.800 C 125.215 152.480,125.856 150.230,126.217 148.800 C 126.577 147.370,127.023 146.017,127.207 145.794 C 127.392 145.570,128.181 143.805,128.960 141.871 C 129.740 139.937,130.718 137.870,131.133 137.277 C 131.549 136.685,132.108 135.526,132.375 134.701 C 132.642 133.877,133.187 132.974,133.586 132.695 C 133.984 132.416,134.846 131.279,135.500 130.169 C 136.842 127.894,138.958 125.042,140.301 123.699 C 140.796 123.204,141.200 122.653,141.200 122.474 C 141.200 122.294,142.919 120.449,145.019 118.374 C 150.822 112.640,151.977 111.600,152.539 111.600 C 152.824 111.600,153.763 110.996,154.628 110.259 C 155.493 109.521,156.775 108.622,157.478 108.260 C 158.182 107.898,159.243 107.151,159.837 106.601 C 160.431 106.050,161.206 105.594,161.558 105.587 C 161.911 105.579,162.920 105.042,163.800 104.394 C 165.841 102.888,166.659 102.506,168.458 102.215 C 169.260 102.086,170.578 101.453,171.388 100.810 C 172.315 100.073,173.552 99.545,174.730 99.382 C 175.758 99.240,177.727 98.685,179.103 98.148 C 182.453 96.842,186.204 96.255,196.763 95.385 C 197.953 95.287,199.033 95.096,199.163 94.962 C 199.403 94.713,202.075 94.882,208.600 95.560 M38.400 336.139 C 35.832 336.872,32.897 338.015,31.756 338.726 C 30.631 339.427,29.598 340.000,29.460 340.000 C 28.983 340.000,24.595 343.543,23.000 345.216 C 18.933 349.482,18.123 350.405,17.007 352.039 C 16.351 353.000,15.521 354.651,15.164 355.707 C 14.806 356.763,14.116 358.050,13.631 358.567 C 13.146 359.084,12.477 360.546,12.145 361.816 C 11.814 363.086,11.060 365.042,10.471 366.162 C 9.422 368.159,9.400 368.349,9.400 375.600 L 9.400 383.000 10.900 386.250 C 11.725 388.038,12.400 389.826,12.400 390.225 C 12.400 390.623,12.747 391.320,13.170 391.774 C 13.594 392.228,14.412 393.543,14.989 394.696 C 15.566 395.849,16.388 396.979,16.815 397.208 C 17.242 397.437,17.873 398.168,18.217 398.832 C 19.052 400.448,25.223 406.630,28.124 408.757 C 29.403 409.694,30.549 410.724,30.673 411.045 C 30.796 411.367,31.460 411.919,32.148 412.272 C 32.837 412.626,34.684 413.954,36.254 415.224 C 37.824 416.493,39.624 417.799,40.255 418.125 C 40.886 418.451,41.759 419.112,42.195 419.594 C 43.013 420.499,47.806 423.827,54.731 428.300 C 56.178 429.235,57.655 430.000,58.012 430.000 C 58.368 430.000,59.097 430.473,59.630 431.051 C 60.164 431.629,61.680 432.623,63.000 433.259 C 64.320 433.896,65.850 434.675,66.400 434.991 C 66.950 435.307,68.390 436.026,69.600 436.588 C 70.810 437.150,72.250 437.856,72.800 438.156 C 75.044 439.379,80.666 441.968,81.600 442.207 C 82.150 442.349,83.860 443.061,85.400 443.791 C 86.940 444.520,88.920 445.239,89.800 445.387 C 90.680 445.535,92.030 446.077,92.800 446.593 C 93.570 447.108,95.280 447.742,96.600 448.000 C 97.920 448.258,99.990 448.931,101.200 449.495 C 102.410 450.059,104.874 450.843,106.676 451.238 C 108.478 451.632,110.477 452.226,111.119 452.558 C 111.761 452.890,114.157 453.530,116.443 453.980 C 118.729 454.431,121.500 455.150,122.600 455.579 C 123.700 456.008,127.102 456.729,130.160 457.180 C 133.217 457.632,136.277 458.283,136.960 458.628 C 137.642 458.973,139.820 459.426,141.800 459.635 C 150.300 460.530,152.373 460.825,155.400 461.565 C 157.160 461.995,160.542 462.523,162.916 462.738 C 168.670 463.259,169.718 464.154,167.000 466.227 C 166.230 466.814,165.600 467.562,165.600 467.888 C 165.600 468.215,139.995 494.104,108.700 525.419 C 77.405 556.735,50.720 583.563,49.400 585.036 C 45.970 588.866,43.859 592.144,42.101 596.369 C 41.605 597.562,40.946 598.822,40.637 599.169 C 38.947 601.066,38.503 615.282,40.003 619.453 C 40.467 620.744,41.269 623.096,41.786 624.679 C 42.303 626.263,43.372 628.606,44.163 629.887 C 44.953 631.168,45.600 632.366,45.600 632.549 C 45.600 634.118,55.815 643.798,60.200 646.385 C 61.080 646.905,62.160 647.645,62.600 648.030 C 63.040 648.416,64.453 649.035,65.740 649.406 C 67.028 649.777,68.918 650.502,69.940 651.018 C 74.333 653.235,88.057 653.032,92.101 650.692 C 93.035 650.151,94.520 649.478,95.400 649.196 C 96.280 648.914,97.455 648.305,98.012 647.842 C 98.569 647.379,99.784 646.658,100.712 646.239 C 101.640 645.821,102.400 645.327,102.400 645.142 C 102.400 644.957,103.165 644.252,104.100 643.575 C 105.584 642.502,116.951 631.367,145.522 603.000 C 160.206 588.421,183.600 564.685,183.600 564.366 C 183.600 563.985,194.164 553.474,196.081 551.946 C 198.835 549.753,201.274 549.204,204.578 550.036 C 206.249 550.457,220.000 563.240,220.000 564.373 C 220.000 564.578,220.341 564.854,220.758 564.987 C 221.174 565.119,221.939 565.850,222.458 566.611 C 222.976 567.372,223.623 567.996,223.896 567.997 C 224.169 567.999,224.799 568.621,225.296 569.381 C 225.793 570.140,226.605 570.946,227.100 571.172 C 227.595 571.398,228.000 571.772,228.000 572.003 C 228.000 572.362,273.800 618.349,284.829 629.063 C 286.903 631.078,290.160 634.318,292.066 636.263 C 297.627 641.939,301.460 645.316,303.499 646.337 C 304.545 646.861,305.760 647.607,306.200 647.995 C 306.640 648.384,307.720 648.925,308.600 649.198 C 309.480 649.471,311.460 650.253,313.000 650.935 L 315.800 652.175 323.200 652.176 C 330.369 652.176,330.662 652.144,332.600 651.145 C 333.700 650.578,335.950 649.795,337.600 649.405 C 339.250 649.015,340.960 648.380,341.400 647.993 C 341.840 647.607,342.944 646.917,343.854 646.461 C 344.763 646.004,346.033 645.129,346.675 644.515 C 347.317 643.902,349.092 642.440,350.621 641.266 C 353.336 639.180,356.538 635.399,358.412 632.064 C 358.927 631.149,359.481 630.400,359.645 630.400 C 359.809 630.400,360.323 629.365,360.789 628.100 C 361.255 626.835,361.964 625.344,362.366 624.786 C 365.498 620.440,365.511 603.433,362.388 596.925 C 361.734 595.564,361.200 594.291,361.200 594.097 C 361.200 593.718,357.785 588.754,355.800 586.247 C 354.300 584.352,347.645 577.601,347.274 577.597 C 347.124 577.596,346.576 576.972,346.058 576.211 C 345.539 575.450,344.774 574.719,344.358 574.587 C 343.941 574.454,343.600 574.189,343.600 573.998 C 343.600 573.806,341.665 571.749,339.300 569.425 C 336.935 567.101,334.844 565.042,334.652 564.848 C 334.461 564.654,333.765 563.955,333.105 563.295 C 332.445 562.635,331.701 561.875,331.452 561.606 C 329.655 559.660,327.727 557.555,327.342 557.119 C 327.091 556.833,325.741 555.486,324.342 554.125 C 322.944 552.763,321.597 551.413,321.348 551.125 C 321.100 550.836,320.380 550.122,319.748 549.538 C 319.117 548.953,318.420 548.274,318.200 548.029 C 317.980 547.783,317.350 547.153,316.800 546.629 C 316.250 546.104,315.597 545.433,315.348 545.138 C 315.100 544.842,314.380 544.122,313.748 543.538 C 313.117 542.953,312.420 542.282,312.200 542.046 C 311.980 541.811,310.630 540.452,309.200 539.026 C 307.770 537.601,306.388 536.202,306.128 535.917 C 305.726 535.475,265.423 495.187,264.146 493.949 C 263.896 493.707,262.521 492.339,261.091 490.909 C 259.661 489.479,258.311 488.129,258.091 487.909 C 257.871 487.689,256.521 486.339,255.091 484.909 C 253.661 483.479,252.307 482.133,252.081 481.919 C 251.855 481.705,251.225 481.075,250.681 480.519 C 249.435 479.248,248.752 478.565,247.481 477.319 C 246.925 476.775,246.265 476.120,246.014 475.865 C 245.763 475.609,243.767 473.644,241.579 471.497 C 239.390 469.351,237.600 467.437,237.600 467.245 C 237.600 467.052,236.953 466.401,236.161 465.797 C 234.044 464.183,235.011 463.387,239.800 462.802 C 243.458 462.355,245.346 462.020,250.000 460.993 C 251.430 460.677,254.824 460.220,257.543 459.977 C 260.261 459.733,263.230 459.272,264.140 458.951 C 266.156 458.239,270.249 457.401,274.800 456.768 C 276.670 456.508,279.100 455.963,280.200 455.558 C 281.300 455.152,284.038 454.452,286.284 454.003 C 288.530 453.553,291.212 452.823,292.244 452.381 C 293.276 451.939,295.848 451.207,297.960 450.755 C 300.072 450.303,302.226 449.661,302.746 449.327 C 303.266 448.994,305.156 448.317,306.946 447.823 C 308.736 447.329,310.928 446.552,311.817 446.097 C 312.707 445.641,314.479 444.996,315.755 444.662 C 317.031 444.329,318.373 443.797,318.737 443.480 C 319.102 443.163,320.480 442.512,321.800 442.034 C 323.120 441.556,324.667 440.828,325.238 440.416 C 325.809 440.005,327.211 439.390,328.353 439.051 C 329.496 438.712,330.889 438.074,331.448 437.633 C 332.008 437.193,333.486 436.452,334.733 435.986 C 335.980 435.520,337.270 434.908,337.600 434.626 C 338.164 434.143,339.979 433.104,345.200 430.273 C 346.410 429.617,347.760 428.767,348.200 428.384 C 348.640 428.001,349.900 427.213,351.000 426.632 C 353.958 425.070,356.892 423.210,357.588 422.457 C 358.164 421.833,359.194 421.045,365.600 416.332 C 369.714 413.305,372.129 411.230,377.853 405.800 C 379.244 404.480,380.612 403.197,380.891 402.948 C 381.171 402.700,381.878 401.980,382.462 401.348 C 383.047 400.717,383.716 400.020,383.950 399.800 C 385.430 398.409,388.000 395.468,388.000 395.167 C 388.000 394.969,388.609 394.010,389.353 393.035 C 390.125 392.023,390.916 390.349,391.197 389.132 C 391.468 387.959,392.155 386.190,392.725 385.200 C 394.447 382.205,394.320 370.616,392.521 366.600 C 391.831 365.060,391.136 363.080,390.976 362.200 C 390.816 361.320,390.161 359.833,389.520 358.895 C 388.879 357.958,388.155 356.608,387.911 355.895 C 387.667 355.183,387.068 354.060,386.581 353.400 C 386.093 352.740,385.403 351.623,385.046 350.917 C 384.104 349.054,374.753 340.000,373.771 340.000 C 373.616 340.000,372.599 339.452,371.511 338.783 C 370.423 338.114,368.513 337.317,367.267 337.011 C 366.020 336.706,363.481 336.084,361.624 335.628 C 357.582 334.637,351.145 334.512,348.173 335.368 C 347.088 335.680,344.760 336.244,343.000 336.621 C 341.240 336.998,339.089 337.665,338.219 338.103 C 337.350 338.541,335.652 339.238,334.447 339.653 C 333.242 340.067,331.973 340.659,331.628 340.967 C 331.283 341.275,330.146 341.979,329.103 342.530 C 325.665 344.348,323.525 345.779,321.967 347.300 C 321.123 348.125,320.258 348.800,320.047 348.800 C 319.835 348.800,319.133 349.245,318.487 349.788 C 317.841 350.332,316.411 351.229,315.310 351.782 C 314.209 352.335,313.098 353.041,312.841 353.351 C 312.584 353.661,311.794 354.142,311.087 354.421 C 310.379 354.700,309.212 355.361,308.493 355.889 C 307.775 356.418,306.335 357.221,305.293 357.673 C 304.252 358.126,303.040 358.810,302.600 359.194 C 302.160 359.579,300.900 360.222,299.800 360.624 C 298.700 361.026,297.260 361.751,296.600 362.236 C 295.940 362.721,294.500 363.419,293.400 363.788 C 292.300 364.157,290.810 364.823,290.090 365.268 C 289.369 365.713,287.865 366.319,286.747 366.614 C 285.630 366.909,284.032 367.623,283.197 368.202 C 282.363 368.780,280.479 369.505,279.011 369.812 C 277.543 370.119,275.711 370.761,274.939 371.238 C 274.167 371.715,272.269 372.346,270.722 372.641 C 269.175 372.936,267.098 373.653,266.107 374.233 C 264.905 374.938,263.309 375.413,261.311 375.661 C 259.664 375.866,257.615 376.295,256.758 376.616 C 255.901 376.937,254.480 377.469,253.599 377.798 C 252.719 378.127,250.244 378.583,248.099 378.811 C 245.955 379.039,242.983 379.586,241.495 380.026 C 237.275 381.274,235.425 381.571,229.200 382.003 C 226.010 382.224,221.780 382.586,219.800 382.807 C 207.741 384.154,192.234 384.248,186.086 383.011 C 184.609 382.713,181.060 382.359,178.200 382.222 C 171.136 381.886,166.318 381.266,163.668 380.354 C 162.449 379.935,159.333 379.330,156.745 379.009 C 153.732 378.636,151.180 378.065,149.649 377.420 C 148.334 376.867,145.722 376.146,143.845 375.819 C 141.969 375.492,139.391 374.788,138.116 374.255 C 136.842 373.723,134.720 373.073,133.400 372.811 C 132.080 372.550,129.966 371.807,128.702 371.160 C 127.439 370.514,125.580 369.872,124.572 369.734 C 123.564 369.596,122.118 369.061,121.358 368.546 C 120.599 368.031,119.038 367.327,117.889 366.982 C 116.740 366.638,114.987 365.929,113.993 365.407 C 112.999 364.885,111.170 364.078,109.929 363.614 C 108.688 363.150,107.469 362.525,107.221 362.225 C 106.972 361.925,105.741 361.273,104.484 360.776 C 103.228 360.279,101.913 359.628,101.563 359.331 C 101.212 359.033,99.829 358.360,98.488 357.835 C 97.147 357.309,95.454 356.432,94.725 355.886 C 93.996 355.340,93.016 354.776,92.547 354.634 C 92.077 354.492,91.134 353.841,90.450 353.188 C 89.767 352.535,89.002 352.000,88.752 352.000 C 88.502 352.000,87.285 351.320,86.049 350.490 C 84.812 349.659,83.300 348.760,82.689 348.493 C 82.078 348.226,81.470 347.728,81.339 347.386 C 81.208 347.045,80.449 346.432,79.651 346.025 C 78.853 345.617,77.237 344.635,76.060 343.842 C 74.883 343.049,73.692 342.400,73.414 342.400 C 73.136 342.400,72.423 342.019,71.831 341.553 C 71.238 341.087,69.829 340.354,68.700 339.925 C 67.570 339.496,66.174 338.809,65.597 338.398 C 61.190 335.260,45.923 333.992,38.400 336.139 " stroke="none" fill="#fc451d" fill-rule="evenodd"></path></g></svg>