<svg id="svg" version="1.1" xmlns="http://www.w3.org/2000/svg" xmlns:xlink="http://www.w3.org/1999/xlink" width="400" height="323.40425531914894" viewBox="0, 0, 400,323.40425531914894"><g id="svgg"><path id="path0" d="M265.658 10.684 C 264.658 10.841,262.865 11.195,261.673 11.472 C 260.482 11.748,258.939 11.974,258.244 11.974 C 257.550 11.974,256.212 12.253,255.271 12.595 C 254.330 12.936,252.761 13.379,251.784 13.579 C 250.807 13.779,249.715 14.132,249.357 14.365 C 248.999 14.597,247.905 15.047,246.926 15.365 C 244.782 16.060,235.374 20.663,233.333 22.015 C 232.532 22.546,231.458 23.234,230.946 23.545 C 230.435 23.856,229.069 24.875,227.912 25.809 C 226.755 26.744,225.701 27.508,225.571 27.508 C 224.598 27.508,212.132 40.941,211.266 42.923 C 211.043 43.433,210.565 44.156,210.204 44.529 C 209.842 44.902,209.136 45.922,208.633 46.795 C 208.130 47.668,207.010 49.591,206.144 51.069 C 205.278 52.546,204.393 54.290,204.177 54.944 C 203.962 55.598,203.516 56.574,203.188 57.112 C 202.860 57.650,202.591 58.324,202.590 58.609 C 202.590 58.894,202.248 59.769,201.831 60.553 C 201.414 61.338,200.964 62.556,200.832 63.260 C 200.700 63.964,200.403 64.910,200.172 65.361 C 199.941 65.812,199.578 67.055,199.366 68.123 C 199.154 69.191,198.708 71.084,198.373 72.330 C 196.838 78.057,196.650 90.933,197.930 102.823 C 198.239 105.694,198.136 105.721,190.615 104.696 C 188.746 104.441,185.138 104.073,182.597 103.877 C 180.056 103.681,177.188 103.315,176.223 103.063 C 175.259 102.812,173.115 102.449,171.458 102.256 C 169.802 102.064,167.718 101.706,166.828 101.462 C 165.939 101.217,163.894 100.793,162.284 100.520 C 160.675 100.247,158.855 99.818,158.239 99.568 C 157.623 99.318,156.325 99.012,155.353 98.889 C 154.381 98.766,152.925 98.390,152.117 98.053 C 151.309 97.716,149.813 97.293,148.794 97.114 C 147.775 96.935,146.610 96.578,146.205 96.320 C 145.800 96.063,144.601 95.677,143.540 95.462 C 142.480 95.247,141.315 94.879,140.951 94.644 C 140.588 94.409,139.563 94.051,138.673 93.849 C 137.783 93.647,136.672 93.275,136.205 93.024 C 135.737 92.772,134.572 92.403,133.616 92.203 C 132.659 92.003,131.440 91.577,130.906 91.258 C 130.372 90.939,129.280 90.490,128.479 90.261 C 127.678 90.032,126.696 89.598,126.297 89.296 C 125.898 88.993,125.025 88.645,124.356 88.521 C 123.687 88.397,122.702 88.033,122.168 87.712 C 121.634 87.391,120.855 87.025,120.436 86.898 C 120.017 86.771,119.159 86.317,118.530 85.890 C 117.900 85.463,117.171 85.113,116.908 85.113 C 116.384 85.113,110.217 82.134,106.634 80.151 C 101.317 77.207,100.328 76.699,99.908 76.699 C 99.665 76.699,99.124 76.335,98.706 75.890 C 98.287 75.445,97.789 75.079,97.597 75.077 C 97.406 75.074,96.018 74.274,94.512 73.297 C 93.007 72.320,91.613 71.521,91.413 71.521 C 91.214 71.521,90.709 71.157,90.291 70.712 C 89.873 70.267,89.433 69.903,89.312 69.903 C 88.891 69.903,85.113 67.538,85.113 67.274 C 85.113 67.127,84.640 66.763,84.061 66.465 C 83.483 66.168,82.412 65.435,81.681 64.838 C 80.143 63.581,78.806 62.601,76.537 61.065 C 69.690 56.430,50.605 38.829,44.175 31.218 C 41.386 27.917,38.569 25.169,38.205 25.394 C 38.012 25.513,37.564 26.146,37.209 26.802 C 36.854 27.457,36.428 28.212,36.264 28.479 C 36.099 28.746,35.601 29.765,35.156 30.744 C 32.941 35.619,32.362 37.004,32.362 37.428 C 32.362 37.682,32.089 38.430,31.755 39.091 C 31.421 39.751,30.979 41.092,30.773 42.071 C 30.567 43.050,30.126 44.725,29.792 45.793 C 29.055 48.155,27.830 56.897,27.616 61.327 C 27.378 66.258,28.779 78.637,29.906 81.553 C 30.146 82.176,30.450 83.341,30.580 84.142 C 30.711 84.943,31.152 86.400,31.560 87.379 C 31.969 88.358,32.404 89.700,32.528 90.361 C 32.652 91.022,32.957 91.731,33.204 91.937 C 33.452 92.142,33.859 92.985,34.109 93.809 C 34.797 96.080,37.282 101.075,38.287 102.207 C 38.553 102.506,39.004 103.261,39.289 103.883 C 39.575 104.506,40.250 105.599,40.789 106.311 C 41.953 107.847,43.047 109.393,44.224 111.165 C 45.329 112.827,55.773 123.262,57.457 124.387 C 58.162 124.857,59.289 125.611,59.963 126.063 C 60.637 126.515,61.102 127.025,60.996 127.197 C 60.666 127.729,55.508 127.541,52.682 126.893 C 51.207 126.554,49.199 126.179,48.220 126.058 C 44.986 125.661,35.944 122.764,34.309 121.602 C 33.871 121.290,33.274 121.036,32.983 121.036 C 32.691 121.036,31.953 120.696,31.341 120.281 C 29.461 119.005,28.076 118.646,27.592 119.307 C 26.788 120.407,27.223 128.178,28.314 132.201 C 28.556 133.091,28.849 134.693,28.967 135.761 C 29.085 136.828,29.468 138.357,29.818 139.158 C 30.168 139.958,30.541 141.269,30.646 142.070 C 30.750 142.872,31.162 144.110,31.560 144.822 C 31.958 145.534,32.373 146.602,32.482 147.196 C 32.592 147.789,32.954 148.663,33.288 149.137 C 33.622 149.612,33.999 150.364,34.124 150.809 C 34.340 151.573,35.971 154.956,37.178 157.146 C 37.481 157.694,38.270 158.932,38.931 159.896 C 40.388 162.020,40.955 162.874,42.031 164.563 C 43.750 167.261,52.839 176.874,56.192 179.541 C 58.574 181.435,59.663 182.201,59.975 182.201 C 60.162 182.201,60.653 182.519,61.067 182.908 C 61.901 183.692,62.874 184.302,67.152 186.726 C 68.754 187.634,70.283 188.511,70.550 188.674 C 71.356 189.168,75.649 190.939,76.040 190.939 C 76.241 190.939,77.089 191.303,77.925 191.748 C 78.761 192.193,79.664 192.556,79.933 192.555 C 80.201 192.554,81.440 192.904,82.686 193.332 C 83.932 193.761,85.602 194.287,86.397 194.501 C 88.077 194.953,87.646 195.628,85.462 195.962 C 84.825 196.059,83.441 196.360,82.385 196.631 C 77.688 197.834,60.779 198.049,57.145 196.951 C 54.811 196.246,54.320 197.203,55.663 199.838 C 56.019 200.536,56.311 201.421,56.311 201.805 C 56.311 202.188,56.602 202.872,56.958 203.325 C 57.314 203.777,57.605 204.263,57.605 204.405 C 57.605 205.308,61.172 211.683,63.916 215.685 C 64.984 217.242,66.168 218.974,66.548 219.533 C 66.927 220.093,68.285 221.715,69.564 223.139 C 70.843 224.563,72.268 226.165,72.730 226.699 C 73.192 227.233,74.311 228.297,75.216 229.065 C 81.039 234.001,82.049 234.839,82.696 235.275 C 85.837 237.388,87.238 238.276,87.677 238.430 C 87.958 238.529,88.457 238.842,88.787 239.127 C 89.408 239.664,90.019 239.993,94.747 242.343 C 99.055 244.484,100.077 244.938,101.133 245.178 C 101.667 245.299,102.540 245.623,103.074 245.898 C 103.608 246.173,105.138 246.649,106.472 246.955 C 107.807 247.262,109.482 247.730,110.194 247.996 C 110.906 248.263,112.833 248.643,114.477 248.842 C 116.120 249.040,117.840 249.346,118.299 249.520 C 118.758 249.695,120.181 249.922,121.460 250.026 C 126.805 250.459,126.744 250.747,120.388 255.091 C 116.090 258.029,114.432 259.087,111.952 260.473 C 111.318 260.827,110.614 261.339,110.389 261.610 C 110.165 261.881,109.446 262.275,108.793 262.485 C 108.140 262.695,107.404 263.031,107.157 263.230 C 106.648 263.642,105.925 264.020,99.748 267.103 C 97.306 268.322,94.631 269.669,93.803 270.096 C 92.976 270.524,92.030 270.874,91.700 270.875 C 91.370 270.876,90.637 271.159,90.071 271.504 C 89.505 271.849,88.413 272.298,87.644 272.503 C 86.875 272.707,85.809 273.135,85.275 273.453 C 84.741 273.771,83.738 274.132,83.047 274.255 C 82.355 274.379,81.266 274.760,80.625 275.103 C 79.985 275.446,78.949 275.811,78.323 275.915 C 77.697 276.018,76.165 276.443,74.919 276.859 C 71.753 277.918,67.595 278.949,63.916 279.589 C 62.848 279.774,61.240 280.130,60.343 280.380 C 59.446 280.630,57.117 281.006,55.167 281.216 C 53.218 281.426,50.748 281.807,49.679 282.064 C 46.761 282.764,32.803 283.259,23.948 282.977 C 15.556 282.709,15.235 282.721,14.622 283.312 C 14.272 283.650,14.419 283.827,15.431 284.293 C 16.111 284.605,16.812 285.039,16.990 285.257 C 17.168 285.474,18.552 286.309,20.065 287.111 C 21.578 287.914,23.689 289.072,24.757 289.686 C 25.825 290.299,28.083 291.494,29.773 292.340 C 31.464 293.186,33.066 294.006,33.333 294.162 C 35.107 295.195,41.446 298.088,42.307 298.256 C 42.881 298.368,43.511 298.653,43.707 298.889 C 43.903 299.124,44.816 299.566,45.737 299.870 C 46.658 300.174,47.702 300.607,48.058 300.832 C 48.414 301.058,49.335 301.408,50.104 301.610 C 50.873 301.813,51.965 302.261,52.531 302.606 C 53.097 302.951,53.857 303.234,54.220 303.235 C 54.582 303.236,55.432 303.518,56.108 303.863 C 56.783 304.207,58.059 304.644,58.943 304.833 C 59.827 305.023,60.950 305.385,61.438 305.637 C 61.927 305.890,63.267 306.340,64.416 306.637 C 65.565 306.934,66.663 307.309,66.857 307.469 C 67.051 307.629,68.362 307.997,69.770 308.286 C 71.178 308.576,72.729 309.017,73.217 309.267 C 73.705 309.517,75.252 309.922,76.655 310.167 C 78.058 310.412,79.482 310.761,79.819 310.941 C 80.157 311.122,81.668 311.440,83.178 311.648 C 84.687 311.856,86.796 312.294,87.864 312.623 C 88.932 312.951,90.825 313.317,92.071 313.436 C 93.317 313.555,95.502 313.919,96.926 314.245 C 98.350 314.570,101.553 315.003,104.045 315.207 C 106.537 315.410,109.960 315.797,111.650 316.068 C 118.357 317.141,147.643 316.994,153.074 315.859 C 153.875 315.692,156.708 315.395,159.368 315.200 C 162.029 315.005,165.524 314.578,167.135 314.252 C 168.746 313.925,171.011 313.559,172.168 313.439 C 173.325 313.319,175.291 312.948,176.537 312.615 C 177.783 312.282,180.040 311.836,181.553 311.622 C 183.066 311.409,184.869 311.037,185.560 310.795 C 186.251 310.553,187.762 310.204,188.918 310.019 C 190.074 309.834,191.451 309.461,191.977 309.188 C 192.504 308.916,193.816 308.551,194.892 308.378 C 195.969 308.204,197.304 307.828,197.859 307.540 C 198.413 307.253,199.814 306.760,200.971 306.444 C 203.884 305.650,207.022 304.595,208.666 303.858 C 209.427 303.516,210.344 303.236,210.703 303.236 C 211.062 303.236,212.040 302.872,212.876 302.427 C 213.712 301.982,214.636 301.618,214.929 301.618 C 215.498 301.618,218.937 300.149,221.407 298.849 C 222.234 298.414,223.130 298.058,223.397 298.058 C 223.664 298.058,224.663 297.647,225.618 297.145 C 226.572 296.643,227.643 296.138,227.997 296.022 C 228.351 295.906,228.859 295.673,229.126 295.504 C 229.393 295.335,230.995 294.524,232.686 293.702 C 237.178 291.518,241.169 289.346,241.909 288.681 C 242.265 288.362,242.899 287.996,243.318 287.869 C 243.737 287.742,244.569 287.324,245.166 286.942 C 248.000 285.126,249.139 284.466,249.436 284.466 C 249.614 284.466,249.954 284.231,250.192 283.944 C 250.430 283.657,251.504 282.863,252.578 282.180 C 253.652 281.497,254.968 280.632,255.502 280.259 C 256.036 279.886,257.346 279.000,258.414 278.291 C 259.482 277.582,260.939 276.563,261.650 276.027 C 262.362 275.490,263.319 274.803,263.776 274.500 C 264.639 273.928,266.412 272.516,271.770 268.138 C 275.985 264.694,284.908 256.457,288.511 252.683 C 294.140 246.789,297.719 242.862,299.172 240.985 C 299.980 239.943,301.151 238.564,301.776 237.920 C 302.401 237.277,302.913 236.655,302.913 236.539 C 302.913 236.354,304.699 234.025,307.266 230.862 C 307.720 230.303,308.091 229.707,308.091 229.536 C 308.091 229.366,308.397 228.949,308.771 228.611 C 310.306 227.222,320.374 211.555,323.310 205.987 C 323.686 205.275,324.488 203.892,325.093 202.913 C 325.698 201.934,326.356 200.769,326.555 200.324 C 326.755 199.879,327.121 199.150,327.369 198.706 C 327.617 198.261,328.045 197.387,328.319 196.764 C 328.594 196.141,328.963 195.413,329.141 195.146 C 329.318 194.879,329.681 194.150,329.948 193.528 C 330.214 192.905,330.710 191.812,331.049 191.100 C 331.388 190.388,332.038 188.967,332.493 187.942 C 332.949 186.917,333.677 185.315,334.111 184.382 C 334.545 183.449,335.054 182.104,335.241 181.392 C 335.429 180.680,335.790 179.802,336.044 179.440 C 336.298 179.079,336.681 178.134,336.895 177.340 C 337.109 176.546,337.540 175.530,337.853 175.084 C 338.166 174.637,338.525 173.689,338.651 172.977 C 338.778 172.265,339.235 170.927,339.667 170.004 C 340.099 169.080,340.453 168.093,340.453 167.810 C 340.453 167.526,340.813 166.439,341.253 165.393 C 341.694 164.347,342.148 162.859,342.263 162.085 C 342.377 161.312,342.674 160.355,342.921 159.958 C 343.169 159.561,343.588 158.209,343.852 156.952 C 344.117 155.696,344.534 154.273,344.779 153.790 C 345.024 153.307,345.398 151.904,345.609 150.671 C 345.821 149.439,346.192 147.956,346.434 147.375 C 346.677 146.795,347.041 145.182,347.243 143.791 C 347.446 142.400,347.877 140.461,348.202 139.482 C 348.526 138.503,348.895 136.683,349.022 135.437 C 349.149 134.191,349.523 131.861,349.854 130.259 C 350.184 128.657,350.614 125.453,350.808 123.139 C 351.003 120.825,351.295 118.422,351.458 117.799 C 352.025 115.631,352.421 107.217,352.424 97.240 C 352.428 85.869,352.255 86.647,355.222 84.627 C 356.266 83.917,357.484 83.005,357.929 82.600 C 358.374 82.196,360.198 80.666,361.983 79.201 C 367.414 74.743,377.521 64.718,380.421 60.913 C 381.807 59.093,384.625 55.643,385.500 54.693 C 385.910 54.248,386.392 53.647,386.570 53.357 C 386.748 53.068,387.520 51.918,388.285 50.801 C 390.182 48.036,389.305 46.853,386.598 48.526 C 386.038 48.872,385.001 49.295,384.295 49.466 C 383.588 49.637,382.282 50.067,381.392 50.423 C 378.441 51.602,376.236 52.351,374.272 52.844 C 373.204 53.112,371.675 53.559,370.874 53.837 C 369.191 54.423,364.722 55.540,362.136 56.021 C 361.157 56.204,359.191 56.652,357.767 57.019 C 354.202 57.936,349.687 58.197,349.420 57.502 C 349.280 57.136,349.790 56.608,351.230 55.632 C 352.334 54.884,353.694 53.893,354.253 53.430 C 354.812 52.968,355.672 52.298,356.163 51.942 C 357.952 50.647,365.740 42.854,367.068 41.030 C 367.818 40.001,368.540 39.159,368.673 39.159 C 368.806 39.159,369.160 38.685,369.459 38.107 C 369.758 37.528,370.546 36.400,371.210 35.599 C 371.874 34.798,372.731 33.487,373.113 32.686 C 374.312 30.177,375.133 28.658,375.562 28.155 C 375.789 27.888,376.084 27.306,376.218 26.861 C 376.351 26.416,376.712 25.688,377.020 25.243 C 377.328 24.798,377.765 23.863,377.992 23.166 C 378.218 22.468,378.658 21.449,378.969 20.900 C 379.806 19.423,380.004 17.936,379.427 17.456 C 378.903 17.022,378.943 17.007,375.890 18.772 C 375.000 19.287,373.617 20.017,372.816 20.395 C 372.015 20.773,371.141 21.273,370.874 21.506 C 370.607 21.739,370.024 22.037,369.579 22.169 C 368.666 22.438,366.006 23.587,363.592 24.755 C 360.097 26.446,356.146 27.951,352.436 29.005 C 351.462 29.281,350.257 29.719,349.758 29.977 C 349.259 30.235,348.057 30.592,347.086 30.772 C 346.116 30.951,344.699 31.371,343.939 31.704 C 343.179 32.037,341.828 32.413,340.939 32.540 C 340.049 32.666,338.956 32.951,338.511 33.172 C 337.551 33.650,333.933 34.304,332.253 34.304 C 331.251 34.304,330.812 34.046,329.450 32.655 C 328.562 31.748,327.409 30.692,326.888 30.309 C 325.977 29.638,321.913 26.382,319.903 24.713 C 318.771 23.773,316.115 22.021,315.809 22.012 C 315.694 22.009,314.674 21.431,313.544 20.727 C 311.176 19.253,307.330 17.306,306.149 16.982 C 305.704 16.861,305.003 16.549,304.592 16.289 C 303.662 15.702,299.828 14.352,297.249 13.704 C 296.181 13.435,294.943 13.023,294.498 12.789 C 294.053 12.554,292.379 12.201,290.777 12.004 C 289.175 11.807,287.063 11.413,286.084 11.129 C 284.010 10.525,268.776 10.194,265.658 10.684 " stroke="none" fill="#04acf3" fill-rule="evenodd"></path></g></svg>