<svg id="svg" version="1.1" xmlns="http://www.w3.org/2000/svg" xmlns:xlink="http://www.w3.org/1999/xlink" width="400" height="280.5970149253731" viewBox="0, 0, 400,280.5970149253731"><g id="svgg"><path id="path0" d="M89.080 4.500 C 86.895 4.612,83.864 4.905,82.343 5.152 C 80.823 5.398,76.949 5.803,73.735 6.051 C 70.063 6.335,67.142 6.710,65.876 7.061 C 64.767 7.369,62.833 7.737,61.578 7.879 C 60.324 8.022,58.176 8.468,56.806 8.871 C 55.437 9.274,53.432 9.790,52.351 10.019 C 51.270 10.247,49.544 10.801,48.514 11.252 C 47.485 11.702,46.345 12.070,45.980 12.070 C 45.616 12.070,44.425 12.498,43.334 13.021 C 42.243 13.544,40.953 14.059,40.468 14.165 C 39.983 14.272,39.504 14.490,39.405 14.651 C 39.306 14.811,38.294 15.367,37.156 15.885 C 36.019 16.404,35.086 16.926,35.083 17.046 C 35.081 17.165,34.434 17.579,33.645 17.965 C 32.857 18.351,32.149 18.829,32.072 19.028 C 31.995 19.227,31.537 19.593,31.054 19.843 C 29.239 20.781,23.843 25.789,22.020 28.227 C 21.565 28.835,20.961 29.586,20.678 29.895 C 20.395 30.203,19.973 30.818,19.741 31.261 C 19.510 31.704,18.679 32.964,17.895 34.062 C 17.081 35.204,16.253 36.779,15.962 37.740 C 15.682 38.665,15.219 39.742,14.933 40.132 C 14.647 40.523,14.197 41.704,13.935 42.758 C 13.672 43.812,13.157 45.265,12.791 45.986 C 12.425 46.708,12.045 48.074,11.947 49.022 C 11.849 49.970,11.516 51.463,11.208 52.340 C 10.615 54.028,9.825 59.267,9.825 61.512 C 9.825 62.247,9.576 64.150,9.273 65.740 C 7.594 74.535,7.560 192.381,9.234 199.158 C 9.387 199.775,9.640 201.986,9.796 204.070 C 10.071 207.728,10.761 211.808,11.646 215.009 C 11.879 215.853,12.073 217.053,12.076 217.675 C 12.079 218.298,12.408 219.691,12.806 220.772 C 13.203 221.853,13.773 223.713,14.071 224.906 C 14.370 226.100,14.912 227.679,15.278 228.415 C 15.643 229.152,16.031 230.323,16.141 231.018 C 16.250 231.712,16.570 232.533,16.851 232.842 C 17.132 233.151,17.633 234.098,17.965 234.947 C 18.297 235.796,18.789 236.744,19.060 237.053 C 19.330 237.361,19.722 238.160,19.932 238.827 C 20.142 239.494,20.611 240.316,20.975 240.652 C 21.338 240.988,21.813 241.671,22.029 242.169 C 22.245 242.667,22.697 243.362,23.033 243.713 C 23.369 244.064,23.787 244.677,23.962 245.076 C 24.428 246.139,25.635 247.546,28.632 250.521 C 30.098 251.978,31.425 253.307,31.579 253.474 C 31.733 253.641,32.228 254.120,32.679 254.538 C 33.129 254.956,33.698 255.530,33.942 255.812 C 34.186 256.095,34.828 256.557,35.368 256.838 C 35.909 257.119,36.730 257.677,37.193 258.078 C 37.656 258.479,38.231 258.806,38.471 258.807 C 38.711 258.807,39.326 259.239,39.838 259.768 C 40.350 260.296,41.101 260.809,41.507 260.908 C 41.913 261.007,42.688 261.391,43.228 261.761 C 43.768 262.130,44.756 262.625,45.422 262.860 C 46.088 263.094,46.948 263.534,47.332 263.836 C 47.717 264.139,48.688 264.603,49.490 264.868 C 50.291 265.133,51.225 265.529,51.564 265.750 C 51.903 265.970,53.266 266.449,54.593 266.814 C 55.921 267.179,57.412 267.722,57.907 268.020 C 58.402 268.318,59.464 268.644,60.268 268.745 C 61.071 268.846,62.848 269.297,64.216 269.748 C 65.584 270.199,67.803 270.704,69.145 270.871 C 70.488 271.038,71.869 271.281,72.214 271.412 C 74.074 272.115,81.443 273.118,84.831 273.128 C 85.802 273.131,87.607 273.327,88.842 273.562 C 93.444 274.440,99.426 274.491,200.702 274.507 C 301.060 274.523,311.202 274.448,313.852 273.670 C 314.377 273.515,316.954 273.252,319.579 273.085 C 324.178 272.792,328.390 272.203,331.930 271.357 C 332.856 271.136,334.751 270.803,336.140 270.617 C 337.530 270.432,339.235 270.024,339.930 269.712 C 340.625 269.399,342.253 268.968,343.549 268.754 C 344.845 268.540,346.108 268.189,346.356 267.973 C 346.604 267.758,347.691 267.297,348.772 266.949 C 349.853 266.601,351.179 266.088,351.719 265.809 C 352.260 265.530,353.352 265.098,354.147 264.848 C 354.942 264.599,355.953 264.085,356.393 263.707 C 356.833 263.328,357.395 263.018,357.643 263.018 C 357.890 263.018,358.522 262.707,359.046 262.327 C 359.571 261.947,360.489 261.369,361.086 261.041 C 361.684 260.714,363.119 259.729,364.275 258.854 C 365.431 257.979,366.655 257.074,366.994 256.842 C 367.928 256.205,374.199 249.757,375.158 248.448 C 375.621 247.815,376.354 246.887,376.788 246.386 C 377.221 245.884,377.893 244.842,378.281 244.070 C 379.575 241.498,380.561 239.757,381.143 239.017 C 381.460 238.614,381.934 237.628,382.197 236.826 C 382.459 236.024,382.966 234.861,383.324 234.242 C 383.683 233.622,384.162 232.315,384.390 231.337 C 384.619 230.359,384.989 229.350,385.213 229.095 C 385.437 228.840,385.833 227.684,386.092 226.526 C 386.351 225.368,386.817 223.853,387.127 223.158 C 387.437 222.463,387.879 220.632,388.109 219.088 C 388.339 217.544,388.830 215.270,389.200 214.035 C 389.675 212.450,389.960 210.510,390.171 207.439 C 390.335 205.046,390.658 202.204,390.888 201.123 C 391.964 196.063,392.000 193.897,391.996 134.175 C 391.992 73.020,391.986 72.711,390.741 65.684 C 390.591 64.835,390.337 62.407,390.177 60.289 C 390.018 58.170,389.748 56.086,389.578 55.657 C 388.987 54.167,388.464 52.056,388.078 49.609 C 387.858 48.217,387.437 46.740,387.107 46.207 C 386.787 45.690,386.398 44.586,386.241 43.756 C 386.085 42.925,385.656 41.614,385.288 40.842 C 384.920 40.070,384.398 38.816,384.127 38.056 C 383.856 37.295,383.370 36.269,383.046 35.776 C 382.042 34.249,380.792 32.219,380.338 31.376 C 380.099 30.933,379.590 30.229,379.208 29.812 C 378.825 29.394,378.275 28.674,377.986 28.211 C 377.102 26.796,370.695 20.589,369.477 19.968 C 368.848 19.646,368.282 19.232,368.220 19.047 C 368.158 18.861,367.357 18.299,366.440 17.797 C 365.523 17.295,364.141 16.542,363.371 16.123 C 362.600 15.703,361.842 15.204,361.687 15.012 C 361.531 14.821,360.508 14.399,359.413 14.074 C 358.319 13.750,357.097 13.228,356.698 12.915 C 356.300 12.601,355.336 12.224,354.556 12.076 C 353.777 11.928,352.482 11.474,351.679 11.067 C 350.877 10.661,349.176 10.159,347.900 9.952 C 346.623 9.746,345.173 9.367,344.677 9.110 C 344.181 8.853,341.867 8.354,339.536 7.999 C 337.205 7.645,334.604 7.156,333.754 6.913 C 332.905 6.669,329.116 6.208,325.333 5.888 C 321.551 5.568,318.014 5.192,317.474 5.051 C 314.580 4.299,301.707 4.212,199.047 4.254 C 140.750 4.278,91.265 4.389,89.080 4.500 M174.623 84.882 C 176.075 85.616,177.692 86.523,178.217 86.898 C 178.742 87.272,179.377 87.579,179.630 87.579 C 179.882 87.579,180.780 88.024,181.624 88.569 C 182.467 89.113,183.617 89.682,184.178 89.834 C 184.739 89.985,185.344 90.285,185.522 90.500 C 185.701 90.715,186.568 91.176,187.450 91.525 C 188.331 91.873,189.305 92.370,189.614 92.629 C 189.923 92.888,190.807 93.330,191.579 93.613 C 192.351 93.895,193.361 94.405,193.825 94.745 C 194.288 95.086,195.046 95.453,195.509 95.562 C 195.972 95.670,196.730 96.118,197.193 96.557 C 197.656 96.996,198.552 97.492,199.183 97.659 C 199.815 97.826,200.557 98.211,200.832 98.515 C 201.107 98.819,201.916 99.286,202.631 99.553 C 203.345 99.820,204.309 100.310,204.772 100.643 C 205.235 100.976,206.182 101.468,206.877 101.736 C 207.572 102.003,208.330 102.391,208.561 102.598 C 208.793 102.804,209.677 103.245,210.526 103.578 C 211.375 103.910,212.323 104.412,212.632 104.693 C 212.940 104.973,213.586 105.285,214.066 105.387 C 214.546 105.488,215.615 106.007,216.442 106.540 C 217.269 107.073,218.154 107.509,218.408 107.509 C 218.661 107.509,219.360 107.845,219.961 108.257 C 221.284 109.163,226.138 111.719,226.536 111.719 C 226.692 111.719,227.452 112.154,228.225 112.685 C 228.997 113.216,229.910 113.736,230.253 113.840 C 230.596 113.944,231.130 114.246,231.439 114.512 C 231.747 114.777,232.632 115.225,233.404 115.507 C 234.175 115.790,235.186 116.300,235.649 116.640 C 236.112 116.981,236.870 117.347,237.333 117.455 C 237.796 117.562,238.642 117.970,239.213 118.361 C 239.783 118.752,240.749 119.245,241.359 119.455 C 241.968 119.665,242.929 120.150,243.493 120.533 C 244.057 120.916,244.986 121.379,245.558 121.562 C 246.129 121.746,246.786 122.056,247.018 122.253 C 247.691 122.824,249.527 123.789,249.939 123.789 C 250.147 123.789,250.491 123.998,250.702 124.254 C 250.914 124.509,251.877 125.072,252.842 125.505 C 253.807 125.938,254.596 126.410,254.596 126.554 C 254.596 126.698,255.070 127.009,255.649 127.243 C 256.678 127.661,258.552 129.365,259.189 130.463 C 259.365 130.766,259.733 131.329,260.007 131.714 C 261.776 134.200,261.484 142.523,259.579 143.946 C 259.309 144.147,259.087 144.463,259.086 144.647 C 259.084 145.177,257.296 146.985,256.250 147.514 C 255.727 147.779,255.046 148.212,254.737 148.476 C 254.428 148.741,253.642 149.109,252.990 149.295 C 252.338 149.480,251.394 150.007,250.892 150.465 C 250.391 150.923,249.795 151.298,249.568 151.298 C 249.216 151.298,247.946 151.976,244.491 154.009 C 244.105 154.236,242.968 154.806,241.965 155.275 C 240.961 155.744,239.951 156.287,239.719 156.482 C 239.488 156.676,238.667 157.063,237.895 157.342 C 237.123 157.620,236.239 158.058,235.930 158.316 C 235.621 158.573,234.790 158.996,234.083 159.256 C 233.376 159.516,232.372 160.043,231.853 160.426 C 231.333 160.809,230.771 161.123,230.603 161.123 C 230.434 161.123,229.606 161.568,228.762 162.111 C 227.919 162.655,226.849 163.207,226.386 163.338 C 225.923 163.470,224.868 164.035,224.042 164.595 C 223.216 165.156,222.380 165.614,222.185 165.614 C 221.990 165.614,221.490 165.882,221.074 166.209 C 220.659 166.536,219.663 167.051,218.861 167.355 C 218.059 167.658,217.180 168.107,216.907 168.352 C 216.634 168.597,215.760 169.027,214.965 169.307 C 214.169 169.587,213.256 170.045,212.935 170.324 C 212.614 170.604,211.846 171.002,211.228 171.209 C 210.611 171.416,209.726 171.852,209.263 172.178 C 208.800 172.505,207.853 173.059,207.158 173.409 C 206.463 173.760,205.389 174.358,204.772 174.738 C 204.154 175.118,203.444 175.431,203.192 175.434 C 202.941 175.437,202.562 175.649,202.350 175.907 C 202.138 176.165,201.144 176.746,200.140 177.199 C 199.137 177.652,198.126 178.179,197.895 178.370 C 197.663 178.561,196.752 179.002,195.871 179.351 C 194.989 179.701,194.127 180.156,193.954 180.364 C 193.782 180.571,193.039 180.941,192.303 181.186 C 191.567 181.430,190.541 181.942,190.024 182.324 C 189.507 182.705,188.873 183.018,188.615 183.018 C 188.357 183.018,187.403 183.523,186.494 184.140 C 185.585 184.757,184.638 185.262,184.389 185.262 C 184.139 185.263,183.609 185.520,183.210 185.834 C 182.811 186.147,181.810 186.703,180.986 187.067 C 180.161 187.432,179.322 187.928,179.121 188.170 C 178.920 188.412,178.041 188.877,177.167 189.203 C 176.294 189.528,175.326 190.018,175.018 190.291 C 173.699 191.456,168.893 192.266,166.316 191.757 C 160.481 190.605,157.639 187.796,156.055 181.614 C 155.912 181.056,155.800 162.084,155.796 137.669 L 155.789 94.707 156.775 91.780 C 159.341 84.161,167.192 81.126,174.623 84.882 " stroke="none" fill="#dc042c" fill-rule="evenodd"></path></g></svg>